<mxfile host="65bd71144e">
    <diagram name="6x6 Red and Green Grid" id="red-green-grid-6x6">
        <mxGraphModel dx="3074" dy="1147" grid="1" gridSize="10" guides="1" tooltips="1" connect="1" arrows="1" fold="1" page="1" pageScale="1" pageWidth="1000" pageHeight="600" background="#ffffff" math="0" shadow="0">
            <root>
                <mxCell id="0"/>
                <mxCell id="1" parent="0"/>
                <mxCell id="ZQFW1FxyH6ks3i3n7b6g-284" value="" style="group" vertex="1" connectable="0" parent="1">
                    <mxGeometry x="1030" y="280" width="320" height="320" as="geometry"/>
                </mxCell>
                <mxCell id="ZQFW1FxyH6ks3i3n7b6g-285" value="" style="shape=cube;whiteSpace=wrap;html=1;boundedLbl=1;backgroundOutline=1;darkOpacity=0.05;darkOpacity2=0.1;fillColor=#e51400;fontColor=#ffffff;strokeColor=#B20000;" vertex="1" parent="ZQFW1FxyH6ks3i3n7b6g-284">
                    <mxGeometry x="240" y="240" width="80" height="80" as="geometry"/>
                </mxCell>
                <mxCell id="ZQFW1FxyH6ks3i3n7b6g-286" value="" style="shape=cube;whiteSpace=wrap;html=1;boundedLbl=1;backgroundOutline=1;darkOpacity=0.05;darkOpacity2=0.1;fillColor=#e51400;fontColor=#ffffff;strokeColor=#B20000;" vertex="1" parent="ZQFW1FxyH6ks3i3n7b6g-284">
                    <mxGeometry x="180" y="240" width="80" height="80" as="geometry"/>
                </mxCell>
                <mxCell id="ZQFW1FxyH6ks3i3n7b6g-287" value="" style="shape=cube;whiteSpace=wrap;html=1;boundedLbl=1;backgroundOutline=1;darkOpacity=0.05;darkOpacity2=0.1;fillColor=#e51400;fontColor=#ffffff;strokeColor=#B20000;" vertex="1" parent="ZQFW1FxyH6ks3i3n7b6g-284">
                    <mxGeometry x="120" y="240" width="80" height="80" as="geometry"/>
                </mxCell>
                <mxCell id="ZQFW1FxyH6ks3i3n7b6g-288" value="" style="shape=cube;whiteSpace=wrap;html=1;boundedLbl=1;backgroundOutline=1;darkOpacity=0.05;darkOpacity2=0.1;fillColor=#e51400;fontColor=#ffffff;strokeColor=#B20000;" vertex="1" parent="ZQFW1FxyH6ks3i3n7b6g-284">
                    <mxGeometry x="60" y="240" width="80" height="80" as="geometry"/>
                </mxCell>
                <mxCell id="ZQFW1FxyH6ks3i3n7b6g-289" value="" style="shape=cube;whiteSpace=wrap;html=1;boundedLbl=1;backgroundOutline=1;darkOpacity=0.05;darkOpacity2=0.1;" vertex="1" parent="ZQFW1FxyH6ks3i3n7b6g-284">
                    <mxGeometry y="240" width="80" height="80" as="geometry"/>
                </mxCell>
                <mxCell id="ZQFW1FxyH6ks3i3n7b6g-290" value="" style="shape=cube;whiteSpace=wrap;html=1;boundedLbl=1;backgroundOutline=1;darkOpacity=0.05;darkOpacity2=0.1;fillColor=#e51400;fontColor=#ffffff;strokeColor=#B20000;" vertex="1" parent="ZQFW1FxyH6ks3i3n7b6g-284">
                    <mxGeometry x="240" y="180" width="80" height="80" as="geometry"/>
                </mxCell>
                <mxCell id="ZQFW1FxyH6ks3i3n7b6g-291" value="" style="shape=cube;whiteSpace=wrap;html=1;boundedLbl=1;backgroundOutline=1;darkOpacity=0.05;darkOpacity2=0.1;fillColor=#e51400;fontColor=#ffffff;strokeColor=#B20000;" vertex="1" parent="ZQFW1FxyH6ks3i3n7b6g-284">
                    <mxGeometry x="180" y="180" width="80" height="80" as="geometry"/>
                </mxCell>
                <mxCell id="ZQFW1FxyH6ks3i3n7b6g-292" value="" style="shape=cube;whiteSpace=wrap;html=1;boundedLbl=1;backgroundOutline=1;darkOpacity=0.05;darkOpacity2=0.1;fillColor=#e51400;fontColor=#ffffff;strokeColor=#B20000;" vertex="1" parent="ZQFW1FxyH6ks3i3n7b6g-284">
                    <mxGeometry x="120" y="180" width="80" height="80" as="geometry"/>
                </mxCell>
                <mxCell id="ZQFW1FxyH6ks3i3n7b6g-293" value="" style="shape=cube;whiteSpace=wrap;html=1;boundedLbl=1;backgroundOutline=1;darkOpacity=0.05;darkOpacity2=0.1;fillColor=#e51400;fontColor=#ffffff;strokeColor=#B20000;" vertex="1" parent="ZQFW1FxyH6ks3i3n7b6g-284">
                    <mxGeometry x="60" y="180" width="80" height="80" as="geometry"/>
                </mxCell>
                <mxCell id="ZQFW1FxyH6ks3i3n7b6g-294" value="" style="shape=cube;whiteSpace=wrap;html=1;boundedLbl=1;backgroundOutline=1;darkOpacity=0.05;darkOpacity2=0.1;fillColor=#ffcd28;strokeColor=#d79b00;gradientColor=#ffa500;" vertex="1" parent="ZQFW1FxyH6ks3i3n7b6g-284">
                    <mxGeometry y="180" width="80" height="80" as="geometry"/>
                </mxCell>
                <mxCell id="ZQFW1FxyH6ks3i3n7b6g-295" value="" style="shape=cube;whiteSpace=wrap;html=1;boundedLbl=1;backgroundOutline=1;darkOpacity=0.05;darkOpacity2=0.1;fillColor=#e51400;fontColor=#ffffff;strokeColor=#B20000;" vertex="1" parent="ZQFW1FxyH6ks3i3n7b6g-284">
                    <mxGeometry x="240" y="120" width="80" height="80" as="geometry"/>
                </mxCell>
                <mxCell id="ZQFW1FxyH6ks3i3n7b6g-296" value="" style="shape=cube;whiteSpace=wrap;html=1;boundedLbl=1;backgroundOutline=1;darkOpacity=0.05;darkOpacity2=0.1;fillColor=#e51400;fontColor=#ffffff;strokeColor=#B20000;" vertex="1" parent="ZQFW1FxyH6ks3i3n7b6g-284">
                    <mxGeometry x="180" y="120" width="80" height="80" as="geometry"/>
                </mxCell>
                <mxCell id="ZQFW1FxyH6ks3i3n7b6g-297" value="" style="shape=cube;whiteSpace=wrap;html=1;boundedLbl=1;backgroundOutline=1;darkOpacity=0.05;darkOpacity2=0.1;fillColor=#e51400;fontColor=#ffffff;strokeColor=#B20000;" vertex="1" parent="ZQFW1FxyH6ks3i3n7b6g-284">
                    <mxGeometry x="120" y="120" width="80" height="80" as="geometry"/>
                </mxCell>
                <mxCell id="ZQFW1FxyH6ks3i3n7b6g-298" value="" style="shape=cube;whiteSpace=wrap;html=1;boundedLbl=1;backgroundOutline=1;darkOpacity=0.05;darkOpacity2=0.1;fillColor=#e51400;fontColor=#ffffff;strokeColor=#B20000;" vertex="1" parent="ZQFW1FxyH6ks3i3n7b6g-284">
                    <mxGeometry x="60" y="120" width="80" height="80" as="geometry"/>
                </mxCell>
                <mxCell id="ZQFW1FxyH6ks3i3n7b6g-299" value="" style="shape=cube;whiteSpace=wrap;html=1;boundedLbl=1;backgroundOutline=1;darkOpacity=0.05;darkOpacity2=0.1;fontStyle=1;fillColor=#e51400;fontColor=#ffffff;strokeColor=#B20000;" vertex="1" parent="ZQFW1FxyH6ks3i3n7b6g-284">
                    <mxGeometry y="120" width="80" height="80" as="geometry"/>
                </mxCell>
                <mxCell id="ZQFW1FxyH6ks3i3n7b6g-300" value="" style="shape=cube;whiteSpace=wrap;html=1;boundedLbl=1;backgroundOutline=1;darkOpacity=0.05;darkOpacity2=0.1;fillColor=#e51400;fontColor=#ffffff;strokeColor=#B20000;" vertex="1" parent="ZQFW1FxyH6ks3i3n7b6g-284">
                    <mxGeometry x="240" y="60" width="80" height="80" as="geometry"/>
                </mxCell>
                <mxCell id="ZQFW1FxyH6ks3i3n7b6g-301" value="" style="shape=cube;whiteSpace=wrap;html=1;boundedLbl=1;backgroundOutline=1;darkOpacity=0.05;darkOpacity2=0.1;fillColor=#e51400;fontColor=#ffffff;strokeColor=#B20000;" vertex="1" parent="ZQFW1FxyH6ks3i3n7b6g-284">
                    <mxGeometry x="180" y="60" width="80" height="80" as="geometry"/>
                </mxCell>
                <mxCell id="ZQFW1FxyH6ks3i3n7b6g-302" value="" style="shape=cube;whiteSpace=wrap;html=1;boundedLbl=1;backgroundOutline=1;darkOpacity=0.05;darkOpacity2=0.1;fillColor=#e51400;fontColor=#ffffff;strokeColor=#B20000;" vertex="1" parent="ZQFW1FxyH6ks3i3n7b6g-284">
                    <mxGeometry x="120" y="60" width="80" height="80" as="geometry"/>
                </mxCell>
                <mxCell id="ZQFW1FxyH6ks3i3n7b6g-303" value="" style="shape=cube;whiteSpace=wrap;html=1;boundedLbl=1;backgroundOutline=1;darkOpacity=0.05;darkOpacity2=0.1;fillColor=#e51400;fontColor=#ffffff;strokeColor=#B20000;" vertex="1" parent="ZQFW1FxyH6ks3i3n7b6g-284">
                    <mxGeometry x="60" y="60" width="80" height="80" as="geometry"/>
                </mxCell>
                <mxCell id="ZQFW1FxyH6ks3i3n7b6g-304" value="" style="shape=cube;whiteSpace=wrap;html=1;boundedLbl=1;backgroundOutline=1;darkOpacity=0.05;darkOpacity2=0.1;fillColor=#ffcd28;strokeColor=#d79b00;gradientColor=#ffa500;" vertex="1" parent="ZQFW1FxyH6ks3i3n7b6g-284">
                    <mxGeometry y="60" width="80" height="80" as="geometry"/>
                </mxCell>
                <mxCell id="ZQFW1FxyH6ks3i3n7b6g-305" value="" style="shape=cube;whiteSpace=wrap;html=1;boundedLbl=1;backgroundOutline=1;darkOpacity=0.05;darkOpacity2=0.1;fillColor=#dae8fc;strokeColor=#6c8ebf;gradientColor=#7ea6e0;" vertex="1" parent="ZQFW1FxyH6ks3i3n7b6g-284">
                    <mxGeometry x="240" width="80" height="80" as="geometry"/>
                </mxCell>
                <mxCell id="ZQFW1FxyH6ks3i3n7b6g-306" value="" style="shape=cube;whiteSpace=wrap;html=1;boundedLbl=1;backgroundOutline=1;darkOpacity=0.05;darkOpacity2=0.1;" vertex="1" parent="ZQFW1FxyH6ks3i3n7b6g-284">
                    <mxGeometry x="180" width="80" height="80" as="geometry"/>
                </mxCell>
                <mxCell id="ZQFW1FxyH6ks3i3n7b6g-307" value="" style="shape=cube;whiteSpace=wrap;html=1;boundedLbl=1;backgroundOutline=1;darkOpacity=0.05;darkOpacity2=0.1;" vertex="1" parent="ZQFW1FxyH6ks3i3n7b6g-284">
                    <mxGeometry x="120" width="80" height="80" as="geometry"/>
                </mxCell>
                <mxCell id="ZQFW1FxyH6ks3i3n7b6g-308" value="" style="shape=cube;whiteSpace=wrap;html=1;boundedLbl=1;backgroundOutline=1;darkOpacity=0.05;darkOpacity2=0.1;fillColor=#d5e8d4;strokeColor=#82b366;gradientColor=#97d077;" vertex="1" parent="ZQFW1FxyH6ks3i3n7b6g-284">
                    <mxGeometry x="60" width="80" height="80" as="geometry"/>
                </mxCell>
                <mxCell id="ZQFW1FxyH6ks3i3n7b6g-309" value="" style="shape=cube;whiteSpace=wrap;html=1;boundedLbl=1;backgroundOutline=1;darkOpacity=0.05;darkOpacity2=0.1;fillColor=#e51400;fontColor=#ffffff;strokeColor=#B20000;" vertex="1" parent="ZQFW1FxyH6ks3i3n7b6g-284">
                    <mxGeometry width="80" height="80" as="geometry"/>
                </mxCell>
                <mxCell id="ZQFW1FxyH6ks3i3n7b6g-132" value="" style="group" vertex="1" connectable="0" parent="1">
                    <mxGeometry y="220" width="440" height="440" as="geometry"/>
                </mxCell>
                <mxCell id="ZQFW1FxyH6ks3i3n7b6g-106" value="" style="group" vertex="1" connectable="0" parent="ZQFW1FxyH6ks3i3n7b6g-132">
                    <mxGeometry width="320" height="320" as="geometry"/>
                </mxCell>
                <mxCell id="ZQFW1FxyH6ks3i3n7b6g-107" value="" style="shape=cube;whiteSpace=wrap;html=1;boundedLbl=1;backgroundOutline=1;darkOpacity=0.05;darkOpacity2=0.1;" vertex="1" parent="ZQFW1FxyH6ks3i3n7b6g-106">
                    <mxGeometry x="240" y="240" width="80" height="80" as="geometry"/>
                </mxCell>
                <mxCell id="ZQFW1FxyH6ks3i3n7b6g-108" value="" style="shape=cube;whiteSpace=wrap;html=1;boundedLbl=1;backgroundOutline=1;darkOpacity=0.05;darkOpacity2=0.1;" vertex="1" parent="ZQFW1FxyH6ks3i3n7b6g-106">
                    <mxGeometry x="180" y="240" width="80" height="80" as="geometry"/>
                </mxCell>
                <mxCell id="ZQFW1FxyH6ks3i3n7b6g-109" value="" style="shape=cube;whiteSpace=wrap;html=1;boundedLbl=1;backgroundOutline=1;darkOpacity=0.05;darkOpacity2=0.1;" vertex="1" parent="ZQFW1FxyH6ks3i3n7b6g-106">
                    <mxGeometry x="120" y="240" width="80" height="80" as="geometry"/>
                </mxCell>
                <mxCell id="ZQFW1FxyH6ks3i3n7b6g-110" value="" style="shape=cube;whiteSpace=wrap;html=1;boundedLbl=1;backgroundOutline=1;darkOpacity=0.05;darkOpacity2=0.1;" vertex="1" parent="ZQFW1FxyH6ks3i3n7b6g-106">
                    <mxGeometry x="60" y="240" width="80" height="80" as="geometry"/>
                </mxCell>
                <mxCell id="ZQFW1FxyH6ks3i3n7b6g-111" value="" style="shape=cube;whiteSpace=wrap;html=1;boundedLbl=1;backgroundOutline=1;darkOpacity=0.05;darkOpacity2=0.1;fillColor=#ffcd28;gradientColor=#ffa500;strokeColor=#d79b00;" vertex="1" parent="ZQFW1FxyH6ks3i3n7b6g-106">
                    <mxGeometry y="240" width="80" height="80" as="geometry"/>
                </mxCell>
                <mxCell id="ZQFW1FxyH6ks3i3n7b6g-112" value="" style="shape=cube;whiteSpace=wrap;html=1;boundedLbl=1;backgroundOutline=1;darkOpacity=0.05;darkOpacity2=0.1;" vertex="1" parent="ZQFW1FxyH6ks3i3n7b6g-106">
                    <mxGeometry x="240" y="180" width="80" height="80" as="geometry"/>
                </mxCell>
                <mxCell id="ZQFW1FxyH6ks3i3n7b6g-113" value="" style="shape=cube;whiteSpace=wrap;html=1;boundedLbl=1;backgroundOutline=1;darkOpacity=0.05;darkOpacity2=0.1;" vertex="1" parent="ZQFW1FxyH6ks3i3n7b6g-106">
                    <mxGeometry x="180" y="180" width="80" height="80" as="geometry"/>
                </mxCell>
                <mxCell id="ZQFW1FxyH6ks3i3n7b6g-114" value="" style="shape=cube;whiteSpace=wrap;html=1;boundedLbl=1;backgroundOutline=1;darkOpacity=0.05;darkOpacity2=0.1;" vertex="1" parent="ZQFW1FxyH6ks3i3n7b6g-106">
                    <mxGeometry x="120" y="180" width="80" height="80" as="geometry"/>
                </mxCell>
                <mxCell id="ZQFW1FxyH6ks3i3n7b6g-115" value="" style="shape=cube;whiteSpace=wrap;html=1;boundedLbl=1;backgroundOutline=1;darkOpacity=0.05;darkOpacity2=0.1;" vertex="1" parent="ZQFW1FxyH6ks3i3n7b6g-106">
                    <mxGeometry x="60" y="180" width="80" height="80" as="geometry"/>
                </mxCell>
                <mxCell id="ZQFW1FxyH6ks3i3n7b6g-116" value="" style="shape=cube;whiteSpace=wrap;html=1;boundedLbl=1;backgroundOutline=1;darkOpacity=0.05;darkOpacity2=0.1;fillColor=#ffcd28;gradientColor=#ffa500;strokeColor=#d79b00;" vertex="1" parent="ZQFW1FxyH6ks3i3n7b6g-106">
                    <mxGeometry y="180" width="80" height="80" as="geometry"/>
                </mxCell>
                <mxCell id="ZQFW1FxyH6ks3i3n7b6g-117" value="" style="shape=cube;whiteSpace=wrap;html=1;boundedLbl=1;backgroundOutline=1;darkOpacity=0.05;darkOpacity2=0.1;" vertex="1" parent="ZQFW1FxyH6ks3i3n7b6g-106">
                    <mxGeometry x="240" y="120" width="80" height="80" as="geometry"/>
                </mxCell>
                <mxCell id="ZQFW1FxyH6ks3i3n7b6g-118" value="" style="shape=cube;whiteSpace=wrap;html=1;boundedLbl=1;backgroundOutline=1;darkOpacity=0.05;darkOpacity2=0.1;" vertex="1" parent="ZQFW1FxyH6ks3i3n7b6g-106">
                    <mxGeometry x="180" y="120" width="80" height="80" as="geometry"/>
                </mxCell>
                <mxCell id="ZQFW1FxyH6ks3i3n7b6g-119" value="" style="shape=cube;whiteSpace=wrap;html=1;boundedLbl=1;backgroundOutline=1;darkOpacity=0.05;darkOpacity2=0.1;" vertex="1" parent="ZQFW1FxyH6ks3i3n7b6g-106">
                    <mxGeometry x="120" y="120" width="80" height="80" as="geometry"/>
                </mxCell>
                <mxCell id="ZQFW1FxyH6ks3i3n7b6g-120" value="" style="shape=cube;whiteSpace=wrap;html=1;boundedLbl=1;backgroundOutline=1;darkOpacity=0.05;darkOpacity2=0.1;" vertex="1" parent="ZQFW1FxyH6ks3i3n7b6g-106">
                    <mxGeometry x="60" y="120" width="80" height="80" as="geometry"/>
                </mxCell>
                <mxCell id="ZQFW1FxyH6ks3i3n7b6g-121" value="" style="shape=cube;whiteSpace=wrap;html=1;boundedLbl=1;backgroundOutline=1;darkOpacity=0.05;darkOpacity2=0.1;fontStyle=1;fillColor=#ffcd28;gradientColor=#ffa500;strokeColor=#d79b00;" vertex="1" parent="ZQFW1FxyH6ks3i3n7b6g-106">
                    <mxGeometry y="120" width="80" height="80" as="geometry"/>
                </mxCell>
                <mxCell id="ZQFW1FxyH6ks3i3n7b6g-122" value="" style="shape=cube;whiteSpace=wrap;html=1;boundedLbl=1;backgroundOutline=1;darkOpacity=0.05;darkOpacity2=0.1;" vertex="1" parent="ZQFW1FxyH6ks3i3n7b6g-106">
                    <mxGeometry x="240" y="60" width="80" height="80" as="geometry"/>
                </mxCell>
                <mxCell id="ZQFW1FxyH6ks3i3n7b6g-123" value="" style="shape=cube;whiteSpace=wrap;html=1;boundedLbl=1;backgroundOutline=1;darkOpacity=0.05;darkOpacity2=0.1;" vertex="1" parent="ZQFW1FxyH6ks3i3n7b6g-106">
                    <mxGeometry x="180" y="60" width="80" height="80" as="geometry"/>
                </mxCell>
                <mxCell id="ZQFW1FxyH6ks3i3n7b6g-124" value="" style="shape=cube;whiteSpace=wrap;html=1;boundedLbl=1;backgroundOutline=1;darkOpacity=0.05;darkOpacity2=0.1;" vertex="1" parent="ZQFW1FxyH6ks3i3n7b6g-106">
                    <mxGeometry x="120" y="60" width="80" height="80" as="geometry"/>
                </mxCell>
                <mxCell id="ZQFW1FxyH6ks3i3n7b6g-125" value="" style="shape=cube;whiteSpace=wrap;html=1;boundedLbl=1;backgroundOutline=1;darkOpacity=0.05;darkOpacity2=0.1;" vertex="1" parent="ZQFW1FxyH6ks3i3n7b6g-106">
                    <mxGeometry x="60" y="60" width="80" height="80" as="geometry"/>
                </mxCell>
                <mxCell id="ZQFW1FxyH6ks3i3n7b6g-126" value="" style="shape=cube;whiteSpace=wrap;html=1;boundedLbl=1;backgroundOutline=1;darkOpacity=0.05;darkOpacity2=0.1;fillColor=#ffcd28;gradientColor=#ffa500;strokeColor=#d79b00;" vertex="1" parent="ZQFW1FxyH6ks3i3n7b6g-106">
                    <mxGeometry y="60" width="80" height="80" as="geometry"/>
                </mxCell>
                <mxCell id="ZQFW1FxyH6ks3i3n7b6g-127" value="" style="shape=cube;whiteSpace=wrap;html=1;boundedLbl=1;backgroundOutline=1;darkOpacity=0.05;darkOpacity2=0.1;fillColor=#ffcd28;gradientColor=#ffa500;strokeColor=#d79b00;" vertex="1" parent="ZQFW1FxyH6ks3i3n7b6g-106">
                    <mxGeometry x="240" width="80" height="80" as="geometry"/>
                </mxCell>
                <mxCell id="ZQFW1FxyH6ks3i3n7b6g-128" value="" style="shape=cube;whiteSpace=wrap;html=1;boundedLbl=1;backgroundOutline=1;darkOpacity=0.05;darkOpacity2=0.1;fillColor=#ffcd28;gradientColor=#ffa500;strokeColor=#d79b00;" vertex="1" parent="ZQFW1FxyH6ks3i3n7b6g-106">
                    <mxGeometry x="180" width="80" height="80" as="geometry"/>
                </mxCell>
                <mxCell id="ZQFW1FxyH6ks3i3n7b6g-129" value="" style="shape=cube;whiteSpace=wrap;html=1;boundedLbl=1;backgroundOutline=1;darkOpacity=0.05;darkOpacity2=0.1;fillColor=#ffcd28;gradientColor=#ffa500;strokeColor=#d79b00;" vertex="1" parent="ZQFW1FxyH6ks3i3n7b6g-106">
                    <mxGeometry x="120" width="80" height="80" as="geometry"/>
                </mxCell>
                <mxCell id="ZQFW1FxyH6ks3i3n7b6g-130" value="" style="shape=cube;whiteSpace=wrap;html=1;boundedLbl=1;backgroundOutline=1;darkOpacity=0.05;darkOpacity2=0.1;fillColor=#ffcd28;gradientColor=#ffa500;strokeColor=#d79b00;" vertex="1" parent="ZQFW1FxyH6ks3i3n7b6g-106">
                    <mxGeometry x="60" width="80" height="80" as="geometry"/>
                </mxCell>
                <mxCell id="ZQFW1FxyH6ks3i3n7b6g-131" value="" style="shape=cube;whiteSpace=wrap;html=1;boundedLbl=1;backgroundOutline=1;darkOpacity=0.05;darkOpacity2=0.1;fillColor=#ffcd28;gradientColor=#ffa500;strokeColor=#d79b00;" vertex="1" parent="ZQFW1FxyH6ks3i3n7b6g-106">
                    <mxGeometry width="80" height="80" as="geometry"/>
                </mxCell>
                <mxCell id="ZQFW1FxyH6ks3i3n7b6g-80" value="" style="group" vertex="1" connectable="0" parent="ZQFW1FxyH6ks3i3n7b6g-132">
                    <mxGeometry x="30" y="30" width="320" height="320" as="geometry"/>
                </mxCell>
                <mxCell id="ZQFW1FxyH6ks3i3n7b6g-81" value="" style="shape=cube;whiteSpace=wrap;html=1;boundedLbl=1;backgroundOutline=1;darkOpacity=0.05;darkOpacity2=0.1;" vertex="1" parent="ZQFW1FxyH6ks3i3n7b6g-80">
                    <mxGeometry x="240" y="240" width="80" height="80" as="geometry"/>
                </mxCell>
                <mxCell id="ZQFW1FxyH6ks3i3n7b6g-82" value="" style="shape=cube;whiteSpace=wrap;html=1;boundedLbl=1;backgroundOutline=1;darkOpacity=0.05;darkOpacity2=0.1;" vertex="1" parent="ZQFW1FxyH6ks3i3n7b6g-80">
                    <mxGeometry x="180" y="240" width="80" height="80" as="geometry"/>
                </mxCell>
                <mxCell id="ZQFW1FxyH6ks3i3n7b6g-83" value="" style="shape=cube;whiteSpace=wrap;html=1;boundedLbl=1;backgroundOutline=1;darkOpacity=0.05;darkOpacity2=0.1;" vertex="1" parent="ZQFW1FxyH6ks3i3n7b6g-80">
                    <mxGeometry x="120" y="240" width="80" height="80" as="geometry"/>
                </mxCell>
                <mxCell id="ZQFW1FxyH6ks3i3n7b6g-84" value="" style="shape=cube;whiteSpace=wrap;html=1;boundedLbl=1;backgroundOutline=1;darkOpacity=0.05;darkOpacity2=0.1;" vertex="1" parent="ZQFW1FxyH6ks3i3n7b6g-80">
                    <mxGeometry x="60" y="240" width="80" height="80" as="geometry"/>
                </mxCell>
                <mxCell id="ZQFW1FxyH6ks3i3n7b6g-85" value="" style="shape=cube;whiteSpace=wrap;html=1;boundedLbl=1;backgroundOutline=1;darkOpacity=0.05;darkOpacity2=0.1;" vertex="1" parent="ZQFW1FxyH6ks3i3n7b6g-80">
                    <mxGeometry y="240" width="80" height="80" as="geometry"/>
                </mxCell>
                <mxCell id="ZQFW1FxyH6ks3i3n7b6g-86" value="" style="shape=cube;whiteSpace=wrap;html=1;boundedLbl=1;backgroundOutline=1;darkOpacity=0.05;darkOpacity2=0.1;" vertex="1" parent="ZQFW1FxyH6ks3i3n7b6g-80">
                    <mxGeometry x="240" y="180" width="80" height="80" as="geometry"/>
                </mxCell>
                <mxCell id="ZQFW1FxyH6ks3i3n7b6g-87" value="" style="shape=cube;whiteSpace=wrap;html=1;boundedLbl=1;backgroundOutline=1;darkOpacity=0.05;darkOpacity2=0.1;" vertex="1" parent="ZQFW1FxyH6ks3i3n7b6g-80">
                    <mxGeometry x="180" y="180" width="80" height="80" as="geometry"/>
                </mxCell>
                <mxCell id="ZQFW1FxyH6ks3i3n7b6g-88" value="" style="shape=cube;whiteSpace=wrap;html=1;boundedLbl=1;backgroundOutline=1;darkOpacity=0.05;darkOpacity2=0.1;" vertex="1" parent="ZQFW1FxyH6ks3i3n7b6g-80">
                    <mxGeometry x="120" y="180" width="80" height="80" as="geometry"/>
                </mxCell>
                <mxCell id="ZQFW1FxyH6ks3i3n7b6g-89" value="" style="shape=cube;whiteSpace=wrap;html=1;boundedLbl=1;backgroundOutline=1;darkOpacity=0.05;darkOpacity2=0.1;" vertex="1" parent="ZQFW1FxyH6ks3i3n7b6g-80">
                    <mxGeometry x="60" y="180" width="80" height="80" as="geometry"/>
                </mxCell>
                <mxCell id="ZQFW1FxyH6ks3i3n7b6g-90" value="" style="shape=cube;whiteSpace=wrap;html=1;boundedLbl=1;backgroundOutline=1;darkOpacity=0.05;darkOpacity2=0.1;" vertex="1" parent="ZQFW1FxyH6ks3i3n7b6g-80">
                    <mxGeometry y="180" width="80" height="80" as="geometry"/>
                </mxCell>
                <mxCell id="ZQFW1FxyH6ks3i3n7b6g-91" value="" style="shape=cube;whiteSpace=wrap;html=1;boundedLbl=1;backgroundOutline=1;darkOpacity=0.05;darkOpacity2=0.1;" vertex="1" parent="ZQFW1FxyH6ks3i3n7b6g-80">
                    <mxGeometry x="240" y="120" width="80" height="80" as="geometry"/>
                </mxCell>
                <mxCell id="ZQFW1FxyH6ks3i3n7b6g-92" value="" style="shape=cube;whiteSpace=wrap;html=1;boundedLbl=1;backgroundOutline=1;darkOpacity=0.05;darkOpacity2=0.1;" vertex="1" parent="ZQFW1FxyH6ks3i3n7b6g-80">
                    <mxGeometry x="180" y="120" width="80" height="80" as="geometry"/>
                </mxCell>
                <mxCell id="ZQFW1FxyH6ks3i3n7b6g-93" value="" style="shape=cube;whiteSpace=wrap;html=1;boundedLbl=1;backgroundOutline=1;darkOpacity=0.05;darkOpacity2=0.1;" vertex="1" parent="ZQFW1FxyH6ks3i3n7b6g-80">
                    <mxGeometry x="120" y="120" width="80" height="80" as="geometry"/>
                </mxCell>
                <mxCell id="ZQFW1FxyH6ks3i3n7b6g-94" value="" style="shape=cube;whiteSpace=wrap;html=1;boundedLbl=1;backgroundOutline=1;darkOpacity=0.05;darkOpacity2=0.1;" vertex="1" parent="ZQFW1FxyH6ks3i3n7b6g-80">
                    <mxGeometry x="60" y="120" width="80" height="80" as="geometry"/>
                </mxCell>
                <mxCell id="ZQFW1FxyH6ks3i3n7b6g-95" value="" style="shape=cube;whiteSpace=wrap;html=1;boundedLbl=1;backgroundOutline=1;darkOpacity=0.05;darkOpacity2=0.1;fontStyle=1;" vertex="1" parent="ZQFW1FxyH6ks3i3n7b6g-80">
                    <mxGeometry y="120" width="80" height="80" as="geometry"/>
                </mxCell>
                <mxCell id="ZQFW1FxyH6ks3i3n7b6g-96" value="" style="shape=cube;whiteSpace=wrap;html=1;boundedLbl=1;backgroundOutline=1;darkOpacity=0.05;darkOpacity2=0.1;" vertex="1" parent="ZQFW1FxyH6ks3i3n7b6g-80">
                    <mxGeometry x="240" y="60" width="80" height="80" as="geometry"/>
                </mxCell>
                <mxCell id="ZQFW1FxyH6ks3i3n7b6g-97" value="" style="shape=cube;whiteSpace=wrap;html=1;boundedLbl=1;backgroundOutline=1;darkOpacity=0.05;darkOpacity2=0.1;" vertex="1" parent="ZQFW1FxyH6ks3i3n7b6g-80">
                    <mxGeometry x="180" y="60" width="80" height="80" as="geometry"/>
                </mxCell>
                <mxCell id="ZQFW1FxyH6ks3i3n7b6g-98" value="" style="shape=cube;whiteSpace=wrap;html=1;boundedLbl=1;backgroundOutline=1;darkOpacity=0.05;darkOpacity2=0.1;" vertex="1" parent="ZQFW1FxyH6ks3i3n7b6g-80">
                    <mxGeometry x="120" y="60" width="80" height="80" as="geometry"/>
                </mxCell>
                <mxCell id="ZQFW1FxyH6ks3i3n7b6g-99" value="" style="shape=cube;whiteSpace=wrap;html=1;boundedLbl=1;backgroundOutline=1;darkOpacity=0.05;darkOpacity2=0.1;" vertex="1" parent="ZQFW1FxyH6ks3i3n7b6g-80">
                    <mxGeometry x="60" y="60" width="80" height="80" as="geometry"/>
                </mxCell>
                <mxCell id="ZQFW1FxyH6ks3i3n7b6g-100" value="" style="shape=cube;whiteSpace=wrap;html=1;boundedLbl=1;backgroundOutline=1;darkOpacity=0.05;darkOpacity2=0.1;" vertex="1" parent="ZQFW1FxyH6ks3i3n7b6g-80">
                    <mxGeometry y="60" width="80" height="80" as="geometry"/>
                </mxCell>
                <mxCell id="ZQFW1FxyH6ks3i3n7b6g-101" value="" style="shape=cube;whiteSpace=wrap;html=1;boundedLbl=1;backgroundOutline=1;darkOpacity=0.05;darkOpacity2=0.1;" vertex="1" parent="ZQFW1FxyH6ks3i3n7b6g-80">
                    <mxGeometry x="240" width="80" height="80" as="geometry"/>
                </mxCell>
                <mxCell id="ZQFW1FxyH6ks3i3n7b6g-102" value="" style="shape=cube;whiteSpace=wrap;html=1;boundedLbl=1;backgroundOutline=1;darkOpacity=0.05;darkOpacity2=0.1;" vertex="1" parent="ZQFW1FxyH6ks3i3n7b6g-80">
                    <mxGeometry x="180" width="80" height="80" as="geometry"/>
                </mxCell>
                <mxCell id="ZQFW1FxyH6ks3i3n7b6g-103" value="" style="shape=cube;whiteSpace=wrap;html=1;boundedLbl=1;backgroundOutline=1;darkOpacity=0.05;darkOpacity2=0.1;" vertex="1" parent="ZQFW1FxyH6ks3i3n7b6g-80">
                    <mxGeometry x="120" width="80" height="80" as="geometry"/>
                </mxCell>
                <mxCell id="ZQFW1FxyH6ks3i3n7b6g-104" value="" style="shape=cube;whiteSpace=wrap;html=1;boundedLbl=1;backgroundOutline=1;darkOpacity=0.05;darkOpacity2=0.1;" vertex="1" parent="ZQFW1FxyH6ks3i3n7b6g-80">
                    <mxGeometry x="60" width="80" height="80" as="geometry"/>
                </mxCell>
                <mxCell id="ZQFW1FxyH6ks3i3n7b6g-105" value="" style="shape=cube;whiteSpace=wrap;html=1;boundedLbl=1;backgroundOutline=1;darkOpacity=0.05;darkOpacity2=0.1;" vertex="1" parent="ZQFW1FxyH6ks3i3n7b6g-80">
                    <mxGeometry width="80" height="80" as="geometry"/>
                </mxCell>
                <mxCell id="ZQFW1FxyH6ks3i3n7b6g-53" value="" style="group" vertex="1" connectable="0" parent="ZQFW1FxyH6ks3i3n7b6g-132">
                    <mxGeometry x="60" y="120" width="80" height="260" as="geometry"/>
                </mxCell>
                <mxCell id="ZQFW1FxyH6ks3i3n7b6g-50" value="" style="shape=cube;whiteSpace=wrap;html=1;boundedLbl=1;backgroundOutline=1;darkOpacity=0.05;darkOpacity2=0.1;fillColor=#dae8fc;gradientColor=#7ea6e0;strokeColor=#6c8ebf;" vertex="1" parent="ZQFW1FxyH6ks3i3n7b6g-53">
                    <mxGeometry y="180" width="80" height="80" as="geometry"/>
                </mxCell>
                <mxCell id="ZQFW1FxyH6ks3i3n7b6g-49" value="" style="shape=cube;whiteSpace=wrap;html=1;boundedLbl=1;backgroundOutline=1;darkOpacity=0.05;darkOpacity2=0.1;fillColor=#dae8fc;gradientColor=#7ea6e0;strokeColor=#6c8ebf;" vertex="1" parent="ZQFW1FxyH6ks3i3n7b6g-53">
                    <mxGeometry y="120" width="80" height="80" as="geometry"/>
                </mxCell>
                <mxCell id="ZQFW1FxyH6ks3i3n7b6g-48" value="" style="shape=cube;whiteSpace=wrap;html=1;boundedLbl=1;backgroundOutline=1;darkOpacity=0.05;darkOpacity2=0.1;fillColor=#dae8fc;gradientColor=#7ea6e0;strokeColor=#6c8ebf;" vertex="1" parent="ZQFW1FxyH6ks3i3n7b6g-53">
                    <mxGeometry y="60" width="80" height="80" as="geometry"/>
                </mxCell>
                <mxCell id="ZQFW1FxyH6ks3i3n7b6g-47" value="" style="shape=cube;whiteSpace=wrap;html=1;boundedLbl=1;backgroundOutline=1;darkOpacity=0.05;darkOpacity2=0.1;fillColor=#dae8fc;gradientColor=#7ea6e0;strokeColor=#6c8ebf;" vertex="1" parent="ZQFW1FxyH6ks3i3n7b6g-53">
                    <mxGeometry width="80" height="80" as="geometry"/>
                </mxCell>
                <mxCell id="ZQFW1FxyH6ks3i3n7b6g-42" value="" style="shape=cube;whiteSpace=wrap;html=1;boundedLbl=1;backgroundOutline=1;darkOpacity=0.05;darkOpacity2=0.1;fillColor=#dae8fc;gradientColor=#7ea6e0;strokeColor=#6c8ebf;" vertex="1" parent="ZQFW1FxyH6ks3i3n7b6g-132">
                    <mxGeometry x="300" y="60" width="80" height="80" as="geometry"/>
                </mxCell>
                <mxCell id="ZQFW1FxyH6ks3i3n7b6g-43" value="" style="shape=cube;whiteSpace=wrap;html=1;boundedLbl=1;backgroundOutline=1;darkOpacity=0.05;darkOpacity2=0.1;fillColor=#dae8fc;gradientColor=#7ea6e0;strokeColor=#6c8ebf;" vertex="1" parent="ZQFW1FxyH6ks3i3n7b6g-132">
                    <mxGeometry x="240" y="60" width="80" height="80" as="geometry"/>
                </mxCell>
                <mxCell id="ZQFW1FxyH6ks3i3n7b6g-44" value="" style="shape=cube;whiteSpace=wrap;html=1;boundedLbl=1;backgroundOutline=1;darkOpacity=0.05;darkOpacity2=0.1;fillColor=#dae8fc;gradientColor=#7ea6e0;strokeColor=#6c8ebf;" vertex="1" parent="ZQFW1FxyH6ks3i3n7b6g-132">
                    <mxGeometry x="180" y="60" width="80" height="80" as="geometry"/>
                </mxCell>
                <mxCell id="ZQFW1FxyH6ks3i3n7b6g-45" value="" style="shape=cube;whiteSpace=wrap;html=1;boundedLbl=1;backgroundOutline=1;darkOpacity=0.05;darkOpacity2=0.1;fillColor=#dae8fc;gradientColor=#7ea6e0;strokeColor=#6c8ebf;" vertex="1" parent="ZQFW1FxyH6ks3i3n7b6g-132">
                    <mxGeometry x="120" y="60" width="80" height="80" as="geometry"/>
                </mxCell>
                <mxCell id="ZQFW1FxyH6ks3i3n7b6g-46" value="" style="shape=cube;whiteSpace=wrap;html=1;boundedLbl=1;backgroundOutline=1;darkOpacity=0.05;darkOpacity2=0.1;fillColor=#dae8fc;gradientColor=#7ea6e0;strokeColor=#6c8ebf;" vertex="1" parent="ZQFW1FxyH6ks3i3n7b6g-132">
                    <mxGeometry x="60" y="60" width="80" height="80" as="geometry"/>
                </mxCell>
                <mxCell id="ZQFW1FxyH6ks3i3n7b6g-41" value="" style="shape=cube;whiteSpace=wrap;html=1;boundedLbl=1;backgroundOutline=1;darkOpacity=0.05;darkOpacity2=0.1;fillColor=#d5e8d4;gradientColor=#97d077;strokeColor=#82b366;" vertex="1" parent="ZQFW1FxyH6ks3i3n7b6g-132">
                    <mxGeometry x="90" y="330" width="80" height="80" as="geometry"/>
                </mxCell>
                <mxCell id="ZQFW1FxyH6ks3i3n7b6g-40" value="" style="shape=cube;whiteSpace=wrap;html=1;boundedLbl=1;backgroundOutline=1;darkOpacity=0.05;darkOpacity2=0.1;fillColor=#d5e8d4;gradientColor=#97d077;strokeColor=#82b366;" vertex="1" parent="ZQFW1FxyH6ks3i3n7b6g-132">
                    <mxGeometry x="90" y="270" width="80" height="80" as="geometry"/>
                </mxCell>
                <mxCell id="ZQFW1FxyH6ks3i3n7b6g-39" value="" style="shape=cube;whiteSpace=wrap;html=1;boundedLbl=1;backgroundOutline=1;darkOpacity=0.05;darkOpacity2=0.1;fillColor=#d5e8d4;gradientColor=#97d077;strokeColor=#82b366;" vertex="1" parent="ZQFW1FxyH6ks3i3n7b6g-132">
                    <mxGeometry x="90" y="210" width="80" height="80" as="geometry"/>
                </mxCell>
                <mxCell id="ZQFW1FxyH6ks3i3n7b6g-38" value="" style="shape=cube;whiteSpace=wrap;html=1;boundedLbl=1;backgroundOutline=1;darkOpacity=0.05;darkOpacity2=0.1;fillColor=#d5e8d4;gradientColor=#97d077;strokeColor=#82b366;" vertex="1" parent="ZQFW1FxyH6ks3i3n7b6g-132">
                    <mxGeometry x="90" y="150" width="80" height="80" as="geometry"/>
                </mxCell>
                <mxCell id="ZQFW1FxyH6ks3i3n7b6g-33" value="" style="shape=cube;whiteSpace=wrap;html=1;boundedLbl=1;backgroundOutline=1;darkOpacity=0.05;darkOpacity2=0.1;fillColor=#d5e8d4;gradientColor=#97d077;strokeColor=#82b366;" vertex="1" parent="ZQFW1FxyH6ks3i3n7b6g-132">
                    <mxGeometry x="330" y="90" width="80" height="80" as="geometry"/>
                </mxCell>
                <mxCell id="ZQFW1FxyH6ks3i3n7b6g-34" value="" style="shape=cube;whiteSpace=wrap;html=1;boundedLbl=1;backgroundOutline=1;darkOpacity=0.05;darkOpacity2=0.1;fillColor=#d5e8d4;gradientColor=#97d077;strokeColor=#82b366;" vertex="1" parent="ZQFW1FxyH6ks3i3n7b6g-132">
                    <mxGeometry x="270" y="90" width="80" height="80" as="geometry"/>
                </mxCell>
                <mxCell id="ZQFW1FxyH6ks3i3n7b6g-35" value="" style="shape=cube;whiteSpace=wrap;html=1;boundedLbl=1;backgroundOutline=1;darkOpacity=0.05;darkOpacity2=0.1;fillColor=#d5e8d4;gradientColor=#97d077;strokeColor=#82b366;" vertex="1" parent="ZQFW1FxyH6ks3i3n7b6g-132">
                    <mxGeometry x="210" y="90" width="80" height="80" as="geometry"/>
                </mxCell>
                <mxCell id="ZQFW1FxyH6ks3i3n7b6g-36" value="" style="shape=cube;whiteSpace=wrap;html=1;boundedLbl=1;backgroundOutline=1;darkOpacity=0.05;darkOpacity2=0.1;fillColor=#d5e8d4;gradientColor=#97d077;strokeColor=#82b366;" vertex="1" parent="ZQFW1FxyH6ks3i3n7b6g-132">
                    <mxGeometry x="150" y="90" width="80" height="80" as="geometry"/>
                </mxCell>
                <mxCell id="ZQFW1FxyH6ks3i3n7b6g-37" value="" style="shape=cube;whiteSpace=wrap;html=1;boundedLbl=1;backgroundOutline=1;darkOpacity=0.05;darkOpacity2=0.1;fillColor=#d5e8d4;gradientColor=#97d077;strokeColor=#82b366;" vertex="1" parent="ZQFW1FxyH6ks3i3n7b6g-132">
                    <mxGeometry x="90" y="90" width="80" height="80" as="geometry"/>
                </mxCell>
                <mxCell id="ZQFW1FxyH6ks3i3n7b6g-79" value="" style="group" vertex="1" connectable="0" parent="ZQFW1FxyH6ks3i3n7b6g-132">
                    <mxGeometry x="120" y="120" width="320" height="320" as="geometry"/>
                </mxCell>
                <mxCell id="ZQFW1FxyH6ks3i3n7b6g-28" value="" style="shape=cube;whiteSpace=wrap;html=1;boundedLbl=1;backgroundOutline=1;darkOpacity=0.05;darkOpacity2=0.1;fillColor=#e51400;fontColor=#ffffff;strokeColor=#B20000;" vertex="1" parent="ZQFW1FxyH6ks3i3n7b6g-79">
                    <mxGeometry x="240" y="240" width="80" height="80" as="geometry"/>
                </mxCell>
                <mxCell id="ZQFW1FxyH6ks3i3n7b6g-29" value="" style="shape=cube;whiteSpace=wrap;html=1;boundedLbl=1;backgroundOutline=1;darkOpacity=0.05;darkOpacity2=0.1;fillColor=#e51400;fontColor=#ffffff;strokeColor=#B20000;" vertex="1" parent="ZQFW1FxyH6ks3i3n7b6g-79">
                    <mxGeometry x="180" y="240" width="80" height="80" as="geometry"/>
                </mxCell>
                <mxCell id="ZQFW1FxyH6ks3i3n7b6g-30" value="" style="shape=cube;whiteSpace=wrap;html=1;boundedLbl=1;backgroundOutline=1;darkOpacity=0.05;darkOpacity2=0.1;fillColor=#e51400;fontColor=#ffffff;strokeColor=#B20000;" vertex="1" parent="ZQFW1FxyH6ks3i3n7b6g-79">
                    <mxGeometry x="120" y="240" width="80" height="80" as="geometry"/>
                </mxCell>
                <mxCell id="ZQFW1FxyH6ks3i3n7b6g-31" value="" style="shape=cube;whiteSpace=wrap;html=1;boundedLbl=1;backgroundOutline=1;darkOpacity=0.05;darkOpacity2=0.1;fillColor=#e51400;fontColor=#ffffff;strokeColor=#B20000;" vertex="1" parent="ZQFW1FxyH6ks3i3n7b6g-79">
                    <mxGeometry x="60" y="240" width="80" height="80" as="geometry"/>
                </mxCell>
                <mxCell id="ZQFW1FxyH6ks3i3n7b6g-32" value="" style="shape=cube;whiteSpace=wrap;html=1;boundedLbl=1;backgroundOutline=1;darkOpacity=0.05;darkOpacity2=0.1;fillColor=#e51400;fontColor=#ffffff;strokeColor=#B20000;" vertex="1" parent="ZQFW1FxyH6ks3i3n7b6g-79">
                    <mxGeometry y="240" width="80" height="80" as="geometry"/>
                </mxCell>
                <mxCell id="ZQFW1FxyH6ks3i3n7b6g-8" value="" style="shape=cube;whiteSpace=wrap;html=1;boundedLbl=1;backgroundOutline=1;darkOpacity=0.05;darkOpacity2=0.1;fillColor=#e51400;fontColor=#ffffff;strokeColor=#B20000;" vertex="1" parent="ZQFW1FxyH6ks3i3n7b6g-79">
                    <mxGeometry x="240" y="180" width="80" height="80" as="geometry"/>
                </mxCell>
                <mxCell id="ZQFW1FxyH6ks3i3n7b6g-9" value="" style="shape=cube;whiteSpace=wrap;html=1;boundedLbl=1;backgroundOutline=1;darkOpacity=0.05;darkOpacity2=0.1;fillColor=#e51400;fontColor=#ffffff;strokeColor=#B20000;" vertex="1" parent="ZQFW1FxyH6ks3i3n7b6g-79">
                    <mxGeometry x="180" y="180" width="80" height="80" as="geometry"/>
                </mxCell>
                <mxCell id="ZQFW1FxyH6ks3i3n7b6g-10" value="" style="shape=cube;whiteSpace=wrap;html=1;boundedLbl=1;backgroundOutline=1;darkOpacity=0.05;darkOpacity2=0.1;fillColor=#e51400;fontColor=#ffffff;strokeColor=#B20000;" vertex="1" parent="ZQFW1FxyH6ks3i3n7b6g-79">
                    <mxGeometry x="120" y="180" width="80" height="80" as="geometry"/>
                </mxCell>
                <mxCell id="ZQFW1FxyH6ks3i3n7b6g-11" value="" style="shape=cube;whiteSpace=wrap;html=1;boundedLbl=1;backgroundOutline=1;darkOpacity=0.05;darkOpacity2=0.1;fillColor=#e51400;fontColor=#ffffff;strokeColor=#B20000;" vertex="1" parent="ZQFW1FxyH6ks3i3n7b6g-79">
                    <mxGeometry x="60" y="180" width="80" height="80" as="geometry"/>
                </mxCell>
                <mxCell id="ZQFW1FxyH6ks3i3n7b6g-12" value="" style="shape=cube;whiteSpace=wrap;html=1;boundedLbl=1;backgroundOutline=1;darkOpacity=0.05;darkOpacity2=0.1;fillColor=#e51400;fontColor=#ffffff;strokeColor=#B20000;" vertex="1" parent="ZQFW1FxyH6ks3i3n7b6g-79">
                    <mxGeometry y="180" width="80" height="80" as="geometry"/>
                </mxCell>
                <mxCell id="ZQFW1FxyH6ks3i3n7b6g-13" value="" style="shape=cube;whiteSpace=wrap;html=1;boundedLbl=1;backgroundOutline=1;darkOpacity=0.05;darkOpacity2=0.1;fillColor=#e51400;fontColor=#ffffff;strokeColor=#B20000;" vertex="1" parent="ZQFW1FxyH6ks3i3n7b6g-79">
                    <mxGeometry x="240" y="120" width="80" height="80" as="geometry"/>
                </mxCell>
                <mxCell id="ZQFW1FxyH6ks3i3n7b6g-14" value="" style="shape=cube;whiteSpace=wrap;html=1;boundedLbl=1;backgroundOutline=1;darkOpacity=0.05;darkOpacity2=0.1;fillColor=#e51400;fontColor=#ffffff;strokeColor=#B20000;" vertex="1" parent="ZQFW1FxyH6ks3i3n7b6g-79">
                    <mxGeometry x="180" y="120" width="80" height="80" as="geometry"/>
                </mxCell>
                <mxCell id="ZQFW1FxyH6ks3i3n7b6g-15" value="" style="shape=cube;whiteSpace=wrap;html=1;boundedLbl=1;backgroundOutline=1;darkOpacity=0.05;darkOpacity2=0.1;fillColor=#e51400;fontColor=#ffffff;strokeColor=#B20000;" vertex="1" parent="ZQFW1FxyH6ks3i3n7b6g-79">
                    <mxGeometry x="120" y="120" width="80" height="80" as="geometry"/>
                </mxCell>
                <mxCell id="ZQFW1FxyH6ks3i3n7b6g-16" value="" style="shape=cube;whiteSpace=wrap;html=1;boundedLbl=1;backgroundOutline=1;darkOpacity=0.05;darkOpacity2=0.1;fillColor=#e51400;fontColor=#ffffff;strokeColor=#B20000;" vertex="1" parent="ZQFW1FxyH6ks3i3n7b6g-79">
                    <mxGeometry x="60" y="120" width="80" height="80" as="geometry"/>
                </mxCell>
                <mxCell id="ZQFW1FxyH6ks3i3n7b6g-17" value="" style="shape=cube;whiteSpace=wrap;html=1;boundedLbl=1;backgroundOutline=1;darkOpacity=0.05;darkOpacity2=0.1;fontStyle=1;fillColor=#e51400;fontColor=#ffffff;strokeColor=#B20000;" vertex="1" parent="ZQFW1FxyH6ks3i3n7b6g-79">
                    <mxGeometry y="120" width="80" height="80" as="geometry"/>
                </mxCell>
                <mxCell id="ZQFW1FxyH6ks3i3n7b6g-18" value="" style="shape=cube;whiteSpace=wrap;html=1;boundedLbl=1;backgroundOutline=1;darkOpacity=0.05;darkOpacity2=0.1;fillColor=#e51400;fontColor=#ffffff;strokeColor=#B20000;" vertex="1" parent="ZQFW1FxyH6ks3i3n7b6g-79">
                    <mxGeometry x="240" y="60" width="80" height="80" as="geometry"/>
                </mxCell>
                <mxCell id="ZQFW1FxyH6ks3i3n7b6g-19" value="" style="shape=cube;whiteSpace=wrap;html=1;boundedLbl=1;backgroundOutline=1;darkOpacity=0.05;darkOpacity2=0.1;fillColor=#e51400;fontColor=#ffffff;strokeColor=#B20000;" vertex="1" parent="ZQFW1FxyH6ks3i3n7b6g-79">
                    <mxGeometry x="180" y="60" width="80" height="80" as="geometry"/>
                </mxCell>
                <mxCell id="ZQFW1FxyH6ks3i3n7b6g-20" value="" style="shape=cube;whiteSpace=wrap;html=1;boundedLbl=1;backgroundOutline=1;darkOpacity=0.05;darkOpacity2=0.1;fillColor=#e51400;fontColor=#ffffff;strokeColor=#B20000;" vertex="1" parent="ZQFW1FxyH6ks3i3n7b6g-79">
                    <mxGeometry x="120" y="60" width="80" height="80" as="geometry"/>
                </mxCell>
                <mxCell id="ZQFW1FxyH6ks3i3n7b6g-21" value="" style="shape=cube;whiteSpace=wrap;html=1;boundedLbl=1;backgroundOutline=1;darkOpacity=0.05;darkOpacity2=0.1;fillColor=#e51400;fontColor=#ffffff;strokeColor=#B20000;" vertex="1" parent="ZQFW1FxyH6ks3i3n7b6g-79">
                    <mxGeometry x="60" y="60" width="80" height="80" as="geometry"/>
                </mxCell>
                <mxCell id="ZQFW1FxyH6ks3i3n7b6g-22" value="" style="shape=cube;whiteSpace=wrap;html=1;boundedLbl=1;backgroundOutline=1;darkOpacity=0.05;darkOpacity2=0.1;fillColor=#e51400;fontColor=#ffffff;strokeColor=#B20000;" vertex="1" parent="ZQFW1FxyH6ks3i3n7b6g-79">
                    <mxGeometry y="60" width="80" height="80" as="geometry"/>
                </mxCell>
                <mxCell id="ZQFW1FxyH6ks3i3n7b6g-24" value="" style="shape=cube;whiteSpace=wrap;html=1;boundedLbl=1;backgroundOutline=1;darkOpacity=0.05;darkOpacity2=0.1;fillColor=#e51400;fontColor=#ffffff;strokeColor=#B20000;" vertex="1" parent="ZQFW1FxyH6ks3i3n7b6g-79">
                    <mxGeometry x="240" width="80" height="80" as="geometry"/>
                </mxCell>
                <mxCell id="ZQFW1FxyH6ks3i3n7b6g-25" value="" style="shape=cube;whiteSpace=wrap;html=1;boundedLbl=1;backgroundOutline=1;darkOpacity=0.05;darkOpacity2=0.1;fillColor=#e51400;fontColor=#ffffff;strokeColor=#B20000;" vertex="1" parent="ZQFW1FxyH6ks3i3n7b6g-79">
                    <mxGeometry x="180" width="80" height="80" as="geometry"/>
                </mxCell>
                <mxCell id="ZQFW1FxyH6ks3i3n7b6g-26" value="" style="shape=cube;whiteSpace=wrap;html=1;boundedLbl=1;backgroundOutline=1;darkOpacity=0.05;darkOpacity2=0.1;fillColor=#e51400;fontColor=#ffffff;strokeColor=#B20000;" vertex="1" parent="ZQFW1FxyH6ks3i3n7b6g-79">
                    <mxGeometry x="120" width="80" height="80" as="geometry"/>
                </mxCell>
                <mxCell id="ZQFW1FxyH6ks3i3n7b6g-27" value="" style="shape=cube;whiteSpace=wrap;html=1;boundedLbl=1;backgroundOutline=1;darkOpacity=0.05;darkOpacity2=0.1;fillColor=#e51400;fontColor=#ffffff;strokeColor=#B20000;" vertex="1" parent="ZQFW1FxyH6ks3i3n7b6g-79">
                    <mxGeometry x="60" width="80" height="80" as="geometry"/>
                </mxCell>
                <mxCell id="ZQFW1FxyH6ks3i3n7b6g-23" value="" style="shape=cube;whiteSpace=wrap;html=1;boundedLbl=1;backgroundOutline=1;darkOpacity=0.05;darkOpacity2=0.1;fillColor=#e51400;fontColor=#ffffff;strokeColor=#B20000;" vertex="1" parent="ZQFW1FxyH6ks3i3n7b6g-79">
                    <mxGeometry width="80" height="80" as="geometry"/>
                </mxCell>
                <mxCell id="ZQFW1FxyH6ks3i3n7b6g-133" value="" style="group" vertex="1" connectable="0" parent="1">
                    <mxGeometry x="500" y="220" width="440" height="440" as="geometry"/>
                </mxCell>
                <mxCell id="ZQFW1FxyH6ks3i3n7b6g-134" value="" style="group" vertex="1" connectable="0" parent="ZQFW1FxyH6ks3i3n7b6g-133">
                    <mxGeometry width="320" height="320" as="geometry"/>
                </mxCell>
                <mxCell id="ZQFW1FxyH6ks3i3n7b6g-135" value="" style="shape=cube;whiteSpace=wrap;html=1;boundedLbl=1;backgroundOutline=1;darkOpacity=0.05;darkOpacity2=0.1;" vertex="1" parent="ZQFW1FxyH6ks3i3n7b6g-134">
                    <mxGeometry x="240" y="240" width="80" height="80" as="geometry"/>
                </mxCell>
                <mxCell id="ZQFW1FxyH6ks3i3n7b6g-136" value="" style="shape=cube;whiteSpace=wrap;html=1;boundedLbl=1;backgroundOutline=1;darkOpacity=0.05;darkOpacity2=0.1;" vertex="1" parent="ZQFW1FxyH6ks3i3n7b6g-134">
                    <mxGeometry x="180" y="240" width="80" height="80" as="geometry"/>
                </mxCell>
                <mxCell id="ZQFW1FxyH6ks3i3n7b6g-137" value="" style="shape=cube;whiteSpace=wrap;html=1;boundedLbl=1;backgroundOutline=1;darkOpacity=0.05;darkOpacity2=0.1;" vertex="1" parent="ZQFW1FxyH6ks3i3n7b6g-134">
                    <mxGeometry x="120" y="240" width="80" height="80" as="geometry"/>
                </mxCell>
                <mxCell id="ZQFW1FxyH6ks3i3n7b6g-138" value="" style="shape=cube;whiteSpace=wrap;html=1;boundedLbl=1;backgroundOutline=1;darkOpacity=0.05;darkOpacity2=0.1;" vertex="1" parent="ZQFW1FxyH6ks3i3n7b6g-134">
                    <mxGeometry x="60" y="240" width="80" height="80" as="geometry"/>
                </mxCell>
                <mxCell id="ZQFW1FxyH6ks3i3n7b6g-139" value="" style="shape=cube;whiteSpace=wrap;html=1;boundedLbl=1;backgroundOutline=1;darkOpacity=0.05;darkOpacity2=0.1;fillColor=#ffcd28;gradientColor=#ffa500;strokeColor=#d79b00;" vertex="1" parent="ZQFW1FxyH6ks3i3n7b6g-134">
                    <mxGeometry y="240" width="80" height="80" as="geometry"/>
                </mxCell>
                <mxCell id="ZQFW1FxyH6ks3i3n7b6g-140" value="" style="shape=cube;whiteSpace=wrap;html=1;boundedLbl=1;backgroundOutline=1;darkOpacity=0.05;darkOpacity2=0.1;" vertex="1" parent="ZQFW1FxyH6ks3i3n7b6g-134">
                    <mxGeometry x="240" y="180" width="80" height="80" as="geometry"/>
                </mxCell>
                <mxCell id="ZQFW1FxyH6ks3i3n7b6g-141" value="" style="shape=cube;whiteSpace=wrap;html=1;boundedLbl=1;backgroundOutline=1;darkOpacity=0.05;darkOpacity2=0.1;" vertex="1" parent="ZQFW1FxyH6ks3i3n7b6g-134">
                    <mxGeometry x="180" y="180" width="80" height="80" as="geometry"/>
                </mxCell>
                <mxCell id="ZQFW1FxyH6ks3i3n7b6g-142" value="" style="shape=cube;whiteSpace=wrap;html=1;boundedLbl=1;backgroundOutline=1;darkOpacity=0.05;darkOpacity2=0.1;" vertex="1" parent="ZQFW1FxyH6ks3i3n7b6g-134">
                    <mxGeometry x="120" y="180" width="80" height="80" as="geometry"/>
                </mxCell>
                <mxCell id="ZQFW1FxyH6ks3i3n7b6g-143" value="" style="shape=cube;whiteSpace=wrap;html=1;boundedLbl=1;backgroundOutline=1;darkOpacity=0.05;darkOpacity2=0.1;" vertex="1" parent="ZQFW1FxyH6ks3i3n7b6g-134">
                    <mxGeometry x="60" y="180" width="80" height="80" as="geometry"/>
                </mxCell>
                <mxCell id="ZQFW1FxyH6ks3i3n7b6g-144" value="" style="shape=cube;whiteSpace=wrap;html=1;boundedLbl=1;backgroundOutline=1;darkOpacity=0.05;darkOpacity2=0.1;fillColor=#ffcd28;gradientColor=#ffa500;strokeColor=#d79b00;" vertex="1" parent="ZQFW1FxyH6ks3i3n7b6g-134">
                    <mxGeometry y="180" width="80" height="80" as="geometry"/>
                </mxCell>
                <mxCell id="ZQFW1FxyH6ks3i3n7b6g-145" value="" style="shape=cube;whiteSpace=wrap;html=1;boundedLbl=1;backgroundOutline=1;darkOpacity=0.05;darkOpacity2=0.1;" vertex="1" parent="ZQFW1FxyH6ks3i3n7b6g-134">
                    <mxGeometry x="240" y="120" width="80" height="80" as="geometry"/>
                </mxCell>
                <mxCell id="ZQFW1FxyH6ks3i3n7b6g-146" value="" style="shape=cube;whiteSpace=wrap;html=1;boundedLbl=1;backgroundOutline=1;darkOpacity=0.05;darkOpacity2=0.1;" vertex="1" parent="ZQFW1FxyH6ks3i3n7b6g-134">
                    <mxGeometry x="180" y="120" width="80" height="80" as="geometry"/>
                </mxCell>
                <mxCell id="ZQFW1FxyH6ks3i3n7b6g-147" value="" style="shape=cube;whiteSpace=wrap;html=1;boundedLbl=1;backgroundOutline=1;darkOpacity=0.05;darkOpacity2=0.1;" vertex="1" parent="ZQFW1FxyH6ks3i3n7b6g-134">
                    <mxGeometry x="120" y="120" width="80" height="80" as="geometry"/>
                </mxCell>
                <mxCell id="ZQFW1FxyH6ks3i3n7b6g-148" value="" style="shape=cube;whiteSpace=wrap;html=1;boundedLbl=1;backgroundOutline=1;darkOpacity=0.05;darkOpacity2=0.1;" vertex="1" parent="ZQFW1FxyH6ks3i3n7b6g-134">
                    <mxGeometry x="60" y="120" width="80" height="80" as="geometry"/>
                </mxCell>
                <mxCell id="ZQFW1FxyH6ks3i3n7b6g-149" value="" style="shape=cube;whiteSpace=wrap;html=1;boundedLbl=1;backgroundOutline=1;darkOpacity=0.05;darkOpacity2=0.1;fontStyle=1;fillColor=#f5f5f5;gradientColor=#b3b3b3;strokeColor=#666666;" vertex="1" parent="ZQFW1FxyH6ks3i3n7b6g-134">
                    <mxGeometry y="120" width="80" height="80" as="geometry"/>
                </mxCell>
                <mxCell id="ZQFW1FxyH6ks3i3n7b6g-150" value="" style="shape=cube;whiteSpace=wrap;html=1;boundedLbl=1;backgroundOutline=1;darkOpacity=0.05;darkOpacity2=0.1;" vertex="1" parent="ZQFW1FxyH6ks3i3n7b6g-134">
                    <mxGeometry x="240" y="60" width="80" height="80" as="geometry"/>
                </mxCell>
                <mxCell id="ZQFW1FxyH6ks3i3n7b6g-151" value="" style="shape=cube;whiteSpace=wrap;html=1;boundedLbl=1;backgroundOutline=1;darkOpacity=0.05;darkOpacity2=0.1;" vertex="1" parent="ZQFW1FxyH6ks3i3n7b6g-134">
                    <mxGeometry x="180" y="60" width="80" height="80" as="geometry"/>
                </mxCell>
                <mxCell id="ZQFW1FxyH6ks3i3n7b6g-152" value="" style="shape=cube;whiteSpace=wrap;html=1;boundedLbl=1;backgroundOutline=1;darkOpacity=0.05;darkOpacity2=0.1;" vertex="1" parent="ZQFW1FxyH6ks3i3n7b6g-134">
                    <mxGeometry x="120" y="60" width="80" height="80" as="geometry"/>
                </mxCell>
                <mxCell id="ZQFW1FxyH6ks3i3n7b6g-153" value="" style="shape=cube;whiteSpace=wrap;html=1;boundedLbl=1;backgroundOutline=1;darkOpacity=0.05;darkOpacity2=0.1;" vertex="1" parent="ZQFW1FxyH6ks3i3n7b6g-134">
                    <mxGeometry x="60" y="60" width="80" height="80" as="geometry"/>
                </mxCell>
                <mxCell id="ZQFW1FxyH6ks3i3n7b6g-154" value="" style="shape=cube;whiteSpace=wrap;html=1;boundedLbl=1;backgroundOutline=1;darkOpacity=0.05;darkOpacity2=0.1;fillColor=#ffcd28;gradientColor=#ffa500;strokeColor=#d79b00;" vertex="1" parent="ZQFW1FxyH6ks3i3n7b6g-134">
                    <mxGeometry y="60" width="80" height="80" as="geometry"/>
                </mxCell>
                <mxCell id="ZQFW1FxyH6ks3i3n7b6g-155" value="" style="shape=cube;whiteSpace=wrap;html=1;boundedLbl=1;backgroundOutline=1;darkOpacity=0.05;darkOpacity2=0.1;fillColor=#ffcd28;gradientColor=#ffa500;strokeColor=#d79b00;" vertex="1" parent="ZQFW1FxyH6ks3i3n7b6g-134">
                    <mxGeometry x="240" width="80" height="80" as="geometry"/>
                </mxCell>
                <mxCell id="ZQFW1FxyH6ks3i3n7b6g-156" value="" style="shape=cube;whiteSpace=wrap;html=1;boundedLbl=1;backgroundOutline=1;darkOpacity=0.05;darkOpacity2=0.1;fillColor=#f5f5f5;gradientColor=#b3b3b3;strokeColor=#666666;" vertex="1" parent="ZQFW1FxyH6ks3i3n7b6g-134">
                    <mxGeometry x="180" width="80" height="80" as="geometry"/>
                </mxCell>
                <mxCell id="ZQFW1FxyH6ks3i3n7b6g-157" value="" style="shape=cube;whiteSpace=wrap;html=1;boundedLbl=1;backgroundOutline=1;darkOpacity=0.05;darkOpacity2=0.1;fillColor=#ffcd28;gradientColor=#ffa500;strokeColor=#d79b00;" vertex="1" parent="ZQFW1FxyH6ks3i3n7b6g-134">
                    <mxGeometry x="120" width="80" height="80" as="geometry"/>
                </mxCell>
                <mxCell id="ZQFW1FxyH6ks3i3n7b6g-158" value="" style="shape=cube;whiteSpace=wrap;html=1;boundedLbl=1;backgroundOutline=1;darkOpacity=0.05;darkOpacity2=0.1;fillColor=#ffcd28;gradientColor=#ffa500;strokeColor=#d79b00;" vertex="1" parent="ZQFW1FxyH6ks3i3n7b6g-134">
                    <mxGeometry x="60" width="80" height="80" as="geometry"/>
                </mxCell>
                <mxCell id="ZQFW1FxyH6ks3i3n7b6g-159" value="" style="shape=cube;whiteSpace=wrap;html=1;boundedLbl=1;backgroundOutline=1;darkOpacity=0.05;darkOpacity2=0.1;fillColor=#f5f5f5;gradientColor=#b3b3b3;strokeColor=#666666;" vertex="1" parent="ZQFW1FxyH6ks3i3n7b6g-134">
                    <mxGeometry width="80" height="80" as="geometry"/>
                </mxCell>
                <mxCell id="ZQFW1FxyH6ks3i3n7b6g-160" value="" style="group" vertex="1" connectable="0" parent="ZQFW1FxyH6ks3i3n7b6g-133">
                    <mxGeometry x="30" y="30" width="320" height="320" as="geometry"/>
                </mxCell>
                <mxCell id="ZQFW1FxyH6ks3i3n7b6g-161" value="" style="shape=cube;whiteSpace=wrap;html=1;boundedLbl=1;backgroundOutline=1;darkOpacity=0.05;darkOpacity2=0.1;" vertex="1" parent="ZQFW1FxyH6ks3i3n7b6g-160">
                    <mxGeometry x="240" y="240" width="80" height="80" as="geometry"/>
                </mxCell>
                <mxCell id="ZQFW1FxyH6ks3i3n7b6g-162" value="" style="shape=cube;whiteSpace=wrap;html=1;boundedLbl=1;backgroundOutline=1;darkOpacity=0.05;darkOpacity2=0.1;" vertex="1" parent="ZQFW1FxyH6ks3i3n7b6g-160">
                    <mxGeometry x="180" y="240" width="80" height="80" as="geometry"/>
                </mxCell>
                <mxCell id="ZQFW1FxyH6ks3i3n7b6g-163" value="" style="shape=cube;whiteSpace=wrap;html=1;boundedLbl=1;backgroundOutline=1;darkOpacity=0.05;darkOpacity2=0.1;" vertex="1" parent="ZQFW1FxyH6ks3i3n7b6g-160">
                    <mxGeometry x="120" y="240" width="80" height="80" as="geometry"/>
                </mxCell>
                <mxCell id="ZQFW1FxyH6ks3i3n7b6g-164" value="" style="shape=cube;whiteSpace=wrap;html=1;boundedLbl=1;backgroundOutline=1;darkOpacity=0.05;darkOpacity2=0.1;" vertex="1" parent="ZQFW1FxyH6ks3i3n7b6g-160">
                    <mxGeometry x="60" y="240" width="80" height="80" as="geometry"/>
                </mxCell>
                <mxCell id="ZQFW1FxyH6ks3i3n7b6g-165" value="" style="shape=cube;whiteSpace=wrap;html=1;boundedLbl=1;backgroundOutline=1;darkOpacity=0.05;darkOpacity2=0.1;" vertex="1" parent="ZQFW1FxyH6ks3i3n7b6g-160">
                    <mxGeometry y="240" width="80" height="80" as="geometry"/>
                </mxCell>
                <mxCell id="ZQFW1FxyH6ks3i3n7b6g-166" value="" style="shape=cube;whiteSpace=wrap;html=1;boundedLbl=1;backgroundOutline=1;darkOpacity=0.05;darkOpacity2=0.1;" vertex="1" parent="ZQFW1FxyH6ks3i3n7b6g-160">
                    <mxGeometry x="240" y="180" width="80" height="80" as="geometry"/>
                </mxCell>
                <mxCell id="ZQFW1FxyH6ks3i3n7b6g-167" value="" style="shape=cube;whiteSpace=wrap;html=1;boundedLbl=1;backgroundOutline=1;darkOpacity=0.05;darkOpacity2=0.1;" vertex="1" parent="ZQFW1FxyH6ks3i3n7b6g-160">
                    <mxGeometry x="180" y="180" width="80" height="80" as="geometry"/>
                </mxCell>
                <mxCell id="ZQFW1FxyH6ks3i3n7b6g-168" value="" style="shape=cube;whiteSpace=wrap;html=1;boundedLbl=1;backgroundOutline=1;darkOpacity=0.05;darkOpacity2=0.1;" vertex="1" parent="ZQFW1FxyH6ks3i3n7b6g-160">
                    <mxGeometry x="120" y="180" width="80" height="80" as="geometry"/>
                </mxCell>
                <mxCell id="ZQFW1FxyH6ks3i3n7b6g-169" value="" style="shape=cube;whiteSpace=wrap;html=1;boundedLbl=1;backgroundOutline=1;darkOpacity=0.05;darkOpacity2=0.1;" vertex="1" parent="ZQFW1FxyH6ks3i3n7b6g-160">
                    <mxGeometry x="60" y="180" width="80" height="80" as="geometry"/>
                </mxCell>
                <mxCell id="ZQFW1FxyH6ks3i3n7b6g-170" value="" style="shape=cube;whiteSpace=wrap;html=1;boundedLbl=1;backgroundOutline=1;darkOpacity=0.05;darkOpacity2=0.1;fillColor=#f5f5f5;gradientColor=#b3b3b3;strokeColor=#666666;" vertex="1" parent="ZQFW1FxyH6ks3i3n7b6g-160">
                    <mxGeometry y="180" width="80" height="80" as="geometry"/>
                </mxCell>
                <mxCell id="ZQFW1FxyH6ks3i3n7b6g-171" value="" style="shape=cube;whiteSpace=wrap;html=1;boundedLbl=1;backgroundOutline=1;darkOpacity=0.05;darkOpacity2=0.1;" vertex="1" parent="ZQFW1FxyH6ks3i3n7b6g-160">
                    <mxGeometry x="240" y="120" width="80" height="80" as="geometry"/>
                </mxCell>
                <mxCell id="ZQFW1FxyH6ks3i3n7b6g-172" value="" style="shape=cube;whiteSpace=wrap;html=1;boundedLbl=1;backgroundOutline=1;darkOpacity=0.05;darkOpacity2=0.1;" vertex="1" parent="ZQFW1FxyH6ks3i3n7b6g-160">
                    <mxGeometry x="180" y="120" width="80" height="80" as="geometry"/>
                </mxCell>
                <mxCell id="ZQFW1FxyH6ks3i3n7b6g-173" value="" style="shape=cube;whiteSpace=wrap;html=1;boundedLbl=1;backgroundOutline=1;darkOpacity=0.05;darkOpacity2=0.1;" vertex="1" parent="ZQFW1FxyH6ks3i3n7b6g-160">
                    <mxGeometry x="120" y="120" width="80" height="80" as="geometry"/>
                </mxCell>
                <mxCell id="ZQFW1FxyH6ks3i3n7b6g-174" value="" style="shape=cube;whiteSpace=wrap;html=1;boundedLbl=1;backgroundOutline=1;darkOpacity=0.05;darkOpacity2=0.1;" vertex="1" parent="ZQFW1FxyH6ks3i3n7b6g-160">
                    <mxGeometry x="60" y="120" width="80" height="80" as="geometry"/>
                </mxCell>
                <mxCell id="ZQFW1FxyH6ks3i3n7b6g-175" value="" style="shape=cube;whiteSpace=wrap;html=1;boundedLbl=1;backgroundOutline=1;darkOpacity=0.05;darkOpacity2=0.1;fontStyle=1;" vertex="1" parent="ZQFW1FxyH6ks3i3n7b6g-160">
                    <mxGeometry y="120" width="80" height="80" as="geometry"/>
                </mxCell>
                <mxCell id="ZQFW1FxyH6ks3i3n7b6g-176" value="" style="shape=cube;whiteSpace=wrap;html=1;boundedLbl=1;backgroundOutline=1;darkOpacity=0.05;darkOpacity2=0.1;" vertex="1" parent="ZQFW1FxyH6ks3i3n7b6g-160">
                    <mxGeometry x="240" y="60" width="80" height="80" as="geometry"/>
                </mxCell>
                <mxCell id="ZQFW1FxyH6ks3i3n7b6g-177" value="" style="shape=cube;whiteSpace=wrap;html=1;boundedLbl=1;backgroundOutline=1;darkOpacity=0.05;darkOpacity2=0.1;" vertex="1" parent="ZQFW1FxyH6ks3i3n7b6g-160">
                    <mxGeometry x="180" y="60" width="80" height="80" as="geometry"/>
                </mxCell>
                <mxCell id="ZQFW1FxyH6ks3i3n7b6g-178" value="" style="shape=cube;whiteSpace=wrap;html=1;boundedLbl=1;backgroundOutline=1;darkOpacity=0.05;darkOpacity2=0.1;" vertex="1" parent="ZQFW1FxyH6ks3i3n7b6g-160">
                    <mxGeometry x="120" y="60" width="80" height="80" as="geometry"/>
                </mxCell>
                <mxCell id="ZQFW1FxyH6ks3i3n7b6g-179" value="" style="shape=cube;whiteSpace=wrap;html=1;boundedLbl=1;backgroundOutline=1;darkOpacity=0.05;darkOpacity2=0.1;" vertex="1" parent="ZQFW1FxyH6ks3i3n7b6g-160">
                    <mxGeometry x="60" y="60" width="80" height="80" as="geometry"/>
                </mxCell>
                <mxCell id="ZQFW1FxyH6ks3i3n7b6g-180" value="" style="shape=cube;whiteSpace=wrap;html=1;boundedLbl=1;backgroundOutline=1;darkOpacity=0.05;darkOpacity2=0.1;" vertex="1" parent="ZQFW1FxyH6ks3i3n7b6g-160">
                    <mxGeometry y="60" width="80" height="80" as="geometry"/>
                </mxCell>
                <mxCell id="ZQFW1FxyH6ks3i3n7b6g-181" value="" style="shape=cube;whiteSpace=wrap;html=1;boundedLbl=1;backgroundOutline=1;darkOpacity=0.05;darkOpacity2=0.1;fillColor=#f5f5f5;gradientColor=#b3b3b3;strokeColor=#666666;" vertex="1" parent="ZQFW1FxyH6ks3i3n7b6g-160">
                    <mxGeometry x="240" width="80" height="80" as="geometry"/>
                </mxCell>
                <mxCell id="ZQFW1FxyH6ks3i3n7b6g-182" value="" style="shape=cube;whiteSpace=wrap;html=1;boundedLbl=1;backgroundOutline=1;darkOpacity=0.05;darkOpacity2=0.1;" vertex="1" parent="ZQFW1FxyH6ks3i3n7b6g-160">
                    <mxGeometry x="180" width="80" height="80" as="geometry"/>
                </mxCell>
                <mxCell id="ZQFW1FxyH6ks3i3n7b6g-183" value="" style="shape=cube;whiteSpace=wrap;html=1;boundedLbl=1;backgroundOutline=1;darkOpacity=0.05;darkOpacity2=0.1;" vertex="1" parent="ZQFW1FxyH6ks3i3n7b6g-160">
                    <mxGeometry x="120" width="80" height="80" as="geometry"/>
                </mxCell>
                <mxCell id="ZQFW1FxyH6ks3i3n7b6g-184" value="" style="shape=cube;whiteSpace=wrap;html=1;boundedLbl=1;backgroundOutline=1;darkOpacity=0.05;darkOpacity2=0.1;" vertex="1" parent="ZQFW1FxyH6ks3i3n7b6g-160">
                    <mxGeometry x="60" width="80" height="80" as="geometry"/>
                </mxCell>
                <mxCell id="ZQFW1FxyH6ks3i3n7b6g-185" value="" style="shape=cube;whiteSpace=wrap;html=1;boundedLbl=1;backgroundOutline=1;darkOpacity=0.05;darkOpacity2=0.1;fillColor=#f5f5f5;gradientColor=#b3b3b3;strokeColor=#666666;" vertex="1" parent="ZQFW1FxyH6ks3i3n7b6g-160">
                    <mxGeometry width="80" height="80" as="geometry"/>
                </mxCell>
                <mxCell id="ZQFW1FxyH6ks3i3n7b6g-186" value="" style="group" vertex="1" connectable="0" parent="ZQFW1FxyH6ks3i3n7b6g-133">
                    <mxGeometry x="60" y="120" width="80" height="260" as="geometry"/>
                </mxCell>
                <mxCell id="ZQFW1FxyH6ks3i3n7b6g-187" value="" style="shape=cube;whiteSpace=wrap;html=1;boundedLbl=1;backgroundOutline=1;darkOpacity=0.05;darkOpacity2=0.1;fillColor=#dae8fc;gradientColor=#7ea6e0;strokeColor=#6c8ebf;" vertex="1" parent="ZQFW1FxyH6ks3i3n7b6g-186">
                    <mxGeometry y="180" width="80" height="80" as="geometry"/>
                </mxCell>
                <mxCell id="ZQFW1FxyH6ks3i3n7b6g-188" value="" style="shape=cube;whiteSpace=wrap;html=1;boundedLbl=1;backgroundOutline=1;darkOpacity=0.05;darkOpacity2=0.1;fillColor=#f5f5f5;gradientColor=#b3b3b3;strokeColor=#666666;" vertex="1" parent="ZQFW1FxyH6ks3i3n7b6g-186">
                    <mxGeometry y="120" width="80" height="80" as="geometry"/>
                </mxCell>
                <mxCell id="ZQFW1FxyH6ks3i3n7b6g-189" value="" style="shape=cube;whiteSpace=wrap;html=1;boundedLbl=1;backgroundOutline=1;darkOpacity=0.05;darkOpacity2=0.1;fillColor=#dae8fc;gradientColor=#7ea6e0;strokeColor=#6c8ebf;" vertex="1" parent="ZQFW1FxyH6ks3i3n7b6g-186">
                    <mxGeometry y="60" width="80" height="80" as="geometry"/>
                </mxCell>
                <mxCell id="ZQFW1FxyH6ks3i3n7b6g-190" value="" style="shape=cube;whiteSpace=wrap;html=1;boundedLbl=1;backgroundOutline=1;darkOpacity=0.05;darkOpacity2=0.1;fillColor=#f5f5f5;gradientColor=#b3b3b3;strokeColor=#666666;" vertex="1" parent="ZQFW1FxyH6ks3i3n7b6g-186">
                    <mxGeometry width="80" height="80" as="geometry"/>
                </mxCell>
                <mxCell id="ZQFW1FxyH6ks3i3n7b6g-191" value="" style="shape=cube;whiteSpace=wrap;html=1;boundedLbl=1;backgroundOutline=1;darkOpacity=0.05;darkOpacity2=0.1;fillColor=#dae8fc;gradientColor=#7ea6e0;strokeColor=#6c8ebf;" vertex="1" parent="ZQFW1FxyH6ks3i3n7b6g-133">
                    <mxGeometry x="300" y="60" width="80" height="80" as="geometry"/>
                </mxCell>
                <mxCell id="ZQFW1FxyH6ks3i3n7b6g-192" value="" style="shape=cube;whiteSpace=wrap;html=1;boundedLbl=1;backgroundOutline=1;darkOpacity=0.05;darkOpacity2=0.1;fillColor=#dae8fc;gradientColor=#7ea6e0;strokeColor=#6c8ebf;" vertex="1" parent="ZQFW1FxyH6ks3i3n7b6g-133">
                    <mxGeometry x="240" y="60" width="80" height="80" as="geometry"/>
                </mxCell>
                <mxCell id="ZQFW1FxyH6ks3i3n7b6g-193" value="" style="shape=cube;whiteSpace=wrap;html=1;boundedLbl=1;backgroundOutline=1;darkOpacity=0.05;darkOpacity2=0.1;fillColor=#f5f5f5;gradientColor=#b3b3b3;strokeColor=#666666;" vertex="1" parent="ZQFW1FxyH6ks3i3n7b6g-133">
                    <mxGeometry x="180" y="60" width="80" height="80" as="geometry"/>
                </mxCell>
                <mxCell id="ZQFW1FxyH6ks3i3n7b6g-194" value="" style="shape=cube;whiteSpace=wrap;html=1;boundedLbl=1;backgroundOutline=1;darkOpacity=0.05;darkOpacity2=0.1;fillColor=#f5f5f5;gradientColor=#b3b3b3;strokeColor=#666666;" vertex="1" parent="ZQFW1FxyH6ks3i3n7b6g-133">
                    <mxGeometry x="120" y="60" width="80" height="80" as="geometry"/>
                </mxCell>
                <mxCell id="ZQFW1FxyH6ks3i3n7b6g-195" value="" style="shape=cube;whiteSpace=wrap;html=1;boundedLbl=1;backgroundOutline=1;darkOpacity=0.05;darkOpacity2=0.1;fillColor=#dae8fc;gradientColor=#7ea6e0;strokeColor=#6c8ebf;" vertex="1" parent="ZQFW1FxyH6ks3i3n7b6g-133">
                    <mxGeometry x="60" y="60" width="80" height="80" as="geometry"/>
                </mxCell>
                <mxCell id="ZQFW1FxyH6ks3i3n7b6g-196" value="" style="shape=cube;whiteSpace=wrap;html=1;boundedLbl=1;backgroundOutline=1;darkOpacity=0.05;darkOpacity2=0.1;fillColor=#f5f5f5;gradientColor=#b3b3b3;strokeColor=#666666;" vertex="1" parent="ZQFW1FxyH6ks3i3n7b6g-133">
                    <mxGeometry x="90" y="330" width="80" height="80" as="geometry"/>
                </mxCell>
                <mxCell id="ZQFW1FxyH6ks3i3n7b6g-197" value="" style="shape=cube;whiteSpace=wrap;html=1;boundedLbl=1;backgroundOutline=1;darkOpacity=0.05;darkOpacity2=0.1;fillColor=#d5e8d4;gradientColor=#97d077;strokeColor=#82b366;" vertex="1" parent="ZQFW1FxyH6ks3i3n7b6g-133">
                    <mxGeometry x="90" y="270" width="80" height="80" as="geometry"/>
                </mxCell>
                <mxCell id="ZQFW1FxyH6ks3i3n7b6g-198" value="" style="shape=cube;whiteSpace=wrap;html=1;boundedLbl=1;backgroundOutline=1;darkOpacity=0.05;darkOpacity2=0.1;fillColor=#f5f5f5;gradientColor=#b3b3b3;strokeColor=#666666;" vertex="1" parent="ZQFW1FxyH6ks3i3n7b6g-133">
                    <mxGeometry x="90" y="210" width="80" height="80" as="geometry"/>
                </mxCell>
                <mxCell id="ZQFW1FxyH6ks3i3n7b6g-199" value="" style="shape=cube;whiteSpace=wrap;html=1;boundedLbl=1;backgroundOutline=1;darkOpacity=0.05;darkOpacity2=0.1;fillColor=#d5e8d4;gradientColor=#97d077;strokeColor=#82b366;" vertex="1" parent="ZQFW1FxyH6ks3i3n7b6g-133">
                    <mxGeometry x="90" y="150" width="80" height="80" as="geometry"/>
                </mxCell>
                <mxCell id="ZQFW1FxyH6ks3i3n7b6g-200" value="" style="shape=cube;whiteSpace=wrap;html=1;boundedLbl=1;backgroundOutline=1;darkOpacity=0.05;darkOpacity2=0.1;fillColor=#f5f5f5;gradientColor=#b3b3b3;strokeColor=#666666;" vertex="1" parent="ZQFW1FxyH6ks3i3n7b6g-133">
                    <mxGeometry x="330" y="90" width="80" height="80" as="geometry"/>
                </mxCell>
                <mxCell id="ZQFW1FxyH6ks3i3n7b6g-201" value="" style="shape=cube;whiteSpace=wrap;html=1;boundedLbl=1;backgroundOutline=1;darkOpacity=0.05;darkOpacity2=0.1;fillColor=#d5e8d4;gradientColor=#97d077;strokeColor=#82b366;" vertex="1" parent="ZQFW1FxyH6ks3i3n7b6g-133">
                    <mxGeometry x="270" y="90" width="80" height="80" as="geometry"/>
                </mxCell>
                <mxCell id="ZQFW1FxyH6ks3i3n7b6g-202" value="" style="shape=cube;whiteSpace=wrap;html=1;boundedLbl=1;backgroundOutline=1;darkOpacity=0.05;darkOpacity2=0.1;fillColor=#f5f5f5;gradientColor=#b3b3b3;strokeColor=#666666;" vertex="1" parent="ZQFW1FxyH6ks3i3n7b6g-133">
                    <mxGeometry x="210" y="90" width="80" height="80" as="geometry"/>
                </mxCell>
                <mxCell id="ZQFW1FxyH6ks3i3n7b6g-203" value="" style="shape=cube;whiteSpace=wrap;html=1;boundedLbl=1;backgroundOutline=1;darkOpacity=0.05;darkOpacity2=0.1;fillColor=#d5e8d4;gradientColor=#97d077;strokeColor=#82b366;" vertex="1" parent="ZQFW1FxyH6ks3i3n7b6g-133">
                    <mxGeometry x="150" y="90" width="80" height="80" as="geometry"/>
                </mxCell>
                <mxCell id="ZQFW1FxyH6ks3i3n7b6g-204" value="" style="shape=cube;whiteSpace=wrap;html=1;boundedLbl=1;backgroundOutline=1;darkOpacity=0.05;darkOpacity2=0.1;fillColor=#d5e8d4;gradientColor=#97d077;strokeColor=#82b366;" vertex="1" parent="ZQFW1FxyH6ks3i3n7b6g-133">
                    <mxGeometry x="90" y="90" width="80" height="80" as="geometry"/>
                </mxCell>
                <mxCell id="ZQFW1FxyH6ks3i3n7b6g-205" value="" style="group" vertex="1" connectable="0" parent="ZQFW1FxyH6ks3i3n7b6g-133">
                    <mxGeometry x="120" y="120" width="320" height="320" as="geometry"/>
                </mxCell>
                <mxCell id="ZQFW1FxyH6ks3i3n7b6g-206" value="" style="shape=cube;whiteSpace=wrap;html=1;boundedLbl=1;backgroundOutline=1;darkOpacity=0.05;darkOpacity2=0.1;fillColor=#e51400;fontColor=#ffffff;strokeColor=#B20000;" vertex="1" parent="ZQFW1FxyH6ks3i3n7b6g-205">
                    <mxGeometry x="240" y="240" width="80" height="80" as="geometry"/>
                </mxCell>
                <mxCell id="ZQFW1FxyH6ks3i3n7b6g-207" value="" style="shape=cube;whiteSpace=wrap;html=1;boundedLbl=1;backgroundOutline=1;darkOpacity=0.05;darkOpacity2=0.1;fillColor=#e51400;fontColor=#ffffff;strokeColor=#B20000;" vertex="1" parent="ZQFW1FxyH6ks3i3n7b6g-205">
                    <mxGeometry x="180" y="240" width="80" height="80" as="geometry"/>
                </mxCell>
                <mxCell id="ZQFW1FxyH6ks3i3n7b6g-208" value="" style="shape=cube;whiteSpace=wrap;html=1;boundedLbl=1;backgroundOutline=1;darkOpacity=0.05;darkOpacity2=0.1;fillColor=#e51400;fontColor=#ffffff;strokeColor=#B20000;" vertex="1" parent="ZQFW1FxyH6ks3i3n7b6g-205">
                    <mxGeometry x="120" y="240" width="80" height="80" as="geometry"/>
                </mxCell>
                <mxCell id="ZQFW1FxyH6ks3i3n7b6g-209" value="" style="shape=cube;whiteSpace=wrap;html=1;boundedLbl=1;backgroundOutline=1;darkOpacity=0.05;darkOpacity2=0.1;fillColor=#e51400;fontColor=#ffffff;strokeColor=#B20000;" vertex="1" parent="ZQFW1FxyH6ks3i3n7b6g-205">
                    <mxGeometry x="60" y="240" width="80" height="80" as="geometry"/>
                </mxCell>
                <mxCell id="ZQFW1FxyH6ks3i3n7b6g-210" value="" style="shape=cube;whiteSpace=wrap;html=1;boundedLbl=1;backgroundOutline=1;darkOpacity=0.05;darkOpacity2=0.1;fillColor=#f5f5f5;strokeColor=#666666;gradientColor=#b3b3b3;" vertex="1" parent="ZQFW1FxyH6ks3i3n7b6g-205">
                    <mxGeometry y="240" width="80" height="80" as="geometry"/>
                </mxCell>
                <mxCell id="ZQFW1FxyH6ks3i3n7b6g-211" value="" style="shape=cube;whiteSpace=wrap;html=1;boundedLbl=1;backgroundOutline=1;darkOpacity=0.05;darkOpacity2=0.1;fillColor=#e51400;fontColor=#ffffff;strokeColor=#B20000;" vertex="1" parent="ZQFW1FxyH6ks3i3n7b6g-205">
                    <mxGeometry x="240" y="180" width="80" height="80" as="geometry"/>
                </mxCell>
                <mxCell id="ZQFW1FxyH6ks3i3n7b6g-212" value="" style="shape=cube;whiteSpace=wrap;html=1;boundedLbl=1;backgroundOutline=1;darkOpacity=0.05;darkOpacity2=0.1;fillColor=#f5f5f5;strokeColor=#666666;gradientColor=#b3b3b3;" vertex="1" parent="ZQFW1FxyH6ks3i3n7b6g-205">
                    <mxGeometry x="180" y="180" width="80" height="80" as="geometry"/>
                </mxCell>
                <mxCell id="ZQFW1FxyH6ks3i3n7b6g-213" value="" style="shape=cube;whiteSpace=wrap;html=1;boundedLbl=1;backgroundOutline=1;darkOpacity=0.05;darkOpacity2=0.1;fillColor=#e51400;fontColor=#ffffff;strokeColor=#B20000;" vertex="1" parent="ZQFW1FxyH6ks3i3n7b6g-205">
                    <mxGeometry x="120" y="180" width="80" height="80" as="geometry"/>
                </mxCell>
                <mxCell id="ZQFW1FxyH6ks3i3n7b6g-214" value="" style="shape=cube;whiteSpace=wrap;html=1;boundedLbl=1;backgroundOutline=1;darkOpacity=0.05;darkOpacity2=0.1;fillColor=#e51400;fontColor=#ffffff;strokeColor=#B20000;" vertex="1" parent="ZQFW1FxyH6ks3i3n7b6g-205">
                    <mxGeometry x="60" y="180" width="80" height="80" as="geometry"/>
                </mxCell>
                <mxCell id="ZQFW1FxyH6ks3i3n7b6g-215" value="" style="shape=cube;whiteSpace=wrap;html=1;boundedLbl=1;backgroundOutline=1;darkOpacity=0.05;darkOpacity2=0.1;fillColor=#e51400;fontColor=#ffffff;strokeColor=#B20000;" vertex="1" parent="ZQFW1FxyH6ks3i3n7b6g-205">
                    <mxGeometry y="180" width="80" height="80" as="geometry"/>
                </mxCell>
                <mxCell id="ZQFW1FxyH6ks3i3n7b6g-216" value="" style="shape=cube;whiteSpace=wrap;html=1;boundedLbl=1;backgroundOutline=1;darkOpacity=0.05;darkOpacity2=0.1;fillColor=#e51400;fontColor=#ffffff;strokeColor=#B20000;" vertex="1" parent="ZQFW1FxyH6ks3i3n7b6g-205">
                    <mxGeometry x="240" y="120" width="80" height="80" as="geometry"/>
                </mxCell>
                <mxCell id="ZQFW1FxyH6ks3i3n7b6g-217" value="" style="shape=cube;whiteSpace=wrap;html=1;boundedLbl=1;backgroundOutline=1;darkOpacity=0.05;darkOpacity2=0.1;fillColor=#e51400;fontColor=#ffffff;strokeColor=#B20000;" vertex="1" parent="ZQFW1FxyH6ks3i3n7b6g-205">
                    <mxGeometry x="180" y="120" width="80" height="80" as="geometry"/>
                </mxCell>
                <mxCell id="ZQFW1FxyH6ks3i3n7b6g-218" value="" style="shape=cube;whiteSpace=wrap;html=1;boundedLbl=1;backgroundOutline=1;darkOpacity=0.05;darkOpacity2=0.1;fillColor=#e51400;fontColor=#ffffff;strokeColor=#B20000;" vertex="1" parent="ZQFW1FxyH6ks3i3n7b6g-205">
                    <mxGeometry x="120" y="120" width="80" height="80" as="geometry"/>
                </mxCell>
                <mxCell id="ZQFW1FxyH6ks3i3n7b6g-219" value="" style="shape=cube;whiteSpace=wrap;html=1;boundedLbl=1;backgroundOutline=1;darkOpacity=0.05;darkOpacity2=0.1;fillColor=#f5f5f5;strokeColor=#666666;gradientColor=#b3b3b3;" vertex="1" parent="ZQFW1FxyH6ks3i3n7b6g-205">
                    <mxGeometry x="60" y="120" width="80" height="80" as="geometry"/>
                </mxCell>
                <mxCell id="ZQFW1FxyH6ks3i3n7b6g-220" value="" style="shape=cube;whiteSpace=wrap;html=1;boundedLbl=1;backgroundOutline=1;darkOpacity=0.05;darkOpacity2=0.1;fontStyle=1;fillColor=#e51400;fontColor=#ffffff;strokeColor=#B20000;" vertex="1" parent="ZQFW1FxyH6ks3i3n7b6g-205">
                    <mxGeometry y="120" width="80" height="80" as="geometry"/>
                </mxCell>
                <mxCell id="ZQFW1FxyH6ks3i3n7b6g-221" value="" style="shape=cube;whiteSpace=wrap;html=1;boundedLbl=1;backgroundOutline=1;darkOpacity=0.05;darkOpacity2=0.1;fillColor=#e51400;fontColor=#ffffff;strokeColor=#B20000;" vertex="1" parent="ZQFW1FxyH6ks3i3n7b6g-205">
                    <mxGeometry x="240" y="60" width="80" height="80" as="geometry"/>
                </mxCell>
                <mxCell id="ZQFW1FxyH6ks3i3n7b6g-222" value="" style="shape=cube;whiteSpace=wrap;html=1;boundedLbl=1;backgroundOutline=1;darkOpacity=0.05;darkOpacity2=0.1;fillColor=#e51400;fontColor=#ffffff;strokeColor=#B20000;" vertex="1" parent="ZQFW1FxyH6ks3i3n7b6g-205">
                    <mxGeometry x="180" y="60" width="80" height="80" as="geometry"/>
                </mxCell>
                <mxCell id="ZQFW1FxyH6ks3i3n7b6g-223" value="" style="shape=cube;whiteSpace=wrap;html=1;boundedLbl=1;backgroundOutline=1;darkOpacity=0.05;darkOpacity2=0.1;fillColor=#e51400;fontColor=#ffffff;strokeColor=#B20000;" vertex="1" parent="ZQFW1FxyH6ks3i3n7b6g-205">
                    <mxGeometry x="120" y="60" width="80" height="80" as="geometry"/>
                </mxCell>
                <mxCell id="ZQFW1FxyH6ks3i3n7b6g-224" value="" style="shape=cube;whiteSpace=wrap;html=1;boundedLbl=1;backgroundOutline=1;darkOpacity=0.05;darkOpacity2=0.1;fillColor=#e51400;fontColor=#ffffff;strokeColor=#B20000;" vertex="1" parent="ZQFW1FxyH6ks3i3n7b6g-205">
                    <mxGeometry x="60" y="60" width="80" height="80" as="geometry"/>
                </mxCell>
                <mxCell id="ZQFW1FxyH6ks3i3n7b6g-225" value="" style="shape=cube;whiteSpace=wrap;html=1;boundedLbl=1;backgroundOutline=1;darkOpacity=0.05;darkOpacity2=0.1;fillColor=#f5f5f5;strokeColor=#666666;gradientColor=#b3b3b3;" vertex="1" parent="ZQFW1FxyH6ks3i3n7b6g-205">
                    <mxGeometry y="60" width="80" height="80" as="geometry"/>
                </mxCell>
                <mxCell id="ZQFW1FxyH6ks3i3n7b6g-226" value="" style="shape=cube;whiteSpace=wrap;html=1;boundedLbl=1;backgroundOutline=1;darkOpacity=0.05;darkOpacity2=0.1;fillColor=#e51400;fontColor=#ffffff;strokeColor=#B20000;" vertex="1" parent="ZQFW1FxyH6ks3i3n7b6g-205">
                    <mxGeometry x="240" width="80" height="80" as="geometry"/>
                </mxCell>
                <mxCell id="ZQFW1FxyH6ks3i3n7b6g-227" value="" style="shape=cube;whiteSpace=wrap;html=1;boundedLbl=1;backgroundOutline=1;darkOpacity=0.05;darkOpacity2=0.1;fillColor=#f5f5f5;strokeColor=#666666;gradientColor=#b3b3b3;" vertex="1" parent="ZQFW1FxyH6ks3i3n7b6g-205">
                    <mxGeometry x="180" width="80" height="80" as="geometry"/>
                </mxCell>
                <mxCell id="ZQFW1FxyH6ks3i3n7b6g-228" value="" style="shape=cube;whiteSpace=wrap;html=1;boundedLbl=1;backgroundOutline=1;darkOpacity=0.05;darkOpacity2=0.1;fillColor=#e51400;fontColor=#ffffff;strokeColor=#B20000;" vertex="1" parent="ZQFW1FxyH6ks3i3n7b6g-205">
                    <mxGeometry x="120" width="80" height="80" as="geometry"/>
                </mxCell>
                <mxCell id="ZQFW1FxyH6ks3i3n7b6g-229" value="" style="shape=cube;whiteSpace=wrap;html=1;boundedLbl=1;backgroundOutline=1;darkOpacity=0.05;darkOpacity2=0.1;fillColor=#f5f5f5;strokeColor=#666666;gradientColor=#b3b3b3;" vertex="1" parent="ZQFW1FxyH6ks3i3n7b6g-205">
                    <mxGeometry x="60" width="80" height="80" as="geometry"/>
                </mxCell>
                <mxCell id="ZQFW1FxyH6ks3i3n7b6g-230" value="" style="shape=cube;whiteSpace=wrap;html=1;boundedLbl=1;backgroundOutline=1;darkOpacity=0.05;darkOpacity2=0.1;fillColor=#e51400;fontColor=#ffffff;strokeColor=#B20000;" vertex="1" parent="ZQFW1FxyH6ks3i3n7b6g-205">
                    <mxGeometry width="80" height="80" as="geometry"/>
                </mxCell>
                <mxCell id="ZQFW1FxyH6ks3i3n7b6g-231" value="" style="group" vertex="1" connectable="0" parent="1">
                    <mxGeometry x="1090" y="340" width="320" height="320" as="geometry"/>
                </mxCell>
                <mxCell id="ZQFW1FxyH6ks3i3n7b6g-257" value="" style="group" vertex="1" connectable="0" parent="ZQFW1FxyH6ks3i3n7b6g-231">
                    <mxGeometry x="-30" y="-30" width="320" height="320" as="geometry"/>
                </mxCell>
                <mxCell id="ZQFW1FxyH6ks3i3n7b6g-258" value="" style="shape=cube;whiteSpace=wrap;html=1;boundedLbl=1;backgroundOutline=1;darkOpacity=0.05;darkOpacity2=0.1;fillColor=#e51400;fontColor=#ffffff;strokeColor=#B20000;" vertex="1" parent="ZQFW1FxyH6ks3i3n7b6g-257">
                    <mxGeometry x="240" y="240" width="80" height="80" as="geometry"/>
                </mxCell>
                <mxCell id="ZQFW1FxyH6ks3i3n7b6g-259" value="" style="shape=cube;whiteSpace=wrap;html=1;boundedLbl=1;backgroundOutline=1;darkOpacity=0.05;darkOpacity2=0.1;fillColor=#e51400;fontColor=#ffffff;strokeColor=#B20000;" vertex="1" parent="ZQFW1FxyH6ks3i3n7b6g-257">
                    <mxGeometry x="180" y="240" width="80" height="80" as="geometry"/>
                </mxCell>
                <mxCell id="ZQFW1FxyH6ks3i3n7b6g-260" value="" style="shape=cube;whiteSpace=wrap;html=1;boundedLbl=1;backgroundOutline=1;darkOpacity=0.05;darkOpacity2=0.1;fillColor=#e51400;fontColor=#ffffff;strokeColor=#B20000;" vertex="1" parent="ZQFW1FxyH6ks3i3n7b6g-257">
                    <mxGeometry x="120" y="240" width="80" height="80" as="geometry"/>
                </mxCell>
                <mxCell id="ZQFW1FxyH6ks3i3n7b6g-261" value="" style="shape=cube;whiteSpace=wrap;html=1;boundedLbl=1;backgroundOutline=1;darkOpacity=0.05;darkOpacity2=0.1;fillColor=#e51400;fontColor=#ffffff;strokeColor=#B20000;" vertex="1" parent="ZQFW1FxyH6ks3i3n7b6g-257">
                    <mxGeometry x="60" y="240" width="80" height="80" as="geometry"/>
                </mxCell>
                <mxCell id="ZQFW1FxyH6ks3i3n7b6g-262" value="" style="shape=cube;whiteSpace=wrap;html=1;boundedLbl=1;backgroundOutline=1;darkOpacity=0.05;darkOpacity2=0.1;fillColor=#dae8fc;strokeColor=#6c8ebf;gradientColor=#7ea6e0;" vertex="1" parent="ZQFW1FxyH6ks3i3n7b6g-257">
                    <mxGeometry y="240" width="80" height="80" as="geometry"/>
                </mxCell>
                <mxCell id="ZQFW1FxyH6ks3i3n7b6g-263" value="" style="shape=cube;whiteSpace=wrap;html=1;boundedLbl=1;backgroundOutline=1;darkOpacity=0.05;darkOpacity2=0.1;fillColor=#e51400;fontColor=#ffffff;strokeColor=#B20000;" vertex="1" parent="ZQFW1FxyH6ks3i3n7b6g-257">
                    <mxGeometry x="240" y="180" width="80" height="80" as="geometry"/>
                </mxCell>
                <mxCell id="ZQFW1FxyH6ks3i3n7b6g-264" value="" style="shape=cube;whiteSpace=wrap;html=1;boundedLbl=1;backgroundOutline=1;darkOpacity=0.05;darkOpacity2=0.1;fillColor=#e51400;fontColor=#ffffff;strokeColor=#B20000;" vertex="1" parent="ZQFW1FxyH6ks3i3n7b6g-257">
                    <mxGeometry x="180" y="180" width="80" height="80" as="geometry"/>
                </mxCell>
                <mxCell id="ZQFW1FxyH6ks3i3n7b6g-265" value="" style="shape=cube;whiteSpace=wrap;html=1;boundedLbl=1;backgroundOutline=1;darkOpacity=0.05;darkOpacity2=0.1;fillColor=#e51400;fontColor=#ffffff;strokeColor=#B20000;" vertex="1" parent="ZQFW1FxyH6ks3i3n7b6g-257">
                    <mxGeometry x="120" y="180" width="80" height="80" as="geometry"/>
                </mxCell>
                <mxCell id="ZQFW1FxyH6ks3i3n7b6g-266" value="" style="shape=cube;whiteSpace=wrap;html=1;boundedLbl=1;backgroundOutline=1;darkOpacity=0.05;darkOpacity2=0.1;fillColor=#e51400;fontColor=#ffffff;strokeColor=#B20000;" vertex="1" parent="ZQFW1FxyH6ks3i3n7b6g-257">
                    <mxGeometry x="60" y="180" width="80" height="80" as="geometry"/>
                </mxCell>
                <mxCell id="ZQFW1FxyH6ks3i3n7b6g-267" value="" style="shape=cube;whiteSpace=wrap;html=1;boundedLbl=1;backgroundOutline=1;darkOpacity=0.05;darkOpacity2=0.1;fillColor=#e51400;fontColor=#ffffff;strokeColor=#B20000;" vertex="1" parent="ZQFW1FxyH6ks3i3n7b6g-257">
                    <mxGeometry y="180" width="80" height="80" as="geometry"/>
                </mxCell>
                <mxCell id="ZQFW1FxyH6ks3i3n7b6g-268" value="" style="shape=cube;whiteSpace=wrap;html=1;boundedLbl=1;backgroundOutline=1;darkOpacity=0.05;darkOpacity2=0.1;fillColor=#e51400;fontColor=#ffffff;strokeColor=#B20000;" vertex="1" parent="ZQFW1FxyH6ks3i3n7b6g-257">
                    <mxGeometry x="240" y="120" width="80" height="80" as="geometry"/>
                </mxCell>
                <mxCell id="ZQFW1FxyH6ks3i3n7b6g-269" value="" style="shape=cube;whiteSpace=wrap;html=1;boundedLbl=1;backgroundOutline=1;darkOpacity=0.05;darkOpacity2=0.1;fillColor=#e51400;fontColor=#ffffff;strokeColor=#B20000;" vertex="1" parent="ZQFW1FxyH6ks3i3n7b6g-257">
                    <mxGeometry x="180" y="120" width="80" height="80" as="geometry"/>
                </mxCell>
                <mxCell id="ZQFW1FxyH6ks3i3n7b6g-270" value="" style="shape=cube;whiteSpace=wrap;html=1;boundedLbl=1;backgroundOutline=1;darkOpacity=0.05;darkOpacity2=0.1;fillColor=#e51400;fontColor=#ffffff;strokeColor=#B20000;" vertex="1" parent="ZQFW1FxyH6ks3i3n7b6g-257">
                    <mxGeometry x="120" y="120" width="80" height="80" as="geometry"/>
                </mxCell>
                <mxCell id="ZQFW1FxyH6ks3i3n7b6g-271" value="" style="shape=cube;whiteSpace=wrap;html=1;boundedLbl=1;backgroundOutline=1;darkOpacity=0.05;darkOpacity2=0.1;fillColor=#e51400;fontColor=#ffffff;strokeColor=#B20000;" vertex="1" parent="ZQFW1FxyH6ks3i3n7b6g-257">
                    <mxGeometry x="60" y="120" width="80" height="80" as="geometry"/>
                </mxCell>
                <mxCell id="ZQFW1FxyH6ks3i3n7b6g-272" value="" style="shape=cube;whiteSpace=wrap;html=1;boundedLbl=1;backgroundOutline=1;darkOpacity=0.05;darkOpacity2=0.1;fontStyle=1;" vertex="1" parent="ZQFW1FxyH6ks3i3n7b6g-257">
                    <mxGeometry y="120" width="80" height="80" as="geometry"/>
                </mxCell>
                <mxCell id="ZQFW1FxyH6ks3i3n7b6g-273" value="" style="shape=cube;whiteSpace=wrap;html=1;boundedLbl=1;backgroundOutline=1;darkOpacity=0.05;darkOpacity2=0.1;fillColor=#e51400;fontColor=#ffffff;strokeColor=#B20000;" vertex="1" parent="ZQFW1FxyH6ks3i3n7b6g-257">
                    <mxGeometry x="240" y="60" width="80" height="80" as="geometry"/>
                </mxCell>
                <mxCell id="ZQFW1FxyH6ks3i3n7b6g-274" value="" style="shape=cube;whiteSpace=wrap;html=1;boundedLbl=1;backgroundOutline=1;darkOpacity=0.05;darkOpacity2=0.1;fillColor=#e51400;fontColor=#ffffff;strokeColor=#B20000;" vertex="1" parent="ZQFW1FxyH6ks3i3n7b6g-257">
                    <mxGeometry x="180" y="60" width="80" height="80" as="geometry"/>
                </mxCell>
                <mxCell id="ZQFW1FxyH6ks3i3n7b6g-275" value="" style="shape=cube;whiteSpace=wrap;html=1;boundedLbl=1;backgroundOutline=1;darkOpacity=0.05;darkOpacity2=0.1;fillColor=#e51400;fontColor=#ffffff;strokeColor=#B20000;" vertex="1" parent="ZQFW1FxyH6ks3i3n7b6g-257">
                    <mxGeometry x="120" y="60" width="80" height="80" as="geometry"/>
                </mxCell>
                <mxCell id="ZQFW1FxyH6ks3i3n7b6g-276" value="" style="shape=cube;whiteSpace=wrap;html=1;boundedLbl=1;backgroundOutline=1;darkOpacity=0.05;darkOpacity2=0.1;fillColor=#e51400;fontColor=#ffffff;strokeColor=#B20000;" vertex="1" parent="ZQFW1FxyH6ks3i3n7b6g-257">
                    <mxGeometry x="60" y="60" width="80" height="80" as="geometry"/>
                </mxCell>
                <mxCell id="ZQFW1FxyH6ks3i3n7b6g-277" value="" style="shape=cube;whiteSpace=wrap;html=1;boundedLbl=1;backgroundOutline=1;darkOpacity=0.05;darkOpacity2=0.1;" vertex="1" parent="ZQFW1FxyH6ks3i3n7b6g-257">
                    <mxGeometry y="60" width="80" height="80" as="geometry"/>
                </mxCell>
                <mxCell id="ZQFW1FxyH6ks3i3n7b6g-278" value="" style="shape=cube;whiteSpace=wrap;html=1;boundedLbl=1;backgroundOutline=1;darkOpacity=0.05;darkOpacity2=0.1;fillColor=#e51400;fontColor=#ffffff;strokeColor=#B20000;" vertex="1" parent="ZQFW1FxyH6ks3i3n7b6g-257">
                    <mxGeometry x="240" width="80" height="80" as="geometry"/>
                </mxCell>
                <mxCell id="ZQFW1FxyH6ks3i3n7b6g-279" value="" style="shape=cube;whiteSpace=wrap;html=1;boundedLbl=1;backgroundOutline=1;darkOpacity=0.05;darkOpacity2=0.1;fillColor=#d5e8d4;strokeColor=#82b366;gradientColor=#97d077;" vertex="1" parent="ZQFW1FxyH6ks3i3n7b6g-257">
                    <mxGeometry x="180" width="80" height="80" as="geometry"/>
                </mxCell>
                <mxCell id="ZQFW1FxyH6ks3i3n7b6g-280" value="" style="shape=cube;whiteSpace=wrap;html=1;boundedLbl=1;backgroundOutline=1;darkOpacity=0.05;darkOpacity2=0.1;fillColor=#ffcd28;strokeColor=#d79b00;gradientColor=#ffa500;" vertex="1" parent="ZQFW1FxyH6ks3i3n7b6g-257">
                    <mxGeometry x="120" width="80" height="80" as="geometry"/>
                </mxCell>
                <mxCell id="ZQFW1FxyH6ks3i3n7b6g-281" value="" style="shape=cube;whiteSpace=wrap;html=1;boundedLbl=1;backgroundOutline=1;darkOpacity=0.05;darkOpacity2=0.1;" vertex="1" parent="ZQFW1FxyH6ks3i3n7b6g-257">
                    <mxGeometry x="60" width="80" height="80" as="geometry"/>
                </mxCell>
                <mxCell id="ZQFW1FxyH6ks3i3n7b6g-282" value="" style="shape=cube;whiteSpace=wrap;html=1;boundedLbl=1;backgroundOutline=1;darkOpacity=0.05;darkOpacity2=0.1;fillColor=#dae8fc;strokeColor=#6c8ebf;gradientColor=#7ea6e0;" vertex="1" parent="ZQFW1FxyH6ks3i3n7b6g-257">
                    <mxGeometry width="80" height="80" as="geometry"/>
                </mxCell>
                <mxCell id="ZQFW1FxyH6ks3i3n7b6g-232" value="" style="shape=cube;whiteSpace=wrap;html=1;boundedLbl=1;backgroundOutline=1;darkOpacity=0.05;darkOpacity2=0.1;fillColor=#e51400;fontColor=#ffffff;strokeColor=#B20000;" vertex="1" parent="ZQFW1FxyH6ks3i3n7b6g-231">
                    <mxGeometry x="240" y="240" width="80" height="80" as="geometry"/>
                </mxCell>
                <mxCell id="ZQFW1FxyH6ks3i3n7b6g-233" value="" style="shape=cube;whiteSpace=wrap;html=1;boundedLbl=1;backgroundOutline=1;darkOpacity=0.05;darkOpacity2=0.1;fillColor=#e51400;fontColor=#ffffff;strokeColor=#B20000;" vertex="1" parent="ZQFW1FxyH6ks3i3n7b6g-231">
                    <mxGeometry x="180" y="240" width="80" height="80" as="geometry"/>
                </mxCell>
                <mxCell id="ZQFW1FxyH6ks3i3n7b6g-234" value="" style="shape=cube;whiteSpace=wrap;html=1;boundedLbl=1;backgroundOutline=1;darkOpacity=0.05;darkOpacity2=0.1;fillColor=#e51400;fontColor=#ffffff;strokeColor=#B20000;" vertex="1" parent="ZQFW1FxyH6ks3i3n7b6g-231">
                    <mxGeometry x="120" y="240" width="80" height="80" as="geometry"/>
                </mxCell>
                <mxCell id="ZQFW1FxyH6ks3i3n7b6g-235" value="" style="shape=cube;whiteSpace=wrap;html=1;boundedLbl=1;backgroundOutline=1;darkOpacity=0.05;darkOpacity2=0.1;fillColor=#e51400;fontColor=#ffffff;strokeColor=#B20000;" vertex="1" parent="ZQFW1FxyH6ks3i3n7b6g-231">
                    <mxGeometry x="60" y="240" width="80" height="80" as="geometry"/>
                </mxCell>
                <mxCell id="ZQFW1FxyH6ks3i3n7b6g-236" value="" style="shape=cube;whiteSpace=wrap;html=1;boundedLbl=1;backgroundOutline=1;darkOpacity=0.05;darkOpacity2=0.1;fillColor=#ffcd28;strokeColor=#d79b00;gradientColor=#ffa500;" vertex="1" parent="ZQFW1FxyH6ks3i3n7b6g-231">
                    <mxGeometry y="240" width="80" height="80" as="geometry"/>
                </mxCell>
                <mxCell id="ZQFW1FxyH6ks3i3n7b6g-237" value="" style="shape=cube;whiteSpace=wrap;html=1;boundedLbl=1;backgroundOutline=1;darkOpacity=0.05;darkOpacity2=0.1;fillColor=#e51400;fontColor=#ffffff;strokeColor=#B20000;" vertex="1" parent="ZQFW1FxyH6ks3i3n7b6g-231">
                    <mxGeometry x="240" y="180" width="80" height="80" as="geometry"/>
                </mxCell>
                <mxCell id="ZQFW1FxyH6ks3i3n7b6g-238" value="" style="shape=cube;whiteSpace=wrap;html=1;boundedLbl=1;backgroundOutline=1;darkOpacity=0.05;darkOpacity2=0.1;fillColor=#ffcd28;strokeColor=#d79b00;gradientColor=#ffa500;" vertex="1" parent="ZQFW1FxyH6ks3i3n7b6g-231">
                    <mxGeometry x="180" y="180" width="80" height="80" as="geometry"/>
                </mxCell>
                <mxCell id="ZQFW1FxyH6ks3i3n7b6g-239" value="" style="shape=cube;whiteSpace=wrap;html=1;boundedLbl=1;backgroundOutline=1;darkOpacity=0.05;darkOpacity2=0.1;fillColor=#e51400;fontColor=#ffffff;strokeColor=#B20000;" vertex="1" parent="ZQFW1FxyH6ks3i3n7b6g-231">
                    <mxGeometry x="120" y="180" width="80" height="80" as="geometry"/>
                </mxCell>
                <mxCell id="ZQFW1FxyH6ks3i3n7b6g-240" value="" style="shape=cube;whiteSpace=wrap;html=1;boundedLbl=1;backgroundOutline=1;darkOpacity=0.05;darkOpacity2=0.1;fillColor=#e51400;fontColor=#ffffff;strokeColor=#B20000;" vertex="1" parent="ZQFW1FxyH6ks3i3n7b6g-231">
                    <mxGeometry x="60" y="180" width="80" height="80" as="geometry"/>
                </mxCell>
                <mxCell id="ZQFW1FxyH6ks3i3n7b6g-241" value="" style="shape=cube;whiteSpace=wrap;html=1;boundedLbl=1;backgroundOutline=1;darkOpacity=0.05;darkOpacity2=0.1;fillColor=#d5e8d4;strokeColor=#82b366;gradientColor=#97d077;" vertex="1" parent="ZQFW1FxyH6ks3i3n7b6g-231">
                    <mxGeometry y="180" width="80" height="80" as="geometry"/>
                </mxCell>
                <mxCell id="ZQFW1FxyH6ks3i3n7b6g-242" value="" style="shape=cube;whiteSpace=wrap;html=1;boundedLbl=1;backgroundOutline=1;darkOpacity=0.05;darkOpacity2=0.1;fillColor=#e51400;fontColor=#ffffff;strokeColor=#B20000;" vertex="1" parent="ZQFW1FxyH6ks3i3n7b6g-231">
                    <mxGeometry x="240" y="120" width="80" height="80" as="geometry"/>
                </mxCell>
                <mxCell id="ZQFW1FxyH6ks3i3n7b6g-243" value="" style="shape=cube;whiteSpace=wrap;html=1;boundedLbl=1;backgroundOutline=1;darkOpacity=0.05;darkOpacity2=0.1;fillColor=#e51400;fontColor=#ffffff;strokeColor=#B20000;" vertex="1" parent="ZQFW1FxyH6ks3i3n7b6g-231">
                    <mxGeometry x="180" y="120" width="80" height="80" as="geometry"/>
                </mxCell>
                <mxCell id="ZQFW1FxyH6ks3i3n7b6g-244" value="" style="shape=cube;whiteSpace=wrap;html=1;boundedLbl=1;backgroundOutline=1;darkOpacity=0.05;darkOpacity2=0.1;fillColor=#e51400;fontColor=#ffffff;strokeColor=#B20000;" vertex="1" parent="ZQFW1FxyH6ks3i3n7b6g-231">
                    <mxGeometry x="120" y="120" width="80" height="80" as="geometry"/>
                </mxCell>
                <mxCell id="ZQFW1FxyH6ks3i3n7b6g-245" value="" style="shape=cube;whiteSpace=wrap;html=1;boundedLbl=1;backgroundOutline=1;darkOpacity=0.05;darkOpacity2=0.1;fillColor=#dae8fc;strokeColor=#6c8ebf;gradientColor=#7ea6e0;" vertex="1" parent="ZQFW1FxyH6ks3i3n7b6g-231">
                    <mxGeometry x="60" y="120" width="80" height="80" as="geometry"/>
                </mxCell>
                <mxCell id="ZQFW1FxyH6ks3i3n7b6g-246" value="" style="shape=cube;whiteSpace=wrap;html=1;boundedLbl=1;backgroundOutline=1;darkOpacity=0.05;darkOpacity2=0.1;fontStyle=1;fillColor=#dae8fc;strokeColor=#6c8ebf;gradientColor=#7ea6e0;" vertex="1" parent="ZQFW1FxyH6ks3i3n7b6g-231">
                    <mxGeometry y="120" width="80" height="80" as="geometry"/>
                </mxCell>
                <mxCell id="ZQFW1FxyH6ks3i3n7b6g-247" value="" style="shape=cube;whiteSpace=wrap;html=1;boundedLbl=1;backgroundOutline=1;darkOpacity=0.05;darkOpacity2=0.1;fillColor=#e51400;fontColor=#ffffff;strokeColor=#B20000;" vertex="1" parent="ZQFW1FxyH6ks3i3n7b6g-231">
                    <mxGeometry x="240" y="60" width="80" height="80" as="geometry"/>
                </mxCell>
                <mxCell id="ZQFW1FxyH6ks3i3n7b6g-248" value="" style="shape=cube;whiteSpace=wrap;html=1;boundedLbl=1;backgroundOutline=1;darkOpacity=0.05;darkOpacity2=0.1;fillColor=#e51400;fontColor=#ffffff;strokeColor=#B20000;" vertex="1" parent="ZQFW1FxyH6ks3i3n7b6g-231">
                    <mxGeometry x="180" y="60" width="80" height="80" as="geometry"/>
                </mxCell>
                <mxCell id="ZQFW1FxyH6ks3i3n7b6g-249" value="" style="shape=cube;whiteSpace=wrap;html=1;boundedLbl=1;backgroundOutline=1;darkOpacity=0.05;darkOpacity2=0.1;fillColor=#e51400;fontColor=#ffffff;strokeColor=#B20000;" vertex="1" parent="ZQFW1FxyH6ks3i3n7b6g-231">
                    <mxGeometry x="120" y="60" width="80" height="80" as="geometry"/>
                </mxCell>
                <mxCell id="ZQFW1FxyH6ks3i3n7b6g-250" value="" style="shape=cube;whiteSpace=wrap;html=1;boundedLbl=1;backgroundOutline=1;darkOpacity=0.05;darkOpacity2=0.1;fillColor=#e51400;fontColor=#ffffff;strokeColor=#B20000;" vertex="1" parent="ZQFW1FxyH6ks3i3n7b6g-231">
                    <mxGeometry x="60" y="60" width="80" height="80" as="geometry"/>
                </mxCell>
                <mxCell id="ZQFW1FxyH6ks3i3n7b6g-251" value="" style="shape=cube;whiteSpace=wrap;html=1;boundedLbl=1;backgroundOutline=1;darkOpacity=0.05;darkOpacity2=0.1;fillColor=#d5e8d4;strokeColor=#82b366;gradientColor=#97d077;" vertex="1" parent="ZQFW1FxyH6ks3i3n7b6g-231">
                    <mxGeometry y="60" width="80" height="80" as="geometry"/>
                </mxCell>
                <mxCell id="ZQFW1FxyH6ks3i3n7b6g-252" value="" style="shape=cube;whiteSpace=wrap;html=1;boundedLbl=1;backgroundOutline=1;darkOpacity=0.05;darkOpacity2=0.1;fillColor=#ffcd28;strokeColor=#d79b00;gradientColor=#ffa500;" vertex="1" parent="ZQFW1FxyH6ks3i3n7b6g-231">
                    <mxGeometry x="240" width="80" height="80" as="geometry"/>
                </mxCell>
                <mxCell id="ZQFW1FxyH6ks3i3n7b6g-253" value="" style="shape=cube;whiteSpace=wrap;html=1;boundedLbl=1;backgroundOutline=1;darkOpacity=0.05;darkOpacity2=0.1;fillColor=#dae8fc;strokeColor=#6c8ebf;gradientColor=#7ea6e0;" vertex="1" parent="ZQFW1FxyH6ks3i3n7b6g-231">
                    <mxGeometry x="180" width="80" height="80" as="geometry"/>
                </mxCell>
                <mxCell id="ZQFW1FxyH6ks3i3n7b6g-254" value="" style="shape=cube;whiteSpace=wrap;html=1;boundedLbl=1;backgroundOutline=1;darkOpacity=0.05;darkOpacity2=0.1;fillColor=#e51400;fontColor=#ffffff;strokeColor=#B20000;" vertex="1" parent="ZQFW1FxyH6ks3i3n7b6g-231">
                    <mxGeometry x="120" width="80" height="80" as="geometry"/>
                </mxCell>
                <mxCell id="ZQFW1FxyH6ks3i3n7b6g-255" value="" style="shape=cube;whiteSpace=wrap;html=1;boundedLbl=1;backgroundOutline=1;darkOpacity=0.05;darkOpacity2=0.1;fillColor=#ffcd28;strokeColor=#d79b00;gradientColor=#ffa500;" vertex="1" parent="ZQFW1FxyH6ks3i3n7b6g-231">
                    <mxGeometry x="60" width="80" height="80" as="geometry"/>
                </mxCell>
                <mxCell id="ZQFW1FxyH6ks3i3n7b6g-256" value="" style="shape=cube;whiteSpace=wrap;html=1;boundedLbl=1;backgroundOutline=1;darkOpacity=0.05;darkOpacity2=0.1;fillColor=#d5e8d4;strokeColor=#82b366;gradientColor=#97d077;" vertex="1" parent="ZQFW1FxyH6ks3i3n7b6g-231">
                    <mxGeometry width="80" height="80" as="geometry"/>
                </mxCell>
                <mxCell id="ZQFW1FxyH6ks3i3n7b6g-310" value="" style="endArrow=classic;html=1;entryX=0.25;entryY=0.75;entryDx=0;entryDy=0;entryPerimeter=0;" edge="1" parent="1" target="ZQFW1FxyH6ks3i3n7b6g-220">
                    <mxGeometry width="50" height="50" relative="1" as="geometry">
                        <mxPoint x="440" y="520" as="sourcePoint"/>
                        <mxPoint x="680" y="440" as="targetPoint"/>
                    </mxGeometry>
                </mxCell>
                <mxCell id="ZQFW1FxyH6ks3i3n7b6g-312" value="" style="shape=singleArrow;direction=north;whiteSpace=wrap;html=1;" vertex="1" parent="1">
                    <mxGeometry x="440" y="130" width="60" height="390" as="geometry"/>
                </mxCell>
                <mxCell id="ZQFW1FxyH6ks3i3n7b6g-314" value="&lt;font style=&quot;font-size: 22px;&quot;&gt;Channel Randomly Selection&lt;/font&gt;" style="text;strokeColor=none;align=center;fillColor=none;html=1;verticalAlign=middle;whiteSpace=wrap;rounded=0;" vertex="1" parent="1">
                    <mxGeometry x="310" y="100" width="290" height="30" as="geometry"/>
                </mxCell>
                <mxCell id="ZQFW1FxyH6ks3i3n7b6g-315" value="&lt;font style=&quot;font-size: 22px;&quot;&gt;Channel Shuffle&lt;/font&gt;" style="text;strokeColor=none;align=center;fillColor=none;html=1;verticalAlign=middle;whiteSpace=wrap;rounded=0;" vertex="1" parent="1">
                    <mxGeometry x="860" y="100" width="260" height="30" as="geometry"/>
                </mxCell>
                <mxCell id="ZQFW1FxyH6ks3i3n7b6g-322" value="" style="group" vertex="1" connectable="0" parent="1">
                    <mxGeometry x="-610" y="120" width="448" height="672" as="geometry"/>
                </mxCell>
                <mxCell id="ZQFW1FxyH6ks3i3n7b6g-319" value="" style="group" vertex="1" connectable="0" parent="ZQFW1FxyH6ks3i3n7b6g-322">
                    <mxGeometry width="224" height="672" as="geometry"/>
                </mxCell>
                <mxCell id="ZQFW1FxyH6ks3i3n7b6g-316" value="" style="shape=image;imageAspect=0;aspect=fixed;verticalLabelPosition=bottom;verticalAlign=top;image=data:image/jpeg,/9j/4AAQSkZJRgABAQAAAQABAAD/2wBDAAgGBgcGBQgHBwcJCQgKDBQNDAsLDBkSEw8UHRofHh0aHBwgJC4nICIsIxwcKDcpLDAxNDQ0Hyc5PTgyPC4zNDL/2wBDAQkJCQwLDBgNDRgyIRwhMjIyMjIyMjIyMjIyMjIyMjIyMjIyMjIyMjIyMjIyMjIyMjIyMjIyMjIyMjIyMjIyMjL/wAARCADgAOADASIAAhEBAxEB/8QAHwAAAQUBAQEBAQEAAAAAAAAAAAECAwQFBgcICQoL/8QAtRAAAgEDAwIEAwUFBAQAAAF9AQIDAAQRBRIhMUEGE1FhByJxFDKBkaEII0KxwRVS0fAkM2JyggkKFhcYGRolJicoKSo0NTY3ODk6Q0RFRkdISUpTVFVWV1hZWmNkZWZnaGlqc3R1dnd4eXqDhIWGh4iJipKTlJWWl5iZmqKjpKWmp6ipqrKztLW2t7i5usLDxMXGx8jJytLT1NXW19jZ2uHi4+Tl5ufo6erx8vP09fb3+Pn6/8QAHwEAAwEBAQEBAQEBAQAAAAAAAAECAwQFBgcICQoL/8QAtREAAgECBAQDBAcFBAQAAQJ3AAECAxEEBSExBhJBUQdhcRMiMoEIFEKRobHBCSMzUvAVYnLRChYkNOEl8RcYGRomJygpKjU2Nzg5OkNERUZHSElKU1RVVldYWVpjZGVmZ2hpanN0dXZ3eHl6goOEhYaHiImKkpOUlZaXmJmaoqOkpaanqKmqsrO0tba3uLm6wsPExcbHyMnK0tPU1dbX2Nna4uPk5ebn6Onq8vP09fb3+Pn6/9oADAMBAAIRAxEAPwDwAdaWkFLWsdhBRRRVAFFFFCAcop4pop4r0aEbIhi07FIKcBXoQiQxMUYp2KK25BDcUYp1FCgA3FFOpKUoDG0UtFRygJSYpxpDWckMjIphqU0wivPrQW6KTGGilpK4miwooopAJQaWkPWs5bAA60tIOtLThsAUUUVSWoBTgKSnL0rWnG8hMcBThTacK9OmiGKKdTRThXZTJYtFLRXVYkSilxS4pqIDTSU6kxUShcYmKKXFGKj2bC42kNONNNYTXQaGmkIpxptcc4lIaRSEU6kNc04IpDKKU0lcb0ZQUhpaQ9amewIB1paQdaWlDYApaSlFaREHenikA70u70rqpJR1YmOFOFRZpQ5zXVCvBbktEuM04CohIaUO1dMMRSE0yYUYqMOTTga7oV4S2IaH0Ugpc8103VhBSUtNPFTKVtQHcUh5pu7FRsxJrnq4iMVsUkSbfWjAqIs3rTcn1rini4LaJXKyUimGmZPvRk1yzxClshpC0UmTS1ldMYw0lONNrjqK0ikFIetLSN1rKfwjQClpBS0obAApwFAFOFdVOFyWIBk80/aKQUua7YQjFaki4FIVBpN3pRz61fNBq1gDFFH40c1np0QxQaepplAODW9Oo4O5LRMOtKaYppxFenTleF0QwzSNS4qNjzUVp8sdRoQ0mKKK82T5tWWJjNKFFGaM1K5d2A7ik4pNwozWntI2FYCophGDxT80hrCcYvVFIaelNp9MxXJViNCUh60tIetcs9igFLSClHWlT1BjxS0gpa9CBIuaaTQelMxU1ajWiBIdu9KCxx1p6IDTTmOToD9aUqdSMVOTsmF0NDH1p4bPXimKcE8A8YqwsYEQ3cVpg6dSq3yvYUmkMpM0hwCQDle1FauT2AepxUpPHFQin13UJtRaIaHZ4qJjTzUZqMRNtJDSFHSk+tJSrtZsMcCuRO9kihpb0ppY+pqw6Aw5XnHpVdmyc4A4A4rHF0p0rcz3t/XyCLTANS7vWlH7yTOAOc8U6RQKhU5uDnF6L8R3Q0GlpnIpw6U6dRvRg0LTadSEU5q4DKQ0p60h61wz0KQCnLTR1p4qqKuwYopaKK70tCAppHNPxRiiVLmC4ilh0pSxYc4NGKUCtIRkly30AbtANKeetOxTTxTdPlWwricClFGKWlGIwp1Npa6YOxItM707NJUVHcaGmjg9aWjFc7QwHHSk2jNKKXFUoKa2AQMVGABTSWPWn0mKJxk1y30BDAOadS4oxWcafKFxKSlpKJANammntTD1rgrKzZaBetSCmR9T9KeK1oL3UxMWlFIKcK7Yq5IUUUtbJCEpc0lGKd2tgDJNGKXFFKze4CUUvvTc5NJ+6AtFKBS4q4xb1EJSU7FNNKcWkNCUUUuMiso6gJilBIopcVaXVAGaSjFFVr1AKKKKloBKSlNJWEhjTTW6049aa/UfSuOtblZSBOp+lP70xOSfpTu9Oi2oIGOFOFNFOFd1Mli0UUV0RJFoopcVpFAJiinU01ThbUQjelIBQetBYjoKwbjdykMcCAakyCKgBbPIp+eK2o11ZoTQ/IxzUZwTQTxTct2AqK1dOysNIUigHigEkc0CsU1e8Ri0YpQKWtow6iEpKWkoegBSGlpKykMQ0lBornkxjaa3WnZpjda4qz90pCp1P0qTAIqNOtSe1a4azhZie4CnCmCnCummxMWlpKK3ixDqUUgoroUhDqQmjNNqpT0sICM00gjvTqSuacUygANO20gp1aQiraiEK0w5qSmmlVgugJjQCetOFJRWUUkMeDRTQaXNdMZ3RIGkoorOTGJSUppKwkxiUhpaB1rB66DAKBUb9R9KlqOT7w+lZYmKVPQcdxo61KDmol606sKEnFXGx/elpgJzzT67KclIli0UlLXRFiFopKKu4C0UlLVKQhDRmkJxSbqwlUV9R2HgHvSHcOvFNJJpNxxg8ik6sbWVwsPyTRTS2e1LuGOnNP2kXuwsFKKbu9aUUozTeg7C0uaSitOYQtIaKShy0AKKKSsmxhQO9FR5PrWE5qDQ0iUnHWoWOTS9aRutc9eq5x8hpWBetOpq9adUU/hGwp4ORTKVT2relK0hMfRRRXYmSLRSUtWmIKQmlpCKmd7aAhhPNFKRRxXKk29SgpKeUI79aTaaqVKa0aC42il2ml2kdaSpzfQLjaUGigCpSaegC5paQUtdMX3EFFFFFwCkpaSkwEY4FMpW5NJXDUd5FIKQ9aWkbrWU9hoF606mr1p1VT+EGFFFFWIeDkUtMBwadXVTndCYtFJS1smIWkooqtxCYpMU+jFQ6dx3GZOMZOKMmn4opKlLuFxmTRkmn4pMUnRl3C42lApcUUKFguFFFJVAFFFFSAUhOBQaQ9ayqSaQ0NopaK5hiUh606mnrWc9hoF606mr1p1On8IMKKKK0EFKp7UlA61UXaWgD6KTpS11Jki0UUVomAtLikpRW0UhBiiloq2hCUUUtJIBtJSmkrKQwpKKKybGFFJRWbYwpp60+mHrWVXRAgooorEYU1utLSN1qJ/CNAvWnU1etOp0/hBhRRRViCgdRRRTQD6SlorqtckKKSimpWAfQDTc0taxmIdmjNNzS5rT2gWFoJpM0lJzCwUUUhNZSkMKTNFFYuV9hhS0lLTSAKZ3NOptZVQQUUlFY3GHekbrS0jdazn8I0f/2Q==;base64,/9j/4AAQSkZJRgABAQAAAQABAAD/2wBDAAgGBgcGBQgHBwcJCQgKDBQNDAsLDBkSEw8UHRofHh0aHBwgJC4nICIsIxwcKDcpLDAxNDQ0Hyc5PTgyPC4zNDL/2wBDAQkJCQwLDBgNDRgyIRwhMjIyMjIyMjIyMjIyMjIyMjIyMjIyMjIyMjIyMjIyMjIyMjIyMjIyMjIyMjIyMjIyMjL/wAARCADgAOADASIAAhEBAxEB/8QAHwAAAQUBAQEBAQEAAAAAAAAAAAECAwQFBgcICQoL/8QAtRAAAgEDAwIEAwUFBAQAAAF9AQIDAAQRBRIhMUEGE1FhByJxFDKBkaEII0KxwRVS0fAkM2JyggkKFhcYGRolJicoKSo0NTY3ODk6Q0RFRkdISUpTVFVWV1hZWmNkZWZnaGlqc3R1dnd4eXqDhIWGh4iJipKTlJWWl5iZmqKjpKWmp6ipqrKztLW2t7i5usLDxMXGx8jJytLT1NXW19jZ2uHi4+Tl5ufo6erx8vP09fb3+Pn6/8QAHwEAAwEBAQEBAQEBAQAAAAAAAAECAwQFBgcICQoL/8QAtREAAgECBAQDBAcFBAQAAQJ3AAECAxEEBSExBhJBUQdhcRMiMoEIFEKRobHBCSMzUvAVYnLRChYkNOEl8RcYGRomJygpKjU2Nzg5OkNERUZHSElKU1RVVldYWVpjZGVmZ2hpanN0dXZ3eHl6goOEhYaHiImKkpOUlZaXmJmaoqOkpaanqKmqsrO0tba3uLm6wsPExcbHyMnK0tPU1dbX2Nna4uPk5ebn6Onq8vP09fb3+Pn6/9oADAMBAAIRAxEAPwDwKP71S1FH96pcVD3Oin8IlHNKBQaRdgpR1pKei5oZUVdlm3QnFaUK9OKq26YArQjGDXHVkfR4GjZInRasKtRIPerCCuOTPpKEBdtG2ngUuKzudnIR45pQtOwDS0rjUCMimEc5qYioyOc5qkzOcRlLilFGKdzNRIyM1G61MetRv0561SZjUjoZ08Oc4rMlj2k1tSDNUJ4859a66Uz53HYdPVGawqOrDr1BFRFcV1pnz9SFmNxSGnCjGaZnYZUUnWpiKik+9VoxqLQIvvH6VNUMf3vwqb3pS3KpfCNJpQKKcBzSLSuwC1ZgTOc1DjAq7bJ8v1rOb0OzDU7zsWokGKtxrioUWrSLXDNn1OGp2JEBqyg4qupqzGa55HsULEnajFKMYorI7rDTQKdj1oxQKzGH2pjCpMHcRjigrVJkSjci20VJtOO1IVxTuQ4NENRvUrYFRNVo5qi0sV3BNV5I8mrjjAzUDVtFnmVqae5QkhB7DNVZIsVpOKrSp1NdEJHjYmgtWjMbg0makmXBzUfUV1LVHhyXLKwpqCT734VOOlQy/e/CnHcyrfCJF96pj0qGP71TYpy3FS+EB1qRRTAKlQZqGdFNDlXc4FaMSYUVVjQD5iaka4AGFzWE7y0R6uHUaS5pF9CPWrCsMcEVjCZhzyaeLyRTwSaxlSbPRpZhCO6NtRu6VPGMdKw0v5cccVKl9Me4/lWUqMj0KWZUfM319zS4HtWSl67gZJz71djlJANc8qbW57FHGU6nwlrFJSKaXPNZnZdMTvS8UhIzUcjbT1ppXIlLlVyX5cVG5Xpmq73G0EnrWfPcuzZBOPatIUm2cOIx0II0yAOrCoiY88EVkPczY++arGaXdnefwOK6I0H3PJq5tBaKJuOV5warMynoRWYJJCOjH3pdznqTWio26nHPMVPaJcYVCwz1qMTMnX5h7GpN4cZBqrNGLqRntuZ9wpGarjrV+4TK1RIwa6oO6PDxMOWYVDL94fSp6gm+8PpVx3OOt8IRfe/CpSahj+9Uo605bipP3bEiLnmrMScZpkaZAq3GuABWE5Hq4ajfURITI3PT0qytqv0oQYqXeAOtc8pPoevRo00ryQLbr3pslpE3PQ+opPPPRRRliOXAqfe7mz9i1bluRtbY6GmhCDUnzf380YYd6q7MeSN7pDk+U81egk4FVF5HNKrFGrOSudlCbpu5qxHJqbNVLZ9xq2y471ySVmfQUJc0LoTPPWq8xAPWp8fLzVG4fDGnBXZniZ8sNSCY7jVcx5qTOTk0rMMV1LQ8Kdpu7IDBu4qRLVB1GfrSeZ6c/SlE2Ooqm5GUY0k7tEwjQDoKRkQjpTBcIeMEUeYp6Goszo56bWliN7dT0qq0RjbK4q5uqOTmtYyZxVqUGrpalaQbkNUGHNaRHymqLLwa3ps8rFwvYr1FN94fSpsVDL94fSt47nkVfhEj+9UyDLVDH96rMIy9OQUFeyLcY4FWl7VDGvFTgVxyZ9DQjZDtwAqtNcKvU06ckIcVm7GdznP41VOCerMsXiZQ92KJ2vGP3Rgevemtdylcbzmp7e0B5JzUEgNrdZKBvQMODWi5W7JHJP28YKc5WTGrdyL/ABE/Wr0F4HADjGfyNZ0LbGPyq2VK4Iz1GK2be0VLJRL8pPOTU1eVbo2y/wBvUb5ZbdyRWA+lNZ8nioPlSQqjFo84XJ5qQA555rDlseoqrloaFs+CK0mbKgisuBeRWgB8orkqpXPosFOSg0OZsRmsqduTWi/KmsyYcmnSWplj5NxRGrfKT6VG7924FJngjPeo1EcswWR9qdOuOe2faupLqeDOo7JIgmvDg+WMAd6qNcuf42/Ota6tI3sN0ABK9cc1jzP5jhtoXChcAegx/Suik4yWiPKx8a1Jrmlv22/pEiXTrxkk1It6xPzj8RTYgbm8LhAoJ3EAcCprm3A5UYNN8t7NGdNV3BzjLRfiTxT7h1z71JuzWUu6Nq0ImLIM1nOFtUdmHxLqe7LceelVXHGKtkcVCyYpRdi60Loz2GDVeX7w+lW7gYeqkn3q6oHgYhWuhE+9V21X5qqRDL1oW64zSqPQ0wUbyTLUYqbHFMQVLjmuNs+kpR0ImTIqpLC27IrTCZFIYQe1EalhVcJ7RFCLzk5BqVw84xIoP4Va8nHanrGaHUW44YSVuVt2KCWio2QMH2qUxg/eJP1NWzGcVCyY+tLnbK+qxpqyRAAAeBVmKPJyaI4MHJqyq4FTOfY2oYd3ux8YwRVzPy81UTrVkHiuaZ7eHdkwJyMVRlGWNXCcVUkHNVAyxWqKkiVAVVj8w5q8wyKheHPI610RkeNVo31RCIgPukj8ahezVmzjJq0i5ODxUyoafO0ZrDRqKzRRTfCpVFAH0qGQysea02T2phhz1FNVFuRPCSa5U9DOihJbJq4qYFTLBjtTjHgUSqXKo4T2aIscVCwqwRxUTCkmOpHQzroc1QfrWncrnFZ0ww34V2UnofN46FpNj7Rd0pGO1aMIwSKqaaMzt/u/4Vcj4kIqKr1aOnAwtTjLzLSCp0WoY6sJXJI+hoq5IoyKcEoWpBWTZ6MYJojxSE4HSpNtHl5NK4+R9CE7m4HSlWLHJqbaBQafN2F7JbsjxS9BStwMmotxZqNxNqOhIDg1OucU2FOeasED0rOTOujTdrkWM1XlGDV3AFVJxkmiD1FiIWiQdaAOaYcg1KBlQa2Z561Y1og3I60gDJUqmpMA0uaxoqSeq3IQc07GafsANLjFTc0VNrcYFpjjipSajY00TNKxXYVC1TvVdutbRPNrFaVdzAVnXg2yge1aL8yCqOoHM6/7tdVLc8DHJezb8x2mnEzf7v8AhV3P7yqOnjM7D/Zq252vRU+MrBu1BepciqylVIjVlK5Zo97Dy0J161KpqAGpQaxaPSpyJRilFM68VKorNnVHUYwxTOKsFc1C6lelCYVINakUp3EKKckWOajJw/NNmnkUDYoJrSzeiORzim5SLSSBW+lXA6Mg4FYKy3O/50GParqT4TrUzpG+Fxy1TX3l8yIAciqTuGcio5Lj5apM9wW+RQB706dIzxWOWiSv6F14+M0xG2gg02KRyn7zGaB8xOKu3RnPzp2lEkzzkVMg4pscZPWpsYFZyZ10oPdjDTSac1Rk0Ic3YQmomNPY1CzVcUclSQxzUDmnseahc1tFHm1pEX8RNUL45lH0q/nIwOtUL4ETLn+7XTS+I8XG/wAEdpwzO3+7WmY1eEnPIrKsHCz89xitcdCvqKmtfmNst5ZUbPzI4jjFW0NU09Kso1YzR6WHlYnB61KhqAGpFPNYtHo05FlTUimoFNPVuayaO+EyytNfFNDYppbJqEjolNWsMkiDiqkkLqeGOKuFsVGxzWsW0cVenCXqQRqxODU5gGM0IoqQnihyd9BU6UVH3iJrcAZquysDgVeJyKgYDNOMn1JrUo/ZIY4WY/MeKtKgXiow2KfnNEm2OlGEdtydCBSsahV+1OLcVnbU61UXKNc1ExpzGomNWkctSQ1mqJjSuajJrZI8+pMYx5qFvmOBUjU2PmUe1aLQ4Z+87E6QrGmTjNY+p/8AHwv+7/U1uMuRWLqvFyv+7/jV0HeZhmsFHD2XkU4jh8iti3mWRfeseP734VKrFTkHFdFSHMePg8Q6OvQ1RxIamFZcM7GUbjkVpqa5pxse1hayqJtEqmpFNQing1i0elCViwpp4bvUCmnZxWbR1xqaFjfSbqg307dxS5TT2txWf3pufSoZJQtMFwenb2q1BnNPERTs2XFU9yBkZAzTW3qecj0zVRpGcDk9MUiytgKSSozgE9KORieKjsi6HbuaaxzyKrNOHIyMDHIHel89ACdp3eueKORh9Yi9LkxNOR6qi4ycMPxFPVucim49xRrpu8WWd2KXfxVfdx1pd/FTymqqkpbNRsaTdUZamkROpoIxphpSaaa0SOOUrjWpISuWJNI5wCazGmfcSGI5rWMOZHBWxKoyTaubLzoiZJrDu5TNMW7dqC7N1JNRSfe/CtqVNRZ5uOxsq8bbII/vfhUlRx/e/CpK1e5xU/hFBwc1qW8m9AayqtWkuDtP4VjUjdHfgqvJUs+pqA0oNRqc08GuVo+gjK5Kpp3WogeaeDUM6IvQDwKhkmKnFTEcVCyAnJpxt1M6vNb3Ss0uW9akRWI6UGNQ2amj24HOM1o3pocdOm3L3mR4YHpTWD1ekhKBSSDmozE2BjmoU0dM8NJaFUBvTNIdx7Va8pjSNEVHzcU+dEPDysUmJXsadHMc9akdQ2RTFjwa0umjlcZRloTK+akB4qJFxUgrNnZTbtqLmmE0pNNoQSYUh4pajc4pozk7Ir3T7YyO5rPqa5k3SY7Coa64KyPn8VU56noFRSfeqWo5PvVotzkqbCR/e/Cpaij+9+FS0PcKewUqttII7UlFSWnbU1IZd6g1OprKt5djYPQ1oo2RXNUhZnuYTEc8fMnBp4NRA04GsWj0YyJc0hXIpoNPFSbJ3IGQ0zkVb25pDED2qlIylQb1RB577dpZiB2zSGd855qyIlHanBFpc0exSo1Ho5FPzmBzznrTWkZ+pJq80SntUZgGelNTRMsPU2uVacqmp/KApMYp8xCotbjcYoJ4pTTTSKeghNJRTSaoybFJqrPLsWpWaqNzneK1hG7OHFVnGGhATmiiiug8UKjk+8PpUlRyfeH0qluRU+ESP734VLUUf3vwqWh7hT2EpaKKRYVbtpj901U71LbHEwHrUTV0bYebjUVjTVqkBzVflT7VIrVytHvQn0ZOtPFRK1SqazaOyDuSKKeFpq1KpyKzbO2nFMbs4oxipKQipuaOBGeaULTgOadwBTuJRK7DBqMipXPNRE4q0ctSw08VGxpxNRMa0SOScgzTGbFIzYpqjccnpVpHLKd9EKq5+Y1RuTmY1pY+WsuY/vm+ta0tWcWOXLBIjooorY8sKik+9+FS1FJ978KpEVNgT734VLUSdaloe4U9goooqSxKkhOJl+tR0+M/vF+tD2Kg7SRrAZGKjKlT7VIvSlIzXJex9C48yuNV6mVqrFcdKVXxQ43FCq4uzLyvUivg1SWSn781k4HdDEF3zAaPMqp5lHmVPIb/AFktBhSNJ6VXD0hejkE8RoPLZpjNTC9QvLWiiclSskh7PioWfNNJLUqpWqSRxSqSm9AVSTzUyjikUU+pbNKcLDWPBrJk5kb61qv0NZLcufrWtI4MwewlFFFbHmBUUn3qlqKT734VSIqbH//Z;base64,/9j/4AAQSkZJRgABAQAAAQABAAD/2wBDAAgGBgcGBQgHBwcJCQgKDBQNDAsLDBkSEw8UHRofHh0aHBwgJC4nICIsIxwcKDcpLDAxNDQ0Hyc5PTgyPC4zNDL/2wBDAQkJCQwLDBgNDRgyIRwhMjIyMjIyMjIyMjIyMjIyMjIyMjIyMjIyMjIyMjIyMjIyMjIyMjIyMjIyMjIyMjIyMjL/wAARCADgAOADASIAAhEBAxEB/8QAHwAAAQUBAQEBAQEAAAAAAAAAAAECAwQFBgcICQoL/8QAtRAAAgEDAwIEAwUFBAQAAAF9AQIDAAQRBRIhMUEGE1FhByJxFDKBkaEII0KxwRVS0fAkM2JyggkKFhcYGRolJicoKSo0NTY3ODk6Q0RFRkdISUpTVFVWV1hZWmNkZWZnaGlqc3R1dnd4eXqDhIWGh4iJipKTlJWWl5iZmqKjpKWmp6ipqrKztLW2t7i5usLDxMXGx8jJytLT1NXW19jZ2uHi4+Tl5ufo6erx8vP09fb3+Pn6/8QAHwEAAwEBAQEBAQEBAQAAAAAAAAECAwQFBgcICQoL/8QAtREAAgECBAQDBAcFBAQAAQJ3AAECAxEEBSExBhJBUQdhcRMiMoEIFEKRobHBCSMzUvAVYnLRChYkNOEl8RcYGRomJygpKjU2Nzg5OkNERUZHSElKU1RVVldYWVpjZGVmZ2hpanN0dXZ3eHl6goOEhYaHiImKkpOUlZaXmJmaoqOkpaanqKmqsrO0tba3uLm6wsPExcbHyMnK0tPU1dbX2Nna4uPk5ebn6Onq8vP09fb3+Pn6/9oADAMBAAIRAxEAPwDwKL7x+lT+1QxfeP0qUColuZy3Amjk0oX2oOBUkidKVc54pOO1SIpoYmW7VCce9asC8jA5qnaphV4xWnEuDXDWlqedXnqWEX/OKtInABqKNffNWkXjniuCbPMqSE2cUbCKmC+lBXnoeKy5jHmINnNKENSgA+op23I6jr+VHMHMVyhz0ppAznpVlhnAwMVCw5zmqTKUiLA/Glxjmngc9KMYPoDTuVcgI3daidBj61YYHPHWopc456/WrizSLMq4txyFPHpWTJGVYit6X5s1nXEW4H1613Up9z0aFRrRmW685qOrDgjIIqHbt612JnfFiYppzThilxuqiiOopfvD6VMRg1FL98fSqjuXHcIfvnPpUxIH1qGH75+lTe/4UpbiluIcnrQBnFBHIp4XmkJsAtWraMNnI6VXPyrWhZoQmT3NZVJWRjVlaJdhjG0cVdiXAquigYq3GMCvPmzyqkidAT0q0g4FVUbGKtxHA9q5ZnHUJug/oKUKKVcEcUuOfb1FY3Oa5G49MinLnHTJp+0HqKUL2BxSuHMROBjjoKgdfTr6VYwS5XGAO9I0ZwOOeuapOxUZWK20ikJx2yas+SSOgH9aY8W3nAqlJFqaK2SB0xioZckdasSAAdcHP4VXfntWsTaHcqupzzVWSLJ4q9JwuTxVdxXRFnVCTM+WAE8gZ9RxVSWEAdefWtRxVSZOCT0rphNnZTmzKIwcUA45qSdcNmouorrWqO1aoeRnBqtN98fSrA6EVBN98fSqjuXDcSH7/wCFTk4H0qCH75+lTYNEtwluCjJGamUVGBipUUk1DM5Cqu+RQa1oEwoqnFEAd7EDFSvdqBtTJ9xXPUvLRHLVvPRGkgGeSPrVtMY4INc+s7jJwWPfvipk1GdX+UswHvkVhKjJ7HNPDyexvxxl1BFWYo2B4B+tYEerXIGFGBjsBU0ep3bdGX2xwa55UJnLPDVPI6ePjG4n8acEAHb/ABrCTUppFGSSw/vVowzMyg46965J0pR3OKdCUdy8VHb6UEDuMmmI3v8Ah6UrNh+oHvWNjns7gevPfig7cj34xQxXP/1qrzMUbGfwqkrlRVy0Nm08ZqtNsZsZ/Wq73OwEsfm9c1k3N3I77gWAHTBranRbZ0UsPKTNc26ry7DFR7IM8Mpx1wawpby5Ckec3P5fjVMzzbtxlcH/AGWxXVHDSe7O2GEm95HQyxpyQc1Rk2HowrK82ZhnDt33E0F5G5Yn61tGg11N4Ydx6lxutQsoI5qMTyJ1AdfY5NS7lkXcpyP5VpZo15XEzLlSCfrVZetaNymUz6Vn4w1ddN3R20neI7oc1Xn/ANYPpViq8/8ArB9KuO5rDcIPvn6VKW5qCL7x+lTjrxTluVLcei5GTVuGPI3HOKZGhZQO1XokCoBXPUmclWdhsVuZn+fp2XtV9bKMc5I/HNMj+XoAKkMoAOTx71yylJvQ4pzk3oSJbR9wDjuRTZbO3k5AKv6rxUP2ok4jGfc9KdlyuWlUH2BNRaSd7kWmne4xrbbyr80xVYHml+bP+sz+lOww6n86u7NLvqyRGAbkVqWs42qO/wBazFGeCKcjmKTjpWU48yMKkFNWOgh5fgnGealcg/h2qlZTbjj1q7NHjnPWuCatKzPMmrSsxFcA4zVa5Khshv1qdUAQlj2rLu5sORV043loXSjzS0ILhgze1VTHup4O4kk0MwxXalbQ9GKcdERG338E4HqBzUkdpCp5XP1NNEmfujd9KBcBeqmqfNsW+fZFxUjA+6MU1hGR90VXF1GeNrD8M0ecrfdbPtUcrMuSXUjltUY5HX86pPA0L7kIHqOmav7xUUvzVtCTW50QlJaMpyDfE3X6VnMM1rFRtIFZxT5T9a6KbOulIr9qhn/1g+lTY71DP98fSumO51w3GxfeP0qdByKgj+9+FW4RueiYTdi7EBtA9BVxSOOKrxjKipxXFM8+epJvwKqz3CLy7cDtS3JIiIHWsvY7ucgk+9VTpp6sqlTT1ZZN63/LMBR6nk017+Vk2l2yO/Sr+m6cr/M2CeoqpMH03Uy7Qo4GSqyLlSCKpSg5OKWqLjKm5OMVqiBL2VTw5P8Avc1pW98HVRINhPQ9jWXazGCViI0kLIyYdc43AjI9xnI966y00yKLRYxd4jLDcSe2e1RiZQha6M8XOnTtdblQOAMdu1RvIGaoJDFFcMlvIXtyxCFiN2PcCngHIycmsuW2phypampZylGHNbM8oaNGTvWFAORWoD8g7Vw1ormuedXinJMmaTbbk4rBuXJY1qOxKEE1kTdTV0I2Zpho2bGo2Yy3YHFRs2clzhR6mmqx2lc45zTIRb3N4sdzKUhJIBzj5scE+2a60rXZ2qNrsgnv2CkQLhF/ixVBruRjkyv+BrqdQ02GfQfNslVmjPzBDniuVup/tEyv5SR7URNqDA+VQufqcZPvW2HlCa0R0YWcKifKtiSK7dRgEk9jmnrfMT+9H/Ah2qSANqOrNMsKxqzlyqDCr7VY1OyjQ7lGD1OO9U5Q5lFrVluUFNRa1YkVxu77h2NTbsisdd8TY6H2rShZnQEipnBLVEVKajqiQ9DVKQfKR75q6RxUDpgZPP8ASlB2FB2M1vlJFQTfeX6VanGHPGKqS/fH0rshqd9PXUSP7x+lX7RcnPpVGEbnx7Vp2y4Vqmq9CKz0LkQ6j0qUjFMjXHNSbcmuJvU8+T1ImTeOapywNvyOK1liyKPIz1FEalgjW5WULeS5gOUbFWZZp71As6o4HPKVN5OBwKkSFse1TKcb3tqTKpFvmtqZ6WiRPuUFW65HapXQPzIzN9WzV5oDjtVd0C8dTS9pzMSq8zuVwqKcbQP61YhjO7caI4OdzVYVcUpSJnPsSREbhV4sdozmqKDmrO/5RiueauzkqK7FL5BFZ0nLmrm7B5qpIuWNVBWNKasyrImDkUzCSH51GRVhhxUbRbvmXqK6FI6YyGrEqcozL9DioXsomfdtyevNWI13Ng8GrKwnr+tHO49Ruo4vcpxTz2kZjhRFB7hOTVSd7iViXPNazIwGCtRNAW5Ipxmk72CFSKd7GVFCxkycmryoFFTrAB0FKUwKcqnMVKrzMhIyKhYZFWD0xUDURCLM67X5s1Qk+8PpWpdrnbis2ddsgHtXbSeh6FF3Q+zXdMQBn5a07cY3CqWljNxJ/wBcz/MVegyHYH1rOs9WjOu9Wi4vSpkWok6VYTpXHI8+bJVGQKdt4pBxT6xbMGxBwKDKFHSlx29aTygTS06i06kbSu/C8ChYsfMeTUu0Cgn2p37D5uiI8U48Clb5U3Gq4kZ346U1qNK5Jv5xUykiiGIbgSKnZAGGR1qJSWxnKSvYixk+1V5RhqvbAp9RVO4GWOOBTg9R03dkHWhRg1EWKt7VY27kDCtXobvQRow3I60IzR8EZFORucVLtBqW+jIcraMasuTQWzS7ADmjHvU6E6CbRio3HFSHio2poaK7jmoG5qw/FQN1reJ0xKsylmArNvQVmAIOdvf6mtGYnzBjtVDUGLTIT12D+Zrrpbo7qF7odprbZ5D/ANMz/MVeRv3ufWqGnJvncf7B/mKtglJAD60VFeTFVSc2aMZqylU4jzVpDXFNHBNFhTzUqmq6tipQf1rFo55IkGMZpw56UwjIx61LGoHHQCoZk9BjKep6UKAetWCuahkVl6ZpJ3EpX0ILo7tsa9+TSQW/OcdKY77ZueKSe7mjUCGMMx9elapO1kbJSsoxLscqxycgcHvWk8kLwqQoz3zXMxzXgkzLCmPUGtBLr92MGsqlHVMyq4d3TNISwohLrk44rLd0klIAwDTJbkBCSevas9prwsTFGgHqeaulR6l0aD1Zcmg2rnt2pIH2IVPSmRzyvERPtyPSkT5ycCtLO1mbWdrSJMc5HerCKcU2GJsZIqfGF+lZyl0MZS6ETjFMzUjComoQIQnmon4709jUTGtEjWKImPaoWPJp7HmonOAa2ijoiis/LE/hWfenMy/7v9TV9mDAKoJNUL1Skq56lc/qa66W520fiJNM/wCPh8f3D/MVqmFZIN2cMKyNPYLcEE43Lj9RW0pyhQelZ17qRnibqd0MiPINXE9KpRdx6GrKNXPNHLUROp6+tSo2TUINPQ81k0YSRbXAP0qRCKrqfWnKx3fSsWjBxLqEk+3pTZSB2qNXxTHbcetQo6majqRzQLIvPGe+az5IJYz8shxWgxNR9etbQk0dEJOJBBHI5AJOKuG0AXIPXrRGFyKmdgV61MptvQic23oQSWYC5JycVnyRurEA1stgqMnpVOQKWPOadOb6lUqj6lGK3dzl3JFXo0VOAOKjJx0pwOR1q5NsucnIuKwHFDnHSq6SdqkLjbnPNY8tmc7jZjJCKgc8U9jk1GxHStIo2iiNjUTNTnPNRk8VskbxQxuKgfLDaO/FSsaSPmdc9BzWi01NlpqPjtkhQliCax9U/wCPlP8AcH8zW+y5PNYWsf8AH2mP+eY/ma0w7vPU0wsm6mpTiJ35HUVtW06uuf4u4rFh5c/SpwSDkEg+1dFWHMdVaCnoayHEhB781Oo4rKgnfz13tkdK1UORXJUi4nFVg4kqmpFPNQinqelYtHO0WAcd6UN3qINzinE1FjNosB8jFKOmarhsdak3cVDiZuIjuBkk4qJpOmO9QTziM88mqpvGJIPCnqB/jW0abaOiFFtXNRFfI3FQWGVBYAkVHK80JAfcvpuHX6VmSzPLtyzYAAGe1NFw+wRsxdFztVicLn0qlSZaoPdmqt07cE57DFJ5mTkc1nSXYlYAx7VAwQp6n1qRb2IIxMTCU87g2B37Yo9k10F7FrZF1myKdG2eM1npfbjiQD6irEbjORScGtxSptKzLWSKXfgVEWwoOaQvxUcpnyku7NRueaYG5ppPHWmolKI1jzTGpSaQnvWiNUiNqISCzknnoKRyACTWU00hdirkAntWsIcyNoU3NM3HnSNMuwAArn72Yz3JftjA+lKWZzlmJ+pqGXhx9K3pUlB3OmhRVN36hD98/Sp6gh++fpU9aS3NZ7hnnI6ite3kEkat61kYq3ZS7WKH6isasbowrRvE1QcUuajBzTwa5GjgaJFNO6mohwalU8VDIaFPTOarS3BTIzirJ6VXkiBOTTja+o4WvqZ0suXPJJNIu484qSSEBye1OTYcAnBPGenauq6todl1bQjJYE4AxUTFuCCK0LiyeFUZmU78n3qE2r4BHOfQUozjuKNSLVyqCfrRkntVgWzk9Me5p5tHjXMg2g4AJp86H7SJTbgZINTwT7T1yKayg5Ap0UWSQRQ2mtRyaa1LqSl/pUuflqGJdoA7VNniud76HJK19BgppNKab3oQ0FIeBS9qY5qkUkVbuTbCfU8Cs4VPdyb5cdlqDtXXTVonfSjyxFNQzffH0qaoZvvj6VpHc1juEP3z9KnqCH75+lT0S3FPcDSqSrBh1FJRSJNaGUOgI71ODWRbymN8E/Ka01bIrkqQsziq0+VkwNSKeahBp4PFYtGDRNmmsuRTQacOuanYi1ivJESKrNCR71p4DUGIHsKtVLGkatjLMs/liMu5QdFJyB+FN8ybcT8xPvWr5Sr0UUoVenH5VXtV2K9suxjl5d275gc5z70HzZcbmJA7E1smJe4phgXPSn7ZdhquuxnLFjHrViOPBqx5QU9KQripc7kupcYTijdxQwNJ0pCGk80dOaCeaaTiqKAtiq1xN5aZ7npUrNVC6J80A+laU43ZtThd6lfryetHaig11HWFQzffH0qaoZvvj6VUdy47hD98/Sp6gh++fpU9KW4p7hRRRSJEq7aTn7jdulU6lteLhfQ8VM1dEzScXc1VOaeKhIMZ9VNPRga42jhaJ1pwyajU1IhwahmTRIgzUyx1Ep5qxGcispMxk2MMYxmmY2npxU56cdaYwzSTJTI+tPCUDr6U/jHNDY2yBwM1EwxUkjDNRMeKtGkbjc8UxulBNMY1okapDSeaazYpGYCmqpY5PStEjRLuORc/O34VnXTZuG9q1f4ayJ+Z3+taUtWbUNZMjzRS0neug6QNQzffH0qY1DN98fSnHcqO4Q/fP0qaoYfvn6VNRLcJbi0UUUiQp8BxOh96ZToziRT7ik9hPY2eCMGoipQ5HIqRelOYVxXscF7DEfipVfmq7Lg5FAfHWm43BxuXlepUlwaorJUhbPQ1m4GTgXvMBGaTf+FVBIcdaXf71HIZ+zLW8ZyaY8uenSoN49c0hYetNRGoDicmmMaaXGc5qF5h61aiaxi2PZ6haT0phZm6dKVUrVJI2UUtwVSx5qdRxTVFSdqlsmTGt92saQ5mf6mthvu1jMcsx962o9TfD9RKKSlrc6QqGb74+lS1FL94fSqjuVHc/9k=;" vertex="1" parent="ZQFW1FxyH6ks3i3n7b6g-319">
                    <mxGeometry y="448" width="224" height="224" as="geometry"/>
                </mxCell>
                <mxCell id="ZQFW1FxyH6ks3i3n7b6g-317" value="" style="shape=image;imageAspect=0;aspect=fixed;verticalLabelPosition=bottom;verticalAlign=top;image=data:image/jpeg,/9j/4AAQSkZJRgABAQAAAQABAAD/2wBDAAgGBgcGBQgHBwcJCQgKDBQNDAsLDBkSEw8UHRofHh0aHBwgJC4nICIsIxwcKDcpLDAxNDQ0Hyc5PTgyPC4zNDL/2wBDAQkJCQwLDBgNDRgyIRwhMjIyMjIyMjIyMjIyMjIyMjIyMjIyMjIyMjIyMjIyMjIyMjIyMjIyMjIyMjIyMjIyMjL/wAARCADgAOADASIAAhEBAxEB/8QAHwAAAQUBAQEBAQEAAAAAAAAAAAECAwQFBgcICQoL/8QAtRAAAgEDAwIEAwUFBAQAAAF9AQIDAAQRBRIhMUEGE1FhByJxFDKBkaEII0KxwRVS0fAkM2JyggkKFhcYGRolJicoKSo0NTY3ODk6Q0RFRkdISUpTVFVWV1hZWmNkZWZnaGlqc3R1dnd4eXqDhIWGh4iJipKTlJWWl5iZmqKjpKWmp6ipqrKztLW2t7i5usLDxMXGx8jJytLT1NXW19jZ2uHi4+Tl5ufo6erx8vP09fb3+Pn6/8QAHwEAAwEBAQEBAQEBAQAAAAAAAAECAwQFBgcICQoL/8QAtREAAgECBAQDBAcFBAQAAQJ3AAECAxEEBSExBhJBUQdhcRMiMoEIFEKRobHBCSMzUvAVYnLRChYkNOEl8RcYGRomJygpKjU2Nzg5OkNERUZHSElKU1RVVldYWVpjZGVmZ2hpanN0dXZ3eHl6goOEhYaHiImKkpOUlZaXmJmaoqOkpaanqKmqsrO0tba3uLm6wsPExcbHyMnK0tPU1dbX2Nna4uPk5ebn6Onq8vP09fb3+Pn6/9oADAMBAAIRAxEAPwDwKL7x+lT+1QxfeP0qUColuZy3Amjk0oX2oOBUkidKVc54pOO1SIpoYmW7VCce9asC8jA5qnaphV4xWnEuDXDWlqedXnqWEX/OKtInABqKNffNWkXjniuCbPMqSE2cUbCKmC+lBXnoeKy5jHmINnNKENSgA+op23I6jr+VHMHMVyhz0ppAznpVlhnAwMVCw5zmqTKUiLA/Glxjmngc9KMYPoDTuVcgI3daidBj61YYHPHWopc456/WrizSLMq4txyFPHpWTJGVYit6X5s1nXEW4H1613Up9z0aFRrRmW685qOrDgjIIqHbt612JnfFiYppzThilxuqiiOopfvD6VMRg1FL98fSqjuXHcIfvnPpUxIH1qGH75+lTe/4UpbiluIcnrQBnFBHIp4XmkJsAtWraMNnI6VXPyrWhZoQmT3NZVJWRjVlaJdhjG0cVdiXAquigYq3GMCvPmzyqkidAT0q0g4FVUbGKtxHA9q5ZnHUJug/oKUKKVcEcUuOfb1FY3Oa5G49MinLnHTJp+0HqKUL2BxSuHMROBjjoKgdfTr6VYwS5XGAO9I0ZwOOeuapOxUZWK20ikJx2yas+SSOgH9aY8W3nAqlJFqaK2SB0xioZckdasSAAdcHP4VXfntWsTaHcqupzzVWSLJ4q9JwuTxVdxXRFnVCTM+WAE8gZ9RxVSWEAdefWtRxVSZOCT0rphNnZTmzKIwcUA45qSdcNmouorrWqO1aoeRnBqtN98fSrA6EVBN98fSqjuXDcSH7/wCFTk4H0qCH75+lTYNEtwluCjJGamUVGBipUUk1DM5Cqu+RQa1oEwoqnFEAd7EDFSvdqBtTJ9xXPUvLRHLVvPRGkgGeSPrVtMY4INc+s7jJwWPfvipk1GdX+UswHvkVhKjJ7HNPDyexvxxl1BFWYo2B4B+tYEerXIGFGBjsBU0ep3bdGX2xwa55UJnLPDVPI6ePjG4n8acEAHb/ABrCTUppFGSSw/vVowzMyg46965J0pR3OKdCUdy8VHb6UEDuMmmI3v8Ah6UrNh+oHvWNjns7gevPfig7cj34xQxXP/1qrzMUbGfwqkrlRVy0Nm08ZqtNsZsZ/Wq73OwEsfm9c1k3N3I77gWAHTBranRbZ0UsPKTNc26ry7DFR7IM8Mpx1wawpby5Ckec3P5fjVMzzbtxlcH/AGWxXVHDSe7O2GEm95HQyxpyQc1Rk2HowrK82ZhnDt33E0F5G5Yn61tGg11N4Ydx6lxutQsoI5qMTyJ1AdfY5NS7lkXcpyP5VpZo15XEzLlSCfrVZetaNymUz6Vn4w1ddN3R20neI7oc1Xn/ANYPpViq8/8ArB9KuO5rDcIPvn6VKW5qCL7x+lTjrxTluVLcei5GTVuGPI3HOKZGhZQO1XokCoBXPUmclWdhsVuZn+fp2XtV9bKMc5I/HNMj+XoAKkMoAOTx71yylJvQ4pzk3oSJbR9wDjuRTZbO3k5AKv6rxUP2ok4jGfc9KdlyuWlUH2BNRaSd7kWmne4xrbbyr80xVYHml+bP+sz+lOww6n86u7NLvqyRGAbkVqWs42qO/wBazFGeCKcjmKTjpWU48yMKkFNWOgh5fgnGealcg/h2qlZTbjj1q7NHjnPWuCatKzPMmrSsxFcA4zVa5Khshv1qdUAQlj2rLu5sORV043loXSjzS0ILhgze1VTHup4O4kk0MwxXalbQ9GKcdERG338E4HqBzUkdpCp5XP1NNEmfujd9KBcBeqmqfNsW+fZFxUjA+6MU1hGR90VXF1GeNrD8M0ecrfdbPtUcrMuSXUjltUY5HX86pPA0L7kIHqOmav7xUUvzVtCTW50QlJaMpyDfE3X6VnMM1rFRtIFZxT5T9a6KbOulIr9qhn/1g+lTY71DP98fSumO51w3GxfeP0qdByKgj+9+FW4RueiYTdi7EBtA9BVxSOOKrxjKipxXFM8+epJvwKqz3CLy7cDtS3JIiIHWsvY7ucgk+9VTpp6sqlTT1ZZN63/LMBR6nk017+Vk2l2yO/Sr+m6cr/M2CeoqpMH03Uy7Qo4GSqyLlSCKpSg5OKWqLjKm5OMVqiBL2VTw5P8Avc1pW98HVRINhPQ9jWXazGCViI0kLIyYdc43AjI9xnI966y00yKLRYxd4jLDcSe2e1RiZQha6M8XOnTtdblQOAMdu1RvIGaoJDFFcMlvIXtyxCFiN2PcCngHIycmsuW2phypampZylGHNbM8oaNGTvWFAORWoD8g7Vw1ormuedXinJMmaTbbk4rBuXJY1qOxKEE1kTdTV0I2Zpho2bGo2Yy3YHFRs2clzhR6mmqx2lc45zTIRb3N4sdzKUhJIBzj5scE+2a60rXZ2qNrsgnv2CkQLhF/ixVBruRjkyv+BrqdQ02GfQfNslVmjPzBDniuVup/tEyv5SR7URNqDA+VQufqcZPvW2HlCa0R0YWcKifKtiSK7dRgEk9jmnrfMT+9H/Ah2qSANqOrNMsKxqzlyqDCr7VY1OyjQ7lGD1OO9U5Q5lFrVluUFNRa1YkVxu77h2NTbsisdd8TY6H2rShZnQEipnBLVEVKajqiQ9DVKQfKR75q6RxUDpgZPP8ASlB2FB2M1vlJFQTfeX6VanGHPGKqS/fH0rshqd9PXUSP7x+lX7RcnPpVGEbnx7Vp2y4Vqmq9CKz0LkQ6j0qUjFMjXHNSbcmuJvU8+T1ImTeOapywNvyOK1liyKPIz1FEalgjW5WULeS5gOUbFWZZp71As6o4HPKVN5OBwKkSFse1TKcb3tqTKpFvmtqZ6WiRPuUFW65HapXQPzIzN9WzV5oDjtVd0C8dTS9pzMSq8zuVwqKcbQP61YhjO7caI4OdzVYVcUpSJnPsSREbhV4sdozmqKDmrO/5RiueauzkqK7FL5BFZ0nLmrm7B5qpIuWNVBWNKasyrImDkUzCSH51GRVhhxUbRbvmXqK6FI6YyGrEqcozL9DioXsomfdtyevNWI13Ng8GrKwnr+tHO49Ruo4vcpxTz2kZjhRFB7hOTVSd7iViXPNazIwGCtRNAW5Ipxmk72CFSKd7GVFCxkycmryoFFTrAB0FKUwKcqnMVKrzMhIyKhYZFWD0xUDURCLM67X5s1Qk+8PpWpdrnbis2ddsgHtXbSeh6FF3Q+zXdMQBn5a07cY3CqWljNxJ/wBcz/MVegyHYH1rOs9WjOu9Wi4vSpkWok6VYTpXHI8+bJVGQKdt4pBxT6xbMGxBwKDKFHSlx29aTygTS06i06kbSu/C8ChYsfMeTUu0Cgn2p37D5uiI8U48Clb5U3Gq4kZ346U1qNK5Jv5xUykiiGIbgSKnZAGGR1qJSWxnKSvYixk+1V5RhqvbAp9RVO4GWOOBTg9R03dkHWhRg1EWKt7VY27kDCtXobvQRow3I60IzR8EZFORucVLtBqW+jIcraMasuTQWzS7ADmjHvU6E6CbRio3HFSHio2poaK7jmoG5qw/FQN1reJ0xKsylmArNvQVmAIOdvf6mtGYnzBjtVDUGLTIT12D+Zrrpbo7qF7odprbZ5D/ANMz/MVeRv3ufWqGnJvncf7B/mKtglJAD60VFeTFVSc2aMZqylU4jzVpDXFNHBNFhTzUqmq6tipQf1rFo55IkGMZpw56UwjIx61LGoHHQCoZk9BjKep6UKAetWCuahkVl6ZpJ3EpX0ILo7tsa9+TSQW/OcdKY77ZueKSe7mjUCGMMx9elapO1kbJSsoxLscqxycgcHvWk8kLwqQoz3zXMxzXgkzLCmPUGtBLr92MGsqlHVMyq4d3TNISwohLrk44rLd0klIAwDTJbkBCSevas9prwsTFGgHqeaulR6l0aD1Zcmg2rnt2pIH2IVPSmRzyvERPtyPSkT5ycCtLO1mbWdrSJMc5HerCKcU2GJsZIqfGF+lZyl0MZS6ETjFMzUjComoQIQnmon4709jUTGtEjWKImPaoWPJp7HmonOAa2ijoiis/LE/hWfenMy/7v9TV9mDAKoJNUL1Skq56lc/qa66W520fiJNM/wCPh8f3D/MVqmFZIN2cMKyNPYLcEE43Lj9RW0pyhQelZ17qRnibqd0MiPINXE9KpRdx6GrKNXPNHLUROp6+tSo2TUINPQ81k0YSRbXAP0qRCKrqfWnKx3fSsWjBxLqEk+3pTZSB2qNXxTHbcetQo6majqRzQLIvPGe+az5IJYz8shxWgxNR9etbQk0dEJOJBBHI5AJOKuG0AXIPXrRGFyKmdgV61MptvQic23oQSWYC5JycVnyRurEA1stgqMnpVOQKWPOadOb6lUqj6lGK3dzl3JFXo0VOAOKjJx0pwOR1q5NsucnIuKwHFDnHSq6SdqkLjbnPNY8tmc7jZjJCKgc8U9jk1GxHStIo2iiNjUTNTnPNRk8VskbxQxuKgfLDaO/FSsaSPmdc9BzWi01NlpqPjtkhQliCax9U/wCPlP8AcH8zW+y5PNYWsf8AH2mP+eY/ma0w7vPU0wsm6mpTiJ35HUVtW06uuf4u4rFh5c/SpwSDkEg+1dFWHMdVaCnoayHEhB781Oo4rKgnfz13tkdK1UORXJUi4nFVg4kqmpFPNQinqelYtHO0WAcd6UN3qINzinE1FjNosB8jFKOmarhsdak3cVDiZuIjuBkk4qJpOmO9QTziM88mqpvGJIPCnqB/jW0abaOiFFtXNRFfI3FQWGVBYAkVHK80JAfcvpuHX6VmSzPLtyzYAAGe1NFw+wRsxdFztVicLn0qlSZaoPdmqt07cE57DFJ5mTkc1nSXYlYAx7VAwQp6n1qRb2IIxMTCU87g2B37Yo9k10F7FrZF1myKdG2eM1npfbjiQD6irEbjORScGtxSptKzLWSKXfgVEWwoOaQvxUcpnyku7NRueaYG5ppPHWmolKI1jzTGpSaQnvWiNUiNqISCzknnoKRyACTWU00hdirkAntWsIcyNoU3NM3HnSNMuwAArn72Yz3JftjA+lKWZzlmJ+pqGXhx9K3pUlB3OmhRVN36hD98/Sp6gh++fpU9aS3NZ7hnnI6ite3kEkat61kYq3ZS7WKH6isasbowrRvE1QcUuajBzTwa5GjgaJFNO6mohwalU8VDIaFPTOarS3BTIzirJ6VXkiBOTTja+o4WvqZ0suXPJJNIu484qSSEBye1OTYcAnBPGenauq6todl1bQjJYE4AxUTFuCCK0LiyeFUZmU78n3qE2r4BHOfQUozjuKNSLVyqCfrRkntVgWzk9Me5p5tHjXMg2g4AJp86H7SJTbgZINTwT7T1yKayg5Ap0UWSQRQ2mtRyaa1LqSl/pUuflqGJdoA7VNniud76HJK19BgppNKab3oQ0FIeBS9qY5qkUkVbuTbCfU8Cs4VPdyb5cdlqDtXXTVonfSjyxFNQzffH0qaoZvvj6VpHc1juEP3z9KnqCH75+lT0S3FPcDSqSrBh1FJRSJNaGUOgI71ODWRbymN8E/Ka01bIrkqQsziq0+VkwNSKeahBp4PFYtGDRNmmsuRTQacOuanYi1ivJESKrNCR71p4DUGIHsKtVLGkatjLMs/liMu5QdFJyB+FN8ybcT8xPvWr5Sr0UUoVenH5VXtV2K9suxjl5d275gc5z70HzZcbmJA7E1smJe4phgXPSn7ZdhquuxnLFjHrViOPBqx5QU9KQripc7kupcYTijdxQwNJ0pCGk80dOaCeaaTiqKAtiq1xN5aZ7npUrNVC6J80A+laU43ZtThd6lfryetHaig11HWFQzffH0qaoZvvj6VUdy47hD98/Sp6gh++fpU9KW4p7hRRRSJEq7aTn7jdulU6lteLhfQ8VM1dEzScXc1VOaeKhIMZ9VNPRga42jhaJ1pwyajU1IhwahmTRIgzUyx1Ep5qxGcispMxk2MMYxmmY2npxU56cdaYwzSTJTI+tPCUDr6U/jHNDY2yBwM1EwxUkjDNRMeKtGkbjc8UxulBNMY1okapDSeaazYpGYCmqpY5PStEjRLuORc/O34VnXTZuG9q1f4ayJ+Z3+taUtWbUNZMjzRS0neug6QNQzffH0qY1DN98fSnHcqO4Q/fP0qaoYfvn6VNRLcJbi0UUUiQp8BxOh96ZToziRT7ik9hPY2eCMGoipQ5HIqRelOYVxXscF7DEfipVfmq7Lg5FAfHWm43BxuXlepUlwaorJUhbPQ1m4GTgXvMBGaTf+FVBIcdaXf71HIZ+zLW8ZyaY8uenSoN49c0hYetNRGoDicmmMaaXGc5qF5h61aiaxi2PZ6haT0phZm6dKVUrVJI2UUtwVSx5qdRxTVFSdqlsmTGt92saQ5mf6mthvu1jMcsx962o9TfD9RKKSlrc6QqGb74+lS1FL94fSqjuVHc/9k=;" vertex="1" parent="ZQFW1FxyH6ks3i3n7b6g-319">
                    <mxGeometry y="224" width="224" height="224" as="geometry"/>
                </mxCell>
                <mxCell id="ZQFW1FxyH6ks3i3n7b6g-318" value="" style="shape=image;imageAspect=0;aspect=fixed;verticalLabelPosition=bottom;verticalAlign=top;image=data:image/jpeg,/9j/4AAQSkZJRgABAQAAAQABAAD/2wBDAAgGBgcGBQgHBwcJCQgKDBQNDAsLDBkSEw8UHRofHh0aHBwgJC4nICIsIxwcKDcpLDAxNDQ0Hyc5PTgyPC4zNDL/2wBDAQkJCQwLDBgNDRgyIRwhMjIyMjIyMjIyMjIyMjIyMjIyMjIyMjIyMjIyMjIyMjIyMjIyMjIyMjIyMjIyMjIyMjL/wAARCADgAOADASIAAhEBAxEB/8QAHwAAAQUBAQEBAQEAAAAAAAAAAAECAwQFBgcICQoL/8QAtRAAAgEDAwIEAwUFBAQAAAF9AQIDAAQRBRIhMUEGE1FhByJxFDKBkaEII0KxwRVS0fAkM2JyggkKFhcYGRolJicoKSo0NTY3ODk6Q0RFRkdISUpTVFVWV1hZWmNkZWZnaGlqc3R1dnd4eXqDhIWGh4iJipKTlJWWl5iZmqKjpKWmp6ipqrKztLW2t7i5usLDxMXGx8jJytLT1NXW19jZ2uHi4+Tl5ufo6erx8vP09fb3+Pn6/8QAHwEAAwEBAQEBAQEBAQAAAAAAAAECAwQFBgcICQoL/8QAtREAAgECBAQDBAcFBAQAAQJ3AAECAxEEBSExBhJBUQdhcRMiMoEIFEKRobHBCSMzUvAVYnLRChYkNOEl8RcYGRomJygpKjU2Nzg5OkNERUZHSElKU1RVVldYWVpjZGVmZ2hpanN0dXZ3eHl6goOEhYaHiImKkpOUlZaXmJmaoqOkpaanqKmqsrO0tba3uLm6wsPExcbHyMnK0tPU1dbX2Nna4uPk5ebn6Onq8vP09fb3+Pn6/9oADAMBAAIRAxEAPwDwKP71S1FH96pcVD3Oin8IlHNKBQaRdgpR1pKei5oZUVdlm3QnFaUK9OKq26YArQjGDXHVkfR4GjZInRasKtRIPerCCuOTPpKEBdtG2ngUuKzudnIR45pQtOwDS0rjUCMimEc5qYioyOc5qkzOcRlLilFGKdzNRIyM1G61MetRv0561SZjUjoZ08Oc4rMlj2k1tSDNUJ4859a66Uz53HYdPVGawqOrDr1BFRFcV1pnz9SFmNxSGnCjGaZnYZUUnWpiKik+9VoxqLQIvvH6VNUMf3vwqb3pS3KpfCNJpQKKcBzSLSuwC1ZgTOc1DjAq7bJ8v1rOb0OzDU7zsWokGKtxrioUWrSLXDNn1OGp2JEBqyg4qupqzGa55HsULEnajFKMYorI7rDTQKdj1oxQKzGH2pjCpMHcRjigrVJkSjci20VJtOO1IVxTuQ4NENRvUrYFRNVo5qi0sV3BNV5I8mrjjAzUDVtFnmVqae5QkhB7DNVZIsVpOKrSp1NdEJHjYmgtWjMbg0makmXBzUfUV1LVHhyXLKwpqCT734VOOlQy/e/CnHcyrfCJF96pj0qGP71TYpy3FS+EB1qRRTAKlQZqGdFNDlXc4FaMSYUVVjQD5iaka4AGFzWE7y0R6uHUaS5pF9CPWrCsMcEVjCZhzyaeLyRTwSaxlSbPRpZhCO6NtRu6VPGMdKw0v5cccVKl9Me4/lWUqMj0KWZUfM319zS4HtWSl67gZJz71djlJANc8qbW57FHGU6nwlrFJSKaXPNZnZdMTvS8UhIzUcjbT1ppXIlLlVyX5cVG5Xpmq73G0EnrWfPcuzZBOPatIUm2cOIx0II0yAOrCoiY88EVkPczY++arGaXdnefwOK6I0H3PJq5tBaKJuOV5warMynoRWYJJCOjH3pdznqTWio26nHPMVPaJcYVCwz1qMTMnX5h7GpN4cZBqrNGLqRntuZ9wpGarjrV+4TK1RIwa6oO6PDxMOWYVDL94fSp6gm+8PpVx3OOt8IRfe/CpSahj+9Uo605bipP3bEiLnmrMScZpkaZAq3GuABWE5Hq4ajfURITI3PT0qytqv0oQYqXeAOtc8pPoevRo00ryQLbr3pslpE3PQ+opPPPRRRliOXAqfe7mz9i1bluRtbY6GmhCDUnzf380YYd6q7MeSN7pDk+U81egk4FVF5HNKrFGrOSudlCbpu5qxHJqbNVLZ9xq2y471ySVmfQUJc0LoTPPWq8xAPWp8fLzVG4fDGnBXZniZ8sNSCY7jVcx5qTOTk0rMMV1LQ8Kdpu7IDBu4qRLVB1GfrSeZ6c/SlE2Ooqm5GUY0k7tEwjQDoKRkQjpTBcIeMEUeYp6Goszo56bWliN7dT0qq0RjbK4q5uqOTmtYyZxVqUGrpalaQbkNUGHNaRHymqLLwa3ps8rFwvYr1FN94fSpsVDL94fSt47nkVfhEj+9UyDLVDH96rMIy9OQUFeyLcY4FWl7VDGvFTgVxyZ9DQjZDtwAqtNcKvU06ckIcVm7GdznP41VOCerMsXiZQ92KJ2vGP3Rgevemtdylcbzmp7e0B5JzUEgNrdZKBvQMODWi5W7JHJP28YKc5WTGrdyL/ABE/Wr0F4HADjGfyNZ0LbGPyq2VK4Iz1GK2be0VLJRL8pPOTU1eVbo2y/wBvUb5ZbdyRWA+lNZ8nioPlSQqjFo84XJ5qQA555rDlseoqrloaFs+CK0mbKgisuBeRWgB8orkqpXPosFOSg0OZsRmsqduTWi/KmsyYcmnSWplj5NxRGrfKT6VG7924FJngjPeo1EcswWR9qdOuOe2faupLqeDOo7JIgmvDg+WMAd6qNcuf42/Ota6tI3sN0ABK9cc1jzP5jhtoXChcAegx/Suik4yWiPKx8a1Jrmlv22/pEiXTrxkk1It6xPzj8RTYgbm8LhAoJ3EAcCprm3A5UYNN8t7NGdNV3BzjLRfiTxT7h1z71JuzWUu6Nq0ImLIM1nOFtUdmHxLqe7LceelVXHGKtkcVCyYpRdi60Loz2GDVeX7w+lW7gYeqkn3q6oHgYhWuhE+9V21X5qqRDL1oW64zSqPQ0wUbyTLUYqbHFMQVLjmuNs+kpR0ImTIqpLC27IrTCZFIYQe1EalhVcJ7RFCLzk5BqVw84xIoP4Va8nHanrGaHUW44YSVuVt2KCWio2QMH2qUxg/eJP1NWzGcVCyY+tLnbK+qxpqyRAAAeBVmKPJyaI4MHJqyq4FTOfY2oYd3ux8YwRVzPy81UTrVkHiuaZ7eHdkwJyMVRlGWNXCcVUkHNVAyxWqKkiVAVVj8w5q8wyKheHPI610RkeNVo31RCIgPukj8ahezVmzjJq0i5ODxUyoafO0ZrDRqKzRRTfCpVFAH0qGQysea02T2phhz1FNVFuRPCSa5U9DOihJbJq4qYFTLBjtTjHgUSqXKo4T2aIscVCwqwRxUTCkmOpHQzroc1QfrWncrnFZ0ww34V2UnofN46FpNj7Rd0pGO1aMIwSKqaaMzt/u/4Vcj4kIqKr1aOnAwtTjLzLSCp0WoY6sJXJI+hoq5IoyKcEoWpBWTZ6MYJojxSE4HSpNtHl5NK4+R9CE7m4HSlWLHJqbaBQafN2F7JbsjxS9BStwMmotxZqNxNqOhIDg1OucU2FOeasED0rOTOujTdrkWM1XlGDV3AFVJxkmiD1FiIWiQdaAOaYcg1KBlQa2Z561Y1og3I60gDJUqmpMA0uaxoqSeq3IQc07GafsANLjFTc0VNrcYFpjjipSajY00TNKxXYVC1TvVdutbRPNrFaVdzAVnXg2yge1aL8yCqOoHM6/7tdVLc8DHJezb8x2mnEzf7v8AhV3P7yqOnjM7D/Zq252vRU+MrBu1BepciqylVIjVlK5Zo97Dy0J161KpqAGpQaxaPSpyJRilFM68VKorNnVHUYwxTOKsFc1C6lelCYVINakUp3EKKckWOajJw/NNmnkUDYoJrSzeiORzim5SLSSBW+lXA6Mg4FYKy3O/50GParqT4TrUzpG+Fxy1TX3l8yIAciqTuGcio5Lj5apM9wW+RQB706dIzxWOWiSv6F14+M0xG2gg02KRyn7zGaB8xOKu3RnPzp2lEkzzkVMg4pscZPWpsYFZyZ10oPdjDTSac1Rk0Ic3YQmomNPY1CzVcUclSQxzUDmnseahc1tFHm1pEX8RNUL45lH0q/nIwOtUL4ETLn+7XTS+I8XG/wAEdpwzO3+7WmY1eEnPIrKsHCz89xitcdCvqKmtfmNst5ZUbPzI4jjFW0NU09Kso1YzR6WHlYnB61KhqAGpFPNYtHo05FlTUimoFNPVuayaO+EyytNfFNDYppbJqEjolNWsMkiDiqkkLqeGOKuFsVGxzWsW0cVenCXqQRqxODU5gGM0IoqQnihyd9BU6UVH3iJrcAZquysDgVeJyKgYDNOMn1JrUo/ZIY4WY/MeKtKgXiow2KfnNEm2OlGEdtydCBSsahV+1OLcVnbU61UXKNc1ExpzGomNWkctSQ1mqJjSuajJrZI8+pMYx5qFvmOBUjU2PmUe1aLQ4Z+87E6QrGmTjNY+p/8AHwv+7/U1uMuRWLqvFyv+7/jV0HeZhmsFHD2XkU4jh8iti3mWRfeseP734VKrFTkHFdFSHMePg8Q6OvQ1RxIamFZcM7GUbjkVpqa5pxse1hayqJtEqmpFNQing1i0elCViwpp4bvUCmnZxWbR1xqaFjfSbqg307dxS5TT2txWf3pufSoZJQtMFwenb2q1BnNPERTs2XFU9yBkZAzTW3qecj0zVRpGcDk9MUiytgKSSozgE9KORieKjsi6HbuaaxzyKrNOHIyMDHIHel89ACdp3eueKORh9Yi9LkxNOR6qi4ycMPxFPVucim49xRrpu8WWd2KXfxVfdx1pd/FTymqqkpbNRsaTdUZamkROpoIxphpSaaa0SOOUrjWpISuWJNI5wCazGmfcSGI5rWMOZHBWxKoyTaubLzoiZJrDu5TNMW7dqC7N1JNRSfe/CtqVNRZ5uOxsq8bbII/vfhUlRx/e/CpK1e5xU/hFBwc1qW8m9AayqtWkuDtP4VjUjdHfgqvJUs+pqA0oNRqc08GuVo+gjK5Kpp3WogeaeDUM6IvQDwKhkmKnFTEcVCyAnJpxt1M6vNb3Ss0uW9akRWI6UGNQ2amj24HOM1o3pocdOm3L3mR4YHpTWD1ekhKBSSDmozE2BjmoU0dM8NJaFUBvTNIdx7Va8pjSNEVHzcU+dEPDysUmJXsadHMc9akdQ2RTFjwa0umjlcZRloTK+akB4qJFxUgrNnZTbtqLmmE0pNNoQSYUh4pajc4pozk7Ir3T7YyO5rPqa5k3SY7Coa64KyPn8VU56noFRSfeqWo5PvVotzkqbCR/e/Cpaij+9+FS0PcKewUqttII7UlFSWnbU1IZd6g1OprKt5djYPQ1oo2RXNUhZnuYTEc8fMnBp4NRA04GsWj0YyJc0hXIpoNPFSbJ3IGQ0zkVb25pDED2qlIylQb1RB577dpZiB2zSGd855qyIlHanBFpc0exSo1Ho5FPzmBzznrTWkZ+pJq80SntUZgGelNTRMsPU2uVacqmp/KApMYp8xCotbjcYoJ4pTTTSKeghNJRTSaoybFJqrPLsWpWaqNzneK1hG7OHFVnGGhATmiiiug8UKjk+8PpUlRyfeH0qluRU+ESP734VLUUf3vwqWh7hT2EpaKKRYVbtpj901U71LbHEwHrUTV0bYebjUVjTVqkBzVflT7VIrVytHvQn0ZOtPFRK1SqazaOyDuSKKeFpq1KpyKzbO2nFMbs4oxipKQipuaOBGeaULTgOadwBTuJRK7DBqMipXPNRE4q0ctSw08VGxpxNRMa0SOScgzTGbFIzYpqjccnpVpHLKd9EKq5+Y1RuTmY1pY+WsuY/vm+ta0tWcWOXLBIjooorY8sKik+9+FS1FJ978KpEVNgT734VLUSdaloe4U9goooqSxKkhOJl+tR0+M/vF+tD2Kg7SRrAZGKjKlT7VIvSlIzXJex9C48yuNV6mVqrFcdKVXxQ43FCq4uzLyvUivg1SWSn781k4HdDEF3zAaPMqp5lHmVPIb/AFktBhSNJ6VXD0hejkE8RoPLZpjNTC9QvLWiiclSskh7PioWfNNJLUqpWqSRxSqSm9AVSTzUyjikUU+pbNKcLDWPBrJk5kb61qv0NZLcufrWtI4MwewlFFFbHmBUUn3qlqKT734VSIqbH//Z;" vertex="1" parent="ZQFW1FxyH6ks3i3n7b6g-319">
                    <mxGeometry width="224" height="224" as="geometry"/>
                </mxCell>
                <mxCell id="ZQFW1FxyH6ks3i3n7b6g-320" value="" style="shape=image;imageAspect=0;aspect=fixed;verticalLabelPosition=bottom;verticalAlign=top;image=data:image/jpeg,/9j/4AAQSkZJRgABAQAAAQABAAD/2wBDAAIBAQEBAQIBAQECAgICAgQDAgICAgUEBAMEBgUGBgYFBgYGBwkIBgcJBwYGCAsICQoKCgoKBggLDAsKDAkKCgr/2wBDAQICAgICAgUDAwUKBwYHCgoKCgoKCgoKCgoKCgoKCgoKCgoKCgoKCgoKCgoKCgoKCgoKCgoKCgoKCgoKCgoKCgr/wAARCADgAOADASIAAhEBAxEB/8QAHwAAAQUBAQEBAQEAAAAAAAAAAAECAwQFBgcICQoL/8QAtRAAAgEDAwIEAwUFBAQAAAF9AQIDAAQRBRIhMUEGE1FhByJxFDKBkaEII0KxwRVS0fAkM2JyggkKFhcYGRolJicoKSo0NTY3ODk6Q0RFRkdISUpTVFVWV1hZWmNkZWZnaGlqc3R1dnd4eXqDhIWGh4iJipKTlJWWl5iZmqKjpKWmp6ipqrKztLW2t7i5usLDxMXGx8jJytLT1NXW19jZ2uHi4+Tl5ufo6erx8vP09fb3+Pn6/8QAHwEAAwEBAQEBAQEBAQAAAAAAAAECAwQFBgcICQoL/8QAtREAAgECBAQDBAcFBAQAAQJ3AAECAxEEBSExBhJBUQdhcRMiMoEIFEKRobHBCSMzUvAVYnLRChYkNOEl8RcYGRomJygpKjU2Nzg5OkNERUZHSElKU1RVVldYWVpjZGVmZ2hpanN0dXZ3eHl6goOEhYaHiImKkpOUlZaXmJmaoqOkpaanqKmqsrO0tba3uLm6wsPExcbHyMnK0tPU1dbX2Nna4uPk5ebn6Onq8vP09fb3+Pn6/9oADAMBAAIRAxEAPwD+f+iiigAoooAzwKACiux+CnwC+LP7RPim48FfBzwp/bGp2unvez2v2+C32wK6Iz7p3RT80iDAOeemAcaEP7MPxm/4Xun7N9/4T8jxaZFWbTPt9s/lqbf7SW8wS+UcQ/Pw/t97igDC+H3wd+K/xZN0vww+HGt+ITY7Pto0bTJbkwb92zf5anbu2NjPXafSv0D/AOCdP/BKbxT4N8Xx/FD9p7wj4O13QNZ8Hj7J4b1G3mnu7C8mktpV86Ce3VI5EjWWNsMSrMQMgk173+xt+yB8LP2WNEng8DyXNxqWrWNlHr1/PK227mgV/wB6kZZhEGaSRtoJA3AZOM19K+HY1CjI6GgCT4M/Bz4ZfB3QpfDnwr+H+keHNPubo3NxZaNYpbxyTFVUyFUABYqiDPoo9K9J02yXcGQcVi6HFuAIHFdTpdsCAQfwoAv2tqWQLtHSr1tb4I3LzTbWAhQa0IYtyjigBYbbYflH51NHbDdnFPjjdV4Wp1jPQjrQAzYqjBX6UySBWOcVajjyMMPxpzRAHhaAM8xYBHtVaa2wCwFaj2/ORUE0QB6UAYV3CuCMYrD1azWVSjorD0YZFdNfwHk4P4Vi38PUHP5UAfnt+2B/wQ5+Dnx68dzfEb4afEW58D6pq2rahqXiaSbTZNUTUbi5lWUFFa5iFuFYynC5B8wDjaM/mZ+3B+yH4k/Yp+PFx8Gtb1/+2LZtNttQ0fW/sqW/2+2lUqz+Ssspi2zRzxYZsnyt2ArLX9D+q2554rktdjdWJIyPSgD+a2ivqj9rX/gk/wDHX9m60vvFvhG4k8Z+FtM0xLrUdatrGO2mhYyFXT7KJ5ZGVF2u0g4ClicBGNfK9ABRRRQAUUUUAFFFGD6daACv0O/4Jc/8E3bi5VP2gf2kPh9eWkcLaF4g+Gt3DrUDRXinzLgvJFC7nbgWp2ShThiMfeA6L9iX/gld8OLb4T38X7aHwFWTxX/wkcpsWHiifH9n+Rb+X/x43Qj/ANb5/X5vXjbX2paL4b+G/gDTfAvhLT/sulaLpsFhpdn5zv5FvDGscabnJZtqKBliScZJJ5oAx/Emp2elXMk9lpltbsRt3QwKhI9Mgf5xXK20s17fGaUk5Oafr+uR6izxmTDE9M0eH4WkdQRk8UAdz4XtwqqwTrXoXh6EZU4781xXheKWKNVK+ld9oMbEqwX6igDrNERQQFH0rp9KjywGPrXO6OmAOK6nSVY7W/OgDVtYTt5FXYUbAGKisk4B/Or8MaY96AFjzjGBUig5AYYp0SDOBUjJ04oAYsY6g81LGmetIAM/d/SpoEDCgBjRKQQQc1VuLZjkgcYrRkjBGfSqk4ZOQeKAMa9jxkHFY+oQdfSt+/jD5I71lX1sSOOKAOZ1O33ZNcnr9mTnHIrt9Qtmwcg1zWtWoweKAPL/ABtomnavptzo2safBd2d3bvDdWlzEJI5o3BV0dWBDKQSCDwQSK/LL/gpJ/wTr0j4QWZ+M3wI0fV72zvtYvrjxJpMFsskWlROrTo8EVvbqILSIJMrF2IQGEA/eNfrL4ktjkgr2rzTx7oenazpl3o2s6bBeWd5bSQXdpdQrJHPE6lXR1YEMrKSCCMEEigD8DyCDgiivfv28v2Pm/Zl8bQar4Pjnm8JaoiLY3FzKheC5w2+3Pzl34QSb9qr+829VyfAaACiiigAr79/4JY/sMeCPGvw+vPjZ8dfCXhzxJofiOz2eHLG4aV7i0lguZ4ZmkXaqruMfG1myMZx0r4Y8A+DdT+IvjrRfh/os8EV5rurW2n2st0zCJJZpVjVnKgkKCwJIBOM8Gv1/wD2PPhj4k/Zy/Zx8P8Awk8cXlhcahowu/tNxpkzvA4lvJp12mREbhZADlRyD1HNAHtM1/M8pld927vXPeOtZkg04+WpJNVrn4oeE7GEG61aGMGQoFeVd2cA/dznHPXpVHVvEel6/EGtZlePHUHrQBy1lcTXFzmUc7s13PhTTZXKuUNc1p2mW73qtEOCelek+E7CMbABQB03hixbaAy+ldzoNmFAFYOhW0SbRjtXYaTAgUHNAG1pNsVA+XNdJpURXGOlZGliMICa3rBohggj6UAatlHyK0YkTGD1qhazRLgg1aW4XqpoAnZMAMh6HkVKjhlw351DHIGHB+tPjYDqeKAJApBxjIqa2ZAShOKjRgM470K4Dg+lAE8g4yKpzjJPpU7TLySarT3SA5BFAFa4hznArNvYsAitGW8jIwaz7+5jAzQBi6hHhT8tYGrWyFT8vNdDeXUIBL1hatcwMCUYfnQBxHiOyikUjGDivNvF9jt3Db+ler64sL5rgvF9ikgYJg8UAfIP7c3wG0D45/CXUNG1VJEvdMja90i5hV3eGZBkgIrAPvQNHhs435AyBX5O3lneaddy6fqFrJBPBI0c8EyFXjdThlYHkEEEEHpiv2/+IVgVDnFflh/wUF+GMXgH49XWuWNvaw2niJTexw27MWEvAmdwRgFpCzcE9e3SgDwuiiigD9A/+Ce/7LGi/CLwbc/Gb40WXg7U4tb07SdZ8L3c0Imn0lVjlnZy08K+Q4EkJzGx5jzn5VJ6v46/8FHPgj4RF5oOieLZNUu7VtslvpkDSb2ztIWQ4jOOSfnHQ9TgH85NV8Z+L9d0my0HXPFGo3ljpqFNOsru9kkitFOMiJGJEYOBwoHQVmZ70AfYHgH9rHWfjNqKi+8I6jaM9y6JPApmtYwqB/nmwu1jyNuO6/3uPpD4VeLNUltY7eS4OPQmvmr4PfD7QvAOmtoWjXVzJFNdNOzXTqzBiqrgFVXj5R29a99+HYlgZRnG3H40Ae+eD51JUynk969K8N3CKQcjpXkPhC+JVCW6Ad69E0bU4wg2t25oA9P0e94BFdPpGsBCFJ+teZ6Rqk5QBDmt/T7y+3BgfyoA9O0/X4FH+sx+NbNjrsWAwmH515SL2/QZDkD61NbeI9QtW+aQle4JoA9mtdbiZQPMGfrV+21TcOHBryDTvFcshAeQj8a6PQvE+XAefgnoTQB6XbXquM5FWklI5HeuZ0jUhOAynI9a3rWYMB3oAvJLleecU17lUOc01m2LkelUrucBD60AOv8AUgoOGxxWXda7HGMtJis7WtV8gFWfHHc1zOoa5tOC2ce9AHVv4ihJyXqlfa6rDKv+Vcfca+6uQjfrUY1eeTpQBt32sllIBrHvtVyDzUE91MwyVrNvbpgCSMUAM1TUgQQWrk9evlO4nnitHVr3CEFu1chr2pYRueRnrQBx/j0wzo7L1718Of8ABSr4dJ4h+Fh8WWFhZG70XUYpp7mSMCc2pDxtGjYzjfIjlSQMIT1AB+0fFuprtfIzxXz/APHjQdC8a6HeeGvEdj9psLtds8Hmsm4AhhypBHIHQigD8vKKDnPNFABR9aKtaRoupa7dGz0u282QIXK7wvGQO5HcigD6c+F/ja58TaJa6vFbGNplyyFslSDg89+le9eAtZmWGFncbgBnB618+/DphbFLaCBYlB4RVAA+gFe1eDbllWPePrQB714P1mJYVeQnJAr0XwnN9pdWDcHoDXjPg++WWNUBP0Jr1XwbqcdmsZm6ccCgD13w9aDYpI9O1dHE9tZxmR8DbjNcXpHjK1eJIrVTxwa0bzULm8QMrHB7A0AdONc09xgkD15pkstrMm6Nx+dcqn2hl5z+FXrTUGt4fKO48c5FAGoJ2hk3K3Ga2NG1hlbJ559a5S1v5Hl2MuQT3HSt7Q4hJKB60Aeq+Bb9rmLYV47Gu7sYHChgK4n4a6c0nykcY616dpGlnAQg9KAKUiM0XSsnV2kt4S4HSuxl0gKuAvaud8Uae6xFQOO9AHl3inUpmuDuauXv9QYEhTXQeLrdvtL7D93iuN1V5YgzAHPpQBYguSzZd+KuxapaW4Bd+o7VzFtqM28q64/CidpZv9Wx+lAHXJremy/KHHPQVHdi0uId6EVyTyXCxgBuRThq95bW5HmYxQAzxJbFVYxt2rz7xHdhdwJ/Ouj1nxizTiGZMr3OOa4XxnfxF2ZWwGBxQBxvizUtxkXd0FeP/EG7e4EiBPpXo3iu5Vlcu/P1ryvxjeMHcEjA6GgD49/aP/Zx8GeANCu/Huga3/Z8Akggs9E+zSS+bIxw375pCV+UO/Ix8uOpFeGV9kftI+A9f+KngSPw34XSD7Smpxzt9ol2LtVHB5wecsK+Nz1oAK9I+BP9kT297bOpW8DqxkIODHjAA56g7j+I69vN6634N61/ZfihreVn8q4hIKquRuByCfQYyPxoA998F2j+cgIOQRivW/CkErxrlefUCvPvAkdneRJOickccV634M0tgi5Xr04oA7HwkJomQ5PavYvCFnb3tvG8rjJAzXmPh7T2UqSvOK7/AMLma2Iw3HoKAPTNC0FMAoQK6jTtJlAAZsj3rifD2tXMJGCSB2JrrbLxBLMoHT8aANyLTIUX58c9aR7G1HKj8qpR6pJIuC/NW7MyTOFIJz2oAkt7GPeCkefpXT+D9Fa7u1QIcZ6VX8P6C88q/KcZ6V6t4E8KRo6utqORycUAdH8PPD6RImxOw616VpOguyhxH+lZ3grw4EYAR8emK9L0Lw83lDbHxx2oA5V/DryRk+X26Vznifw5thbK5yOcivYz4cwmRDjj0rA8U+FVltyFi57HFAHzP4s8JQjzCIzu5rzPX9HeCRldOhr6R8XeGxC7q8OD6Yry7xn4WWVWkSMZHXigDymKytlfLRjNWo9OtGyeB9atarossBLBTwazmuGiO16AJbrQ4XUshHSsi/0JipBPGeuKuTas0YxuP51manrUjoVDYoA57X/Dywq0zKCAK858YRCSNlU4IzgV32vapcSRMhkyCK4TXraSckEk59aAPL/FFvK4I3E8V5x4uhxkMnPbNexeI9IY5wtebeNNNZQ++Pgd8UAfNv7SfxL8QfDjwkdR8NGFLme6EAklj3eWGR/nUZxuBAIzkeoNfItfWf7Xumw/8Kw1OeSFWaKSBo2K5KnzkBI9OCR9Ca+TKACuk+FaJJ4rVH6GE8n6iubrqPhMVPicRtt5TIyOeo6UAfU3wysNkMLKmRgV7t4LsVeFDt7da8b+FMJltojjjAxXvXguzDwxgL2oA6/w/o+WXK9R6V2Wi6I4xhODWd4YtEKJuA6Cu00W2DAYUfhQA/S9Kkj59K3bG0kHQGp9J0vzv4a6LSPD7SYIXNAFHTNPnlcARkg9K6/w94f3RqShJz6VZ0Tw4kCAvGMmur0TSUj24QYHQUAWPCXhoqQWj9K9V8E6SgkjRUB6VyegWoEihU5NerfDrwvPfTRFIzgkZNAHoPgDwUbt1l2fLgZ4r1HQvCMcYUbPzFJ8O/Cn2C1jiIycDNegWOhhQPkxQBykvhZCn+rH5Vha/wCEwIWKxc16r/YgaM7l6DpWRrWiI0JULzQB8y/EXwfLFHLOIjkA9q8d8R6awDqyfpX1f8Q/CclxayRxx5yDxXzz8QNFfSrh1ljwc8igDxXX9E8wsuzj2rkdZ8OlBuUfUV6tq+niZyyqBXMa3oxZGK4oA8q1HTpojgjisfULKQngGvQdY0j5MlOc+lYOoaSqrkrj3AoA4TUNOZuGU/lXP6powKkhelegX1gjA4HI9a5/VLTZuUigDzHxFppjVty9q8x8dWJaJ3UY9q9j8WRgBgAORXl3jaAFHV04PegD5s+NemWt/oOo2d7EGhltZEkXONylSCMjnp6V8Jnk5r7t/aWupdM8F6vfWT7ZY9PneNgM7WCMQcHg818Jt940AJW98NrgW/i233dHyuf1/pWDV/wtcNbeILSRXVczBdzyKijPGSzEBRzySQBQB9n/AAeuv3McfsK+gvAj7Npz0HrXzR8ENRW4sIJVYHcoOQc19H+AZRJGkgbtzQB6v4YkMiKCvXpXe6BAp24X0yMVwfg545VVG4PHFekaAFG1MUAdXoFgruoI4NdZpWnCKVWA4zWDoEJJUV2Ol2jbRuoA1rGySVAQmD9K3tLtFQDIFUdJt9oAx3ratY8AUAb/AITs/tF/HCqZJOBX0p8I/C32GwjmuIwD7186+BZTDqkbkjAYHmvobw341t7XSUbzV4A70Ae0+FygdVQjgDFdnZuvAZRXg2gfFSwFwsf2to2zwTXo/hnxf9uj803ayD1DUAd6Suz5cVkay0aqeefeqsviWGOEuZBnHGTXE+LviLFZTM094BnoqtmgC34kZHhkEhA44r5u+POnpbX5mP3W9K9Tvvidp17MYzMwJ7mvMPjNqNnqYAWRWOM8HpQB5HcoC2AeKyNSs/Mz79q2502OR27VSu4w2cUAcdqmnKM7lGO1c3qmnKQcD9K7vU7VHBLVy+s2pOREKAOG1W0CAgDFcnrcSANz613OtwEKS+a4vxHHtVio7UAee+J0CbifXmvLvH12kayIQBwcGvSvF1y6q6la8a+JWpMVcFcHBoA+aP2s9ej0/wAC6x5r/LLaSRA5HVxsH6sK+LDya+n/ANtPXUtvCzabJy15dIigdsHfk/8AfP6ivmCgAo+lFFAH0n+zX4li/wCEfsIhNkogVjnuDj+lfV3w91TzI0aKQdsivgv9nTxFBp2oS6ZJJtZ5PMUE9eAP6V9l/CvXF8uIh85AyKAPpDwPKHjWUjtyK9N8MyBypYYHavIPh5qBlRFyNpFeu+GShVFQ545oA9F8PIu1WDV22jpuQAfhzXFeGlAiXaK7jQl+VRQB0GmxEAD3rZ0+1kf5cVQ0qIvjNdRpGneYoIFAE2iWk0LhkU5HvXXaNeakgEW5ue2ao6JpR3jArrtF0lFYMyAkUAW9AtbmaUGXOeDmu50G+vtJw9tMVx1wetZGj6YF2sq9q3UtCiD5KANKfxTqlzDsMzA47GuY16K7uGaWR2JY9zWzBExODTb6yYx4K5oA851iC4iJK56dRXMa1bzzk+YxP1r0nWtKXaW29K5TWdOQKdq0Aee39i6MTis27hKA5FdXq1iQSdtc/qUW0Ef0oA5y/G5SDXN6xGkZLDHeuo1NdoLE1ymvuMHa3figDj/EobaeetefeKrkxBlL4OOK7jxVcMFKk44rzfxhc5RmJ7UAed+N9UKK3PI968K+K+teXHI7SgYz1r1T4gam+JGQ5AFfOPxs8Qxx2U0s0uCAcLmgD5J/a18Sy6z43ttOLbkt7YyBs93YgjHtsH515RWr431+TxN4rvtaklDia4by2AIyg4Xg8/dArKoAKKKKANbwNfnTvFNnOZigMoUke/A/XFfZXwd13fHES2doHeviSxm+z30Nwf8AlnKrfkc19T/BnxA5s4HhcMGAI57UAfYvw01rdGqM3GOor2/wPfMyoFYHpmvmP4Ya4MR7jjNe9eCtbKQxjJ6DBoA928NzlI1BOc46V3vh+ZJUXC815V4K1Rp40G7IAFekeGr0EqqnkmgD0LQ4w7KDg89a7TRbckLhM8Yrj/DIGFkZq7zRFyUYKPwoA6PQtPD4AWuu0TShGwLjj0rH8MwRogd2/DFdjoxt2YbiOlAGppOnIdvy/jW4mnqy7SvXvVGzlihClCPzrYtdStpVAcjPYCgCqmjhGOV+lF1p6CPmtM3MMg461Vu5E74x6ZoA5jUtPjmygA/GuT8QaQIQxArudTETtvDAfSua1cwurhjnHegDz3VrSNFbI69q5DWIVUtgV3XiKIF22YxXE+IwI9yrzjuKAOL1ghd3mHGPU1xmv3mxm2rnHTFdT4kl3xtz0NcD4hv44Scnn2oA5TxjfNhjnHFeT+M9VuATGrfKetdz451yJY3JkAIFeL+PPEGVkCSc84oA4L4n+IEtRLGk475wa+Lv2wPiYmmaXJoUU5NxqO6ONQCQqcB2J+hwPc+xr6S+JmtYWVpZuec818M/tT+JIda+IS6fAwZbKD5iDyGfkg/gFP40AeZE5OaKKKACiiigABI5Br2r9nfxE7WEVkZiTC5U5PTnj9MV4rXY/BzxMdE8QrayzhY5jkKV6t9foKAPuj4W6oXSNS/OPXpXvvw71iQhIJ5M4Hyk18pfCvxItwIpon7DkV9C+ANTaURyl+eKAPpHwHe+S6srZU4r1bwtcIrqzHgnivDfAWrI9uij25r17wreqYUYSZoA9b8L6ioZFb7td7outwR7cHivKPDt5kK6vn0rt/DUxuGClv1oA9K0jxVHuCAfTFdRperXE2CmRXD+H9MQyK7c+9d5oEEZVcqPSgDXtdR1EYyTV1dS1JV3xg8e9PsrBGUFcZxwMVcFvtQFkAzxytAEFt4p1SKQB0496LvxPdkkFTU32EffC5544qO509XG7aM/SgDJ1DX7kqTg4rm9T8TtHuR89K6TVbVEXbtxxzXIa/YI25gPrxQBlal4ghmjJB59DXHeJdRgcMyHk1o61ttixD1xnibUhgqj0Ac14p1Dyizq34ZrzbxbqkYR9z4POK6rxXqDujFDk9+a8w8YapticyEZ570AcN481jaWBfqD1NeKeOtfVPMQPnmu8+IOrM+795j8a8U8faqsZk2yZODmgDzP4va+YrSaUsPlU45r4U8Z67J4l8VX+uSTFxcXLNGxGPkBwg6DooA9fWvpz9prxxpeneEb+zvLv95eW8kEESn5mZlI49hnJ9vwFfKFABRRRQAUUUUAFWtG1AaXqUV8Yt/lk/LuxnII6496q0UAfUvwX8U2f2W3jgus70VkJ4yCMj9K+mvhl4hmCRr5gKnGOa+EPh5410eCK0htrtY7i3hhjIlYJufGMLz83I/lX1T8HfGI1G0gWOX5uAw3dDQB9heAdZ2xxhjjOOa9m8FX8rwqQ+QT6184fDvV1uY4YhNkgDvXtPgjVpraNVV8j0zQB7Z4dvXV0XoK9D8NXO0oc968l8I6ws2zcec16NoN6oKfN0oA9T8N6wY5AJDkeld5oes2mxcPg+leQaPqL/KAea6bTdVkUA7zx70Aew2evWcYVvMwQOc0y+8c2EA8mJi+D17V5zDr1w6Bd3b1qZbh5wWzQB6BYeO7KT5JV6ngirQ8T6fMCA+CPevOIpJEG7fTjqjQ5+frQB2Wr6xayKSsg/OuM8ReIUQMqMMeuaoahq8xJKycfWuf1e/zyzde2aAM/wASakLgFckVwHiLUDAWBOeeua6LxBfIm/Mgywrg/E18xidmboeKAOY8W6pkMVevKvHGswvE7TS7dpOc113i/VisbkNx7GvGfHeukxuGkJyT3oA4n4ieIIl3ODla8M+I/iEIsvlMACDg5r0D4g63sjcNJxg4r44/aj/aDFg934G8LXcy6gTsubmNiptwQrcEjksrYyDx1yCKAPKP2g/F0/iPx5Pp/wBojkt9Ocxw7DnDELvyc9dwx7bfWuEp000txK088jO7sWd3OSxPUk9zTaACiiigAooooAKKKKAHQyyQSrNE7KysCrKcEEdCCOhr6P8AgN8SrKe4tLq3v4xKyZuLTzRvXB2k7QSQM8g+hHrXzdV/w14k1Xwrq8WsaTcFJI2+Zc/LIueVYdwf/rjkCgD9RvhR4wSQRSwOG3qK+gfAGuJNs8xuvbNfnF+zP+1Jpd9qa6NeJLH5aoWSZlJyc52YOXAI5OB1HHNfcHwn8aWerRwT206sjgFWDZoA+nvCNwrojRn869I8NagkpWORecda8X8C6w74h39Ohr1TwnM0rIxPagD0rSJvL2gdfXNdFYyuyhwfrXJ6JN5iJuPPFdfpIRkU45xQBsWWJFGG5x0rSt2C8E1QtIlIBXj6VopChUENzQBLkOhUis+781SccjParuGQ8HtVe5hZW+bkUAZF/Iycn09a57WrsYJ6Yrp7+NGUgiuR8RoUJA4BFAHLa7MZC8jOcY6VwfirWTh4NuB9a6zxBciNGAft3rzbxjdkpJmTHoaAOH8Z6t5QkXPHOQa8N+JWvgO4hbAGSa9C8e60VeQiYfLnNfLH7T3x78NfDLQbrVNZ1Bdx+WGGMgvK56KoyMn+Q5OADQBxX7R3xt0zwH4fudTvJ1aQApbw7yDLKQSqAgHGcHnHHWvhPxN4j1Pxbr114j1iRWubuUvJsGFHYAewAAHU8d61viX8VvFvxU1RNS8UXEJEJb7PDbxbUi3Bd2Mksc7QeSfbFc1QAUUUUAFFFFABRRRQAUUUUAFFFFAF3w9r+peGtXg1nS5yksEquF3MFcAg7W2kEqcYIzyK+5P2aPjhb3FvBrfh/U2ntTL5c0T/AClXGMgg9D0P0INfB1afhLxl4l8Daymv+FdWks7pFK+ZGAdynqrKwIYZAOCCMgHqBQB+5Xwc8eWGv2MF7a3QIZRkZ5U+9e9eDLxgqMJcg9Dmvx5/Y8/4KGRaXrsXh34nXdvpbyHEWoA7LVgBnEhZj5Z9/un24B/S34UfHnSLq0iGpziIsB82cigD6e0G8cgDcD6V2Oi3QAX5ucc4ryvwR4z0zV4I5rO7jdWHDoc13Wk6sobY0gBHvQB6BYS7lDE8VdS8jU4Y1ylp4iEaA7hgD1q3BrYnJAYZxxigDoWuVbIiccCoLi9IXDcfSsj+1FYZ80ZHvVPUNcVIzmXNAF691CNScP0964/xLqDs7sD06U6/1+NM7pa43xf4003TIXmv9QjiXnmRwMUAZXinVInjkLnGAea8c+I3ih7aKQLKFHPJNS/EL9oHwxbSyw2k5mIzyvCn86+H/wBuX/goVpXw5gk8LeGZI7zXrhDstIphttlIOJJWGcdiE6t7DmgDpv2mv2nPCHw40+6XXPFNtazNGxjh85fNlxjOxM5bGR06Zr80/jJ8T9b+KHjS81m+1aW4tFuZBp0bjaEh3Hado/iIxknnoCeBjG8X+MvE3j3X5/E/i7WJr6+uWzLPMeT7ADAUDsAABWZQAUUUUAFFFFABRRRQB//Z;" vertex="1" parent="ZQFW1FxyH6ks3i3n7b6g-322">
                    <mxGeometry x="224" y="80" width="224" height="224" as="geometry"/>
                </mxCell>
                <mxCell id="ZQFW1FxyH6ks3i3n7b6g-321" value="" style="shape=image;imageAspect=0;aspect=fixed;verticalLabelPosition=bottom;verticalAlign=top;image=data:image/jpeg,/9j/4AAQSkZJRgABAQAAAQABAAD/2wBDAAIBAQEBAQIBAQECAgICAgQDAgICAgUEBAMEBgUGBgYFBgYGBwkIBgcJBwYGCAsICQoKCgoKBggLDAsKDAkKCgr/2wBDAQICAgICAgUDAwUKBwYHCgoKCgoKCgoKCgoKCgoKCgoKCgoKCgoKCgoKCgoKCgoKCgoKCgoKCgoKCgoKCgoKCgr/wAARCADgAOADASIAAhEBAxEB/8QAHwAAAQUBAQEBAQEAAAAAAAAAAAECAwQFBgcICQoL/8QAtRAAAgEDAwIEAwUFBAQAAAF9AQIDAAQRBRIhMUEGE1FhByJxFDKBkaEII0KxwRVS0fAkM2JyggkKFhcYGRolJicoKSo0NTY3ODk6Q0RFRkdISUpTVFVWV1hZWmNkZWZnaGlqc3R1dnd4eXqDhIWGh4iJipKTlJWWl5iZmqKjpKWmp6ipqrKztLW2t7i5usLDxMXGx8jJytLT1NXW19jZ2uHi4+Tl5ufo6erx8vP09fb3+Pn6/8QAHwEAAwEBAQEBAQEBAQAAAAAAAAECAwQFBgcICQoL/8QAtREAAgECBAQDBAcFBAQAAQJ3AAECAxEEBSExBhJBUQdhcRMiMoEIFEKRobHBCSMzUvAVYnLRChYkNOEl8RcYGRomJygpKjU2Nzg5OkNERUZHSElKU1RVVldYWVpjZGVmZ2hpanN0dXZ3eHl6goOEhYaHiImKkpOUlZaXmJmaoqOkpaanqKmqsrO0tba3uLm6wsPExcbHyMnK0tPU1dbX2Nna4uPk5ebn6Onq8vP09fb3+Pn6/9oADAMBAAIRAxEAPwD6ftr4oP8AToCjN0UrnP1xWXrDXt35tha6ZZwwTYC3Msihhxn61W1r4neDNKtpYtQ1iBXj+V2Rskt6deK898Q/EHTbuX/hIby1lt9LtAcSTsRn/ax1ce445r+r8VgI1aTqYt8kUf4nZRkuOq1Ofka7f8A89+OvwLE8dz4q10yva7yGubXDNweSD+ePavin4z6X4d0bWfs3hm0ubmGaRlS7vrXBUeiA85Jzz6mvt349fth6Bovwm1SDwTpsRuvKjCvMoeIElfmCnIB789s18O+IvGviDxz48h1Xx3rQkujHGYRDEixxIT/CFAB45yOa/l7xVxmWZfSm8K7ux/ob9EDg/OeK+McNhMwkqdLm69l5HZ/su/C+X4ja8/h/S9FnaeFF8qO3jG5nyTknPH9a/aL/AIJu/BS68FfDOHTfGentutZD9iSdyxiGBlT6Ef1r5I/4JqfAPSYPjRoWv6fpoEc+lec80iMqyjnBAPXkHmv1M8N6DZeHbB4LSJVEkplIVcDJAz1+gr/MrxJ4qnmGZvDxV6cdXfuf64+MPFWHw2EpcO4K3s6cVqtNtLEWr3ShWtwTtC4VyfauRtI5pJ280M8cYwgV+uPaug1y6TesUYGQ2Nv4HgVlPd2tqxCsMkfvNo5/Gv5WzPFzxGNnN69j8OwcZQhZLco3cYmmaBAeCPkz1z7VCfDzho5YjvGcsB/CM9q17cQXn78DcCPvHA2gH/PNaumR20US7IwACcd8k1wQrS5uQ6Z4udONojvClgthYhU3Hccgt1q9qkZERcRlivzAAZJqWyKkBfTsBU02+VGG3twCK+zoZfGrlPJK7e54UqrlXbkcLcaVd6jdh0RosZ/1rZHPp6Vs6DobWzkyRqpVdqsCTnnjtWj9idZSzIMEdK1bCzQkMxPQDGK8vKcnrY/E8ktLHTXxso01FFbT7MRo/lx4JbPJp10H2FIiAwPPtWilohBUNg5zmql6Ft2JUEnvivvMZlEMBgeV7HnQqOUtTHNmZpdrPkBjytWoYxbDMg+XsRQ4dfmRDyckYpss42fOM/j0r85oRwmDrSl1vpc61Kc1boaenXkcbBN27jg1Q8b+GtJ8UWxTULCOf+ECQDgHrzUVpepCxbjH1qe7vf3anPGOx6GvusLxLRnk0qVTVLsYRp1aOIUoOz6M+GP2vf2WdHOpXGmXWix3tndk7HKbjGG4Bx04P8q+Jvij+zh4M8NaTNp/jDwfBaxxhgtxa2wyq++OmfWv2H+IuiaR4igkivAnmlMI7Hhj1Gfoa8a+KX7Knwx+JuiTxTmOOZ4v3j+cQuPfmvpeEPFCeXSjSqykqaZ/RXBPiSsFhYUMyTlC1n10PwW+Nvh/w74f8Sy2fh26+1Qn/j1ZAdy8/cbNe9fsS/sz+ItbJv7a5nsZ5domjuGBjniYZAwDwwx+FfS3xy/4JD+EZPtVxpgvYWjJKXCFsbu20nrn8elfFnj2f9oP9jT4gQ6LpvjK5NvA5TcJy6EIQDw+efav7y8JPEvhLMq8YyqOTVr9z+bPpSeGfEfHeAqZnwn7P2UVrFL3vmkj6a+IX7Hniq/nnsIfEdu0VkT9maC4Cyt833GVsbj369q0vhZc+PvhTdW/hLxTok8lp5oG8nOzHIIXsD/WuL+FP7Vmi/tMeT4XvdU+w+L9u2zuCpiW6ZRux2UNgHGOuPU12vhz9pqLwNq8lh8U9Cmnm0+TyJROAJAM43cjJyT+Rr++eGuEMr4nwUcwyOs5SW8T/JbP8r4rwlKeXZnR55QuuW1n6o739pLQLj4meCjrkLmTT4rDyZ4WGXhBJH5c1+U37Sfwq1HwH4nvtUtNWjKrciGe2G4SLn7rdMEHnv2r9cvG3jnwlr/wS1TxV4KdFF1DtHlKcAkYCFfXPU+9fn9+0NpHhL4jabKjRRDxQLxhdojMTImBtJXOPXtX9TeFmOzXCYZ4Sb5EnZ23Wm7PofA7O8RlGJnGvBqEXZxfReZ98R/Bzw54Y1lNIty2pXDMN13qZ3FCP4lx0/8ArV5T+114rn0nSNS1VdRkn03TpSDGSMSS5x1HUZya908TT/2X4PvfEs100dzdRmO2GMtz1bHXjGM9Oa+J/wBrjx7crok3gm1dVgeMC4E4I2yZG3HqSM5Ffx3xpnmLnhJOpUu3t2Pzvw8wuKzzOoVKz5lF69rdbEPh7xNY/FL4EeKdYt4IvttpCuRGOp8sHI+nQ14h4N8FN4otrTWNtwZ3vESXYpYoowCeBwK9f8E2Vl8JP2c72wvJ1jm1q2kZg8RJfflUwcZHVa9//Ye+AWleGtJ0XVNetyGumSSWGSMPuLKAAevXjj3r+QPGXimOQ5VRnV+Jp3S3Z/rV9CzhrKYZjmWcYmnzU6P8O/e3Q+9f+CaGlatD4ZtL3xDAuoyx6XFFHeJbbAqgHA56da+p9a8RNbjyjYSAFgASBiuS+A3hqDwh8P7WCJBEpTco3E7c/XoMYrL+IHxO0ywuPJF6uVYCNFfcCfcDvX+afEufYjMOf2V+apJvRLZn6vnkp5/xHVq046XsXtY1xzKw8zbnJUf/AF6j0u5hvLRxMgPI+bqT+HH868/f4k2+o3Crc3USBeWjxj8K1dH8UQwXJdJI2VzhULAgDPUH+lfATy3EUYXkrM7qmUV6NK1tTudEmhhkJMxOXICkY/Ct+GGJsSRnB3DeAa8/uPEaPKn2aUq2ckDHOOvWul8J6y9zb75HGd2STnn/AD0rzJUXTfPI8TGYStTjzWOv01jJL8gyvatNbWPbl1znrWBa6iysDETlT0x1rTj1Viu1gMnrX6dwzm+WLCNVd+h89XpyU7EOosokJCYIPHvS217uG7BXB6fhUU7yXMpGAcdDU/2ArEJAR649RU4aWKxGYSrYdKyB8qSUi2lyuwHpxVO7ImY4yc09iUZUDc46etVr/UYk+SNwpHpXdmWLj9WbxEvkRSg3KyIrnbGuSAuKyri/S3O99pHPJOPzFZfivxR9miZHnVCCTkEk/jjofauI1v4i2t1pJZp93y8y7sEY71+aYilVzGp7sfdPo8BlWIr7I6rVPG0drIswA8tVG9DwOec59jWVrHxbtI7ZoxcESu3yENuX8OnavH9c+Icuon7NBemSQKcj5mDcd+2Mc/WvMvFXxQu9O1GG0WQ7TlthY49M+3NfSZdwrVrJI/QMq4IeMkk1qj6VtddvvEBMyByPuuIxkL6HrzWpZ2iLarDcRiTafmBXhsevpXnf7O/jNdVtR9snIm25Q9dy56fzr2Gw8OjUUedGbDL8oV/vN6e3414uaUHgsS6TVkjws3pvLMTKhKNkjidWtZvEltLbwyiCCCR0PkJlgOOTk18w/tq/sH/Db4o+AtU8W6f4ahXVYoXZbmIbnkfOGOe+Sc19rWPgKG0lmtbiFfInkLOsXHPr/wDW6VifEDS7PQvC9zoUFlG4kRzbIq5/AnsPc8fnX0HDXE2NyTMqdXCzcbNX8y8l4iq4HGRjRfuvRro097n84d9oXij4JfGKKx8toL3TtRCQOM85bHX6E19L/FbZ4/8AD9l8RNMSUSKi2mscfeYKDuJ7HoAOc4HNN/4KUfBC7+H3i8eO1tsTXF6zyFRuAbduUAr0GBit/wCBXjaDxZ8BT4a0zS7We2u7GW6v7idQWhliZnZQp5yQmAcdCOa/2t+iZ4hyq47D1IzvGpZNebP5A+mJwV/q7n+EzfAwThWV7rS190zf/Z88Rm5uLbwreXgfRdRXycTHEf2nGFwex+7Xkfxv/Z88bfDPxddePbQTytcTYQeWSjKScAemP61ofBvx3HrGk+IfDFkk8c1pIt7pUew4G1jvYEdOFxn2r7T0dtK+KvgbS5tR8uO1vLJHeSaP/UkZGVZup6/Wv9Ccfn2I4Xzd1oQvCduZd13R/BmbZti+C8yWIULwqaTXlujmPi54ylg0OHU7hYDIqlYrQKdqgjOQM56gd6+E/Enhzx18Rfiz585bM8zXF2zJnbzkDngDB9K+8/jPongHwtpL+I/EWswvFHCRGJpRsVsd/wCn418Ua38RPGPjvxHc+FfgTYuJrrclzqduoAEffDfwj64r+FPELMMDl0ObGVElHzPrvo7cHcRcaYz6lkeFc5T0cmtInK/E/wAQS+MPHOkfDO3uZL5LG4UTfZjwZM52DA5CrlenUV+lnwE0vw5peiabc30Lu8NtCkNvz+6xGoLE4GSPSvlf/gmp+y14xtvjfBrHjPwDfXUCzug1CNFJRudz8nPPIz3BzX3d+07r958OdMMWgwrIEhEdraQgExj+87fnX+cXjVxpR4nz6GAovp0e1z/arw64LoeHXDuH4YjZ16i5qklpq+nW56j8QP2sPDvhjwYsNreKfKgWNYgQGZscjGa+VvFH7YMWr3hFpcIyLJwxfOPbtzXiPjq58Y+NLqS81mebEjblhWUDJ9Bg8fjXL6d8KmvbxbuO9uS7AIPvKF/KvzvJuCMmwdJzxE7yP3bhnwy4eyqg6teV5PX+me9xftPy2GpRQX2pjBbgvwX9+vNdBqn7Z/h7QLZLi81ho4hIBIoG4Edu/SvA/F/7Ofi26tv7TtoPtRY52xkhx9Pauek+BHjSfSXOreGbpo4lwpeFsg9M5/w9a9j/AFc4VxFpTmrfI+lfCvBWLadSol06H2F4X/bv8Cahp8txaa3GiOMjcecgY6Z/rXpvwp/a/wDCGpy21tBrMcrSSBdytkMT2xngD1r8n/FHwg+J/ht7oHTL42vDIiKQoXOQOff862PhDrHxF8JIZprS4hh++kYYh9y8jAHI6VGZ+FfDmLwUp4eqnfbVHFm3g/wri8HKeFxCba01R+7PgnxrpXiK2S4iu0bfjKr2P1rrAyGMmOTAx0r87f2Sfj78RdbtLb7e7RQxxgKh+9j2Xp+Nfb3w312513R4rmUTfMgzI/r6496/nTPclq8K4qVLSSP5H4w4QrcO4xwlJNXOxhmdHZ3bgDg4rTtL6OZQkvQLwRXH6j4mFhdZZGKJkO2BWdqfxDjhhd7aZN20Nh/zxjsa5slz3E4OVlG6Z8asur4mzSOq8V+I9O0G1N1cT4Q4UbRk9cV4J4//AGgLDTrq405tRIlCl44zJjeR2+v+Ncp8a/jjeWMkqSTT7p2HlqGDADOPXGO9fK/xe8Sax4i1eO9tnuQ0kZG+JWOeTxx0+lfb5TkNTPsR7XEe7B9Ln69wX4ewxSU8W0ovuemfGb9tWXQVM2lXybVHzhmzk+h968O8b/t+EwNFcTTRh5C6rDEcH688ivK7bwF8YvHurvFqHhbUfsrSsISbZ8ED+LpjPIr0Xw1/wT38fXFpmSynLAjMkqsCM9MZGR9a/XMNkfBuQ0oQxc439Uf0fgeH/Dvh2hD65Vg5eTRzs/8AwUV8Q2fmx2/hdmiPAkD4YD3GK8/8U/tz69ql60jaRsSQ8sJCGX3zzj6V7BF/wTM8Rza5JP4qUG2C5aNCR0757/jU9z+wF4StIRZ2/h0zAAkyNGc/h619DQzTw9wsk4RTfke/RzPw2w0/9ltJ9yj+z3+39r2kypaadbvdRwldxYEEA8k7vrnt2r6t+Df/AAUn8Patq76d4huzaPEF3RzLt65+bPevAPh/+wxoWmR/adGjksptv74tn58HgH+Vaevfsl6q0hiE0E6FcbliGVHuWx/9avis8w3AedVp8seW/XqmfAcS4Dw8z6tJcvLLuu5+j/wn+LOg/E/SEutPulbcowwx83tXU6roWn6lYiK4tlbYSR9PSvg/9l69+IHwO1EabdTyXOmoihYCqlozz0x29BX1B4R+Pt7r832FlhG/hfMbB/HHOa/G83ymlluInTpe/B7SP5m4l4PrZZmMpYJ81NbM+WP+Co3watfGnwl12xsbGOSWFC9qrKA4YODgY/zivzL/AGLfiFq/gPxb4g+H2sWxliu9E1JI4pB91xby5x+INfs/+0R4DbxZ4d1XV7S+h+2y2zDkkRsuc49+nX/GvyBufClrYftd6rC2hPbfZ9D1VpLeKEFEf7FLtcDtubH51/b/ANDHiau+JMLgYyvaa+7qfJeNHDuXcU+DlXEYmS9phWmrmV+yHfm0+L9zqTyxmO00+VZVd87izPhQOnevvf4DX0Uvwn0C2v8AyHtp7RyyScMPnPyivhXwr4Zsvhp8J9e1x7YvdX7A2uYxu56fT5s19VfBC/8AGup/Dvwnc6TK8dpa2aJdWYl2AvuJLED1BAz3x7V/tt4kynLB08TSWi5V+CP8f/E+nSzLBSqwklG6SfmkfH/7Xfx/1P4i2r+Hra+kFvHKF+zxy/ITzyccnH171u/8E9vBninxb4sj05bg6boomRdRuYosh8DIjLHpnGfwr588ezT3XiwRvH+7LEM+MfMPbp39a+uv+CXVhc3nii70e01KSF55lVl+8pTnOe2a/wAkfGbOsVWy2vUk7tLqf66/Q64UwnDvC+JxmFSXu22X3n6v/AHwV4I8HaZbSeEUjMaRFpbhjnzG2nofY8fhXmH7Rb6f4g1OazcQyJICzhDySGOVyOnSu7u7Gy0zwN/YWj3bWjxRJHE9vwH4G4tjoc5Fee/8IzqerazmUmV2ZVYuOSOnHvX+cmEqS/tOeMqVG3fqftOS3jmtTH1pttPrv954hd/DQXWoN9mtd6N0jx+mRXTeFf2evEc8o1L+yNkYAITyyCf/ANVfVXg34KeGNM0A674piSKJAWPnYyOOpNeB/HT9uf4R+BdXm0LR720EduQAIidzkZ46dPrivpsFnecZ3WeGy+m59G+h9fhuMM5z2u8Jl0HJR0b6fed34B+AMs0cfnzwwSb9hikXOB7EmvWNF/Zm0qa3SGc2s0ZxkGH73HXrXxj4C/4Ks/DuHVJdPv5VhmXhTktlgemVBwfpmvePhT/wUu8CeKPEFv4fu7hYpJ498ZO8EDcBzlR3I4rzsx4a4zw+I5sRSkqe7t2PluI8h8QKSlVjF8u+h7ff/sffDzWbdUv/AAraSoFxJmH73HB/OuZ1D/gn/wDAK4SRbjwXCryjG9AQQT6c17n8NfiNonizTIrzTb5JI5AeVHfOCK63UNLs9Si8yILu24JFfoeT8FrO8n+sZbjZe0Wri5H41U4w4oy+u6M6842fdo+UNF/Yv8J/DhXuvCNmpjVw0cbkkqo7ZJ6V0fhzxZFoIOnzqcOMqEORx9K9i1Ww+xO/mcowPJr5u+OWuWXhnxARBdxJvdnX5ehGM/zr8dz7LMwlmcsNi23O/U+iyvMMfxPW9niZOb6M6Hxt40ED4eVRExyIifmz3IPeuF1bxnpzRoY7rzCWYZR+QMHr6+leP/Fn4729ndf6Zrqwhc8eZ0HrmvIL79qTTEnkSLX0ZkYohLHC84yP89693KOB8dWw6moP7j9gyLw6zDEUFKEH9x9LTeGdI+I+tR2LxCZ+F2c4Az7V7R4D/Zd+Hum6NDFqegQTFW3FWT8c88189fsbfEqz8T+MbQmdJC+VV8ltxxkjkcdTX3jo2im5iVmBxgY4FY18pz6tmay7D3VuiPguP8xzPh/FLAqo4xXmcXo/wk8FWqrb6f4btRtB24h559vwrSk+GkRDkaeFUrjYE6mvSNH8N2tmTPKuAF6EVmeN/Gmg+F9NkvbyeOKOJeTyM8fSvvp+EVDLckeOz3FOEnsru/3H5Is8zHFYjkptt/NnkOrfBa4eGRyoLyD5lH3fpXJ3HwLfTkaQ2jY3fKI4ydpJ6DPWsf4w/wDBRTwJ4QtLi90ASX32dDm3itZdzMpwRwuBjn2ryzwr/wAFjfgprImsfFbSaXfKrOlte27pwAT1xivgpcG5zWpyqZZCc4LyP0zK8o45qYdVKdJtP7/uPUta8FnTo5IkiRW24AQD5m9+K4PVNK1DTpJJZoirE7igXIA+netbwJ+3h8Hvi3ai4a4gSKR9kTyrkSc9iO2e5xXX3+k+G/HFmt94YuYbkooJRTn5Ov445rxvq+b5VV5MbSlH1PcpVs3yp8uOpON+r2PHodSS2muLiOHbK+DgDnAzjiqWla5qFl4mjmW2cESctuJ3euQP513fiX4L+LJpXutHgDnoIduFOfRuvH071yOq6Jr/AIck83W9DuIQn3pAoZR7cc4/CvYw+Iw2Ii0mm30ufU4bHZZi6bhGSba76nZ+L/GlufD6IboKrw4YlsquOvP9K+D/AAD4U0/xh+1n45S6dbqX+zmtoQE6sR5xyR/0zOBXd/t0/tIXXw4+G7jQrczTKMlmDIYTnhhxyc4r5V/Zm/bDsvhNoGpeLfFMYuNZ1SaeYyecTLK+CwZjj7pAEeDzkenNf2J9E/IaWQ8RRzrEyUKaP50+lNgc6w3hBUyvKKcp18S9FFapLrofQ3xj+Az+MviR4c8L6Ba2tnpGk2qSaikhwpkDF9rdOcY4PrV6bxufgpqj+H9SgiXT4G5bO0MPQH19K5f4R/tkaV8bvDOv3EsQsLmPTCjkoHkEsm5eMdRt281j/teTzX37O+i+OIUDXdhvXUZTxIwAG3d69/zr/YPg/i/BcX4mll9+enJb+Z/jvPI87ni6WT5xHka92z3u+r8z46+P3hTU9K1ttSeNordbnYIthX5z6evSvp7/AIJdaPeT6hd6nPemyjhuYjK0ZBbkH5T3FfNf7RwnHjiCG6lYlVG58nBOe1fW3/BOuzTTvBOo6pEAPPniWaMyY3nOAM449c1/lj44zjSy+tSj10P9qvohYerX8PcVi5VdbW5fU/T/AMP6dp+peF1sbdTse3BjYcs2cHOeuTVOz8P2vgi1n1vU3jMcb/flGVA6/nWF8L9YWz0O1s4rrcFQbldtxB64z7V7hoOlaH4h0gWmq2ySrNH88ORggjGfrX+bGPq1MHipQn8DZ9Vm9arlNWUJXcJPWx8P/t//APBQTwJYfCS68L+E/GANzKdgg09z524cY46CvgDwn+zb+0D8eWTxr40s7vw74ZviZY768JjlvlH/ADz3/MynP3hxX6o/tQ/s9fs4/CeRfiHZ/DO0uNVD/uZpIwyqxPGfx74ryLxX+0P4T8b+HrTTPEXh+aGFAUt2ghVRH06c9/T2r+guDeJcuyTJIxyXDOUpfFOTV0/JWP07hLFVKmW04ZXScaLfv/zSf+R81eC/hh8KPhikWm6T4ZidlULNcXiebIzL/Fk8A/SvU/h9feFtb1iF7PSIZHhdSGEIBxkd+v0pNA8F/CLxT4rbfqGpysFYPFtG3r0+te5fBn4EfDQahayaBo93KXBaNZTjcM9enSp4k4hgqUp4iU3No/Qs+4iy7AZdyTUk0j179my01KHUobjw/fXixpzMkkh25znG08fiK+rdK1mUWaSTcN/FzjP+NeV/DfwOnhzTBLbaakEuMY3549OnpWv4o8Zx+HdOd7vUUiCqSW3Y28V+P5LxrjcnzWpOjze9okj+QOIuTPc0fsY7v5l74s/FLQvC2iXOqalKEW3hZ5AP4QO/vX5K/tb/APBQuyvte1DTvD7ibyJ2RJSCGGT1H5V2X/BSb9vaC2s9V8CeHL7fcTGSFZI3yMEDJxmvzX1PUrzUXuNRv5WZ3bc7E8knrmv33gTgutntd51nS96b91eR/UHhF4aYLJMtlmeZxvJq8Yv7zq/id+1V468WTSi61QohyVXHOD79q4jSfinqkl0HfUZjk5YmU/41xOv38jXBRXAUcAdqzoLiUS/u88kc5r+lMHwxl9HDckIpaH5znP0isxybix4PBwXs4y5XFLpc/VH/AIJWfFqw1rxtpej32pqrRPuCs4+Y4r9kvCepxGzhkCrsZAf0r+ZD9mD4rar8NfG+meIdLvnjdJ0yV6gZwRjvX7z/ALLv7Tml/Eb4baZfm+ZpxCqsDjJOB6E1/M/HtOvwNxFHNaMbxk9fI28Zsir8QYbDZ/h4+5VirpdGfVN9qAksiCVAI6LxmvC/jxe6gml3PnQvKrkKkRjyFODzXpGga4usQqYpyVYdCKXXdGa9jZLqBZUfPylc14fHOc4jj/KKWKo3tTtdI/nbKmsqxylUV7M/Mz4u+MbnRNYks7LSggbhW8jgj1PHOffrXJaJongr4h6g9v4l8BabceegieV7JSwHQnOMj+lffHxY+Bnwqubc6zrOgFQoCu0Sc9QAK4YfCb4B6NawazBpl0SZWSLIGNwJGOPcV8LhuL44DDKjCE4zWl0+p/R+W+I2X/2coQpS57Wuj4d8af8ABNbx80l3q37NXxCutLkkUuuh3U++CQ4yFjz9zJ4yTXO/s1/tDftL/ss/HNfh3+0jb6jZyLJFHHHJA3lzJk5KkfeHuK/Q3QfjL4L8K6fdyaP4MuV+wSMbozqNyYGcqO/GMcil8I+K9N+OPim0vrzwda3tjJLtdp7QZjUd88+p/KvoKXH+IxuXTwmc4ZVYNWU9FJPprbU5q3GOZV6VRY2gp0LPdpP9T1n4Zaxa/EHwdYeKBYSW/wBrgEghljKOAfUHkVk/ETwPpVxbzSbdjFM8oducjqfevTLKHStM0qOzsrZY44owERRgAe1ec/FzxVZQw/2flt4BZgTtGPTPPrX5TnOV4TLsRGdCo7t3SXY/G8BisRXzFuinFN6LeyPh79uf9mbUPipoq6bDAllZ+Zuv5uDIVHICg8Ak47etfnz8Uv2U9Q0vUbjSPAulC4ihVpJpWcKsOxc53noxx0J6ngV+xXijw2PGmjXFil2AZY9quOQvPX3NfOfxZ+C8fgnwpqHh/SbVhPdhsyqmS7Hv/T2r9r8O/EPF5ZThg6k9L2S/Vn9McI59ha+D+o4ynGpJKy5kr6+p+Wnwf+JU3wb8ZXkNzCBb3gWGe55IiZWJyAODjPNffXj74fN8S/2aZtP0p4b2S+sDciZcf6wKMkexGOvHFfCXxI8KQ+ANU1zw/wCNLN4dQF00lurJx5ZPLZPXIr6F/wCCcHx31uPwlqPwl127Ahdj/Ys8uWjQsMMD3xwvb86/1A8AuOJ0s5o0pPe1n0P80Ppu+CtDhPH4fifKa0XOclKUF0PJP26PAs3hrxfbyfY3jRbpy6ngAHGBgdOhr0v9kj4hrofgW20aK4RIZb0eaXwuTyQM9/xrsv8AgpV4f8Oap8CNO+IEN4DqNxtLyJHxIMc/Qj+tfPHwF1mO2061tZpNirOpJDZy2Dz04r8l+kDw5DB5hVoO5/Q37OTOI8T8GYzB1Y3ce/kfqb8F/GseovAWmG1EGcNjd8vtXvnh74l2dtZeXZXSAj7gJGemDweR/Wvin4U+KrK08OW9zBqLeb5arvTsNvPFdRb/ABnuILs2j3ZSNcYkJ5Az696/zmz3hV4vFz5Vsf1LxJwXPMMZPkWiZ9S/FDwzafFbRf7PvpMOVwjld3v34ryLVP2RLDWbtYWjRUtMFQdwG4dwO/8AKr/g39orSXSKCeUYQcyPN8ijA+bpzXoWh/E/R9QtxNbzqck7SW7ntivl6Us+4fhyU7pJ6HxNJcRcO3pUbqKOG+Cf7KNh4N1KfUrtYne4undXdSxIJ4zn2J/Ovo7wF8M/DnhdVkigXEbHy8cBRnp9K4nTfFNoHNxancu4sQfXuKo/EP41Xuh2ZS2jkhX+8G5Ix0+nf8K8XH47O86xiVSd2fM5rPPM/wAVySk7yPVvG/xS8L+C9NkuL7VoEKKfk8xRkgdPyr4T/a3/AGxLu7stRi0u5IVI5NqxkNvXb6iuE/aK/aY13VtemsbnUJYrdThdrcEk4yfzzXg3jPUrrX7CcLI77sliq5DZGOeeOK/XeD+AqdPEU8Xjfe2aP27w38JsPgJwxmN95u2/Q+avin4rv/GHi651TUC7SSSZwx6c9PauP8W3U9hZGwt8sQvzEdq9U1XwZo+gzXesa9chnJzbJtwNxz19R0rzfXrrSZL5wjgnPH+1X9aZRUp8sIUo+6kj9045wFH/AFbrUqFeNOUlZO9tLdDzsWk87jKs2fUVo6Doskt6I7mHaCfvD+tbaiyF6F8nB9AOK17OztImzCNuOeD7V9Vi80qRp2UbH8icE+BeCx+frHVqymoyu/M6rwF8NNTiura+XT5Jrf7xEQJx+I6V+kn7BWsT6FBbWKErtBA4wVG0fhXyN+yJ428K3NwnhHxJHEPOQgM7ZOcd+K+2PhV4S/4Ra1jv/D7jaeEZDwM+9fzP4p5jVxWHlhsRG19n0P6J8QngcNkf9lQpckEvd7M+4Php4maxEdvO5fd8wcyZwfSvTbXxBBdKI95ILdcV8+fDLVnuooYpblfm24EZyR7n2r1NNXjtYwwnDYPJzjnvX8z5XxZmXC1d0aWsG9UfwznuVxWMdlqdXrukaXrls9lcwhkdcMPwrn7r4Z6C2nRaVBp6LHAjbAF9QeuevXP1qbSvEEVyN8MoZc4PPOa37OT7VGGPGfWvtcJi8m4um2qajPrY+f5sTg3yptWPP5vgl4XlmuXn05GW6iUXIK8NgYz+QAqTw34D8OfDe3KaXHHDGEChTgDAJP8AWu71WaC3tyC4BA4wcV4B8evilqOm+bYm48sgn5Q/8A684614ef5XQwVZYShNub872Pcyr+0c5qrDqTszq/F3x38NaGracrfOCUUMMDj68d6+d/iv8flvNdEMNySkchVvnGPrz2rg/iB8UWvJZV1C53yKxKEycqT0PH0NcLqUtzrdol1bO+YU2ggZB+p/CvRyzh2EnGrindn7twxwFhsAo1Ky1fc+mvhR4jg1ixea4nWVWfcGVugJ6YHSovjdaaHPok+sSRmNLeIlWBPOBjp3/CvEfgZ8UW02+n0i7ldct83mHBzjr7+td58RNRk8U+HF003MrwyK2/y2wFA5B/HpXNPJ6uCzmLbtG4sRkNfA59Gd7Rv07H5ift8aFa+LfEB8YR2sks1tJtuWdiE8rd8qY7556etbn/BP+8+Htz4ksYfD6iLWJFCw2cxV9kgPyllOSQP61e/bZt7KFb7QrFcB2U/e64PNePfsYWmoaT8QP+ExsL1YbmwnOyRV5U8YzzwOPev9HfALOpUJYdSimo2t6I/nj6d/BGGfBmGzWhzR5l0u02u59GeK/FFp+0j+yrrujXenW8txp+kmfTZIoADE6kYAGBzjNfL3wZukRbeFcEStnk847e1esfsLeLovEGvNpsmrForqMxlI08yN1ZTkcceleRapaSeEfiLrWjWieXHp+szWqbTkKEcr/T9K/pv6Y3B9PKM3hWpRSUkfKfs4swo5Bx/mmQNfFHmiux9a/D/xbNb2EFoZXJCBSCeRx09a15n1XVLsyp5zBm2si9MZ9awv2WfAd/8AEnUINPtJGmZ4l+cOM8LkHpwcivq3w7+y1qGkyCd7GSRmIEqhc7SQOa/yn4izTLcmxs6c5LmP9L+K+Ism4fx06c5Ln6nnnw+8CeJtWZFWOSR1OWP0A4FfT3wp+AuvW+iDzg+3cMSlckZ+vT8K9N+C/wCz1YaRY291qVhEZCgOwJ04HJ969dg8O2+mWy29tbquOwHFfjWcZ1mObqX1WHurr3P5b4w8SHjazpYZJI8v8M/CBdM2/bXPo24ZZ/rXN/HLwNYy+GpbO28uCXeQsgiyc4PqOOM817ydClKi4kXkc8dq4f4l+HRcWzyTxoyoCcl/Y9q+OdHNstxcK+IVrs+FyzPK88xhUc9mfl78cvhbfy69KbdhlWIdo1yemOo4Gfr3rh38FDw/oN1dawhSAZeQtgYAUc8fSvtjxN8LbTV/EMt1PGrrnDBY8KQTxwPyr4Z/4KhfEuy8BXFt8MPCknkvIhe6ZVIJXsOvqCK/pLgnMq/EWLp5fS7Jtn9Z5Fx7TWDjTqPSKu36Hyz8fvilY6r4kk0/SrgfZ7bCRbc4frzXm4drlmnnc5wCxJrJ1K6W61IzvcZbcCwP1q9ZR3Gq3IsLHklMu56Cv62yvJY4XDxpQWp/MXGvjVisxx9etiZctKm2oLvYsNexiVFinGdwBPetmfUpbdV8kgKSAQfpXOapo8ukOouHDMoDuAOc9q0PtL3cMSIvGzlkGSCeea1zDLvq817RnT4YeKWIzqjX+qNxk9rbHTfD3x/e6F4lgv7Sd1eKQAOGx3/wr9Ov2JP2lvDHxE0mDwfdXcS3/Plox+8Qo4981+U1hZrZN9olc7sHtjPFd58Afip4i+HXxEsfEOn37ItrdLJJgnGAQf5V+X8ecH4TiPLZKGkop29T+gcDmOJz7JP7PzVN1ndwl29T97vC+kXGl6lBdqjCJkDbIQQW9M16YLSDU7VQ0YCkKCI88n29a5f9nTX9N+J/wZ0TxlbhN11ao7FDnPHrXfaRYmK6aEQkLkFR246/zr/PbNcJilmzwk42lGVr/M/l3O8VJYydOatOm2n8mSeH/CU0Dx4bcgyoQ8gDPX+ldhZaNJHAFGeATT9BskjChk59cV0ltp48osx68Yxiv6r8MPCqjXwXt5fE0fAY7MZyqHnfiez1ExypGSCxwjenHvXgPxs8AaxqCSPdR+agJLSMATj8elfWmqaVbzRlGA+XOciuI8W+CrLUoxHJb4xnCnoa+I8RPDfNeGcxeNoNyT6Hv8N5/wDUMTGfY/O3xF8JNQudSASLzM8shTk+/vitJ/A40nRY7eODJCfKzIR8vr0+lfZsXwh0eK7FzdWqbl5x5Y4/GuK+MXwp0230G4msrUREKxQqQSeRXwX+s2IjOFKtFxP2rB+I0cXXp0ZbHwdfyx6N4xjWBwHMx3hV28+p7nj0r1jWfFAsfCqXsIG4xKOo54659v6VyHjb4f30PjNLhSgZbkhjjHGTnr+VX/HF3YXXhl9JiBZ1HzgsFAHTivvK0qWNdFrXa5+sVp4fMKmHa1Wh80+Jvhy/xy8f6npFjbQN5MDNKxUAM3JBA/z0r5A+IPhLxR8LPGVwdL1afTb2B2R3jdlLKDxj681+l/7CPwhufF/xP8R+IUKlLcNGh3jBG3vnr3r5v/4KRfstp4X8S3njS51S4JaTdIWZeDk/KuABiv2/gni2OWZ+svVTlXLG1u9kVxdSyTjbB4jhvG0o1lCCcFLo7Hzd/wAEwfiPr2kfEC28JwXGyCS6UgsuQo6cenWtr4p6Sw+Pnjq1MhaWPxZfbGcf6wee2cV87/s3+ONQ8DfFLT7+0vpIUM67ikmOh6Yr6++M3heLVvGms+LtKuElW6trTVnliXHmNOm6TBHcF+fev9avpqYWGZcL4LNqEfde/kz+Gfom4Cjwx9JeSqtJ1qbSXdn1r/wSpgsBeRW10pDtKAu0A4IXn37Gv1AsvCmmX1hF5lqFXaDgHGeOtfj9/wAE1fiM2h/EyCyW+VEeUeUGAJfj0r9jPClw19o9vcKww8KnjnqM/hX+A/i7hKsOJvevaW1j+ofpA4bE4TixzvZS1Rt6BHFDH9nC8qfrxWyBHlRszx1NZNlF5UwZB1HIq75ofDbx09a6eGa8cFl6hKKlY/m6t79RtEl/vkj2wgjHoa5nWNLk1CNrd0RkYkOGPH5V0UsrCLKA7vesm8eRUL7yAT8wx1ryONVSxEFOSeivp0LwnNSndPU8P8WfD2a212RNMtNwBP3QMDPTj2r8sf8Agr7+yl8UbP4or8S7HQ5rvTryBUkktoi3luM9cfhzX69+PPGNl4avCk6Bmck7cDK8f5NeSfEn4xeDLqOTT/EGlW95GMmSG4jVxjaD0I6e9Z+GvF+ZcNZtHFUqXPFqz9D9h4YxmPqWhKl7SnJWa2v8z8VvhJ+yVo/jDSm1LxjJf2siuVAEOB7dSD+mKxPHvwWg+DmvG702/e6sJk2yu6bWjPbjv3r9SPjL8Tf2f4tCkvrHwlpMJwyu8AVQpx144r82P2qPiXp/iHW7i20K3RbTLFYy/wB7n9K/r3gnjjPc8zRVeRxhfZn6hm/htwVxdwXinjcv9g4xdp9b+vU8y8cx6RJpgeLUo3mmXKgA5A64NX/gP8Pz468Q22nawHe2MiiQw8fLkdM4xXCqEumVo9zSBgqQrkL7V3fwm+J+tfDTxXF59utvJEwDQyxjDL17jj61+wcUV8ZjsunUw0bStufzP4B5JkXCfGs8Fj8Snz35F0fa/mfdniT/AIJ5fs3zfD+3vtD8Nas9/LbIT/pLPh+u7p264rwb4bf8E9vjd4y+ISeGPDfg+8+zSXexbqeBwqru4YnHpX6H/sLftgfBTxL4Os4/FOk2nnrCEd5HBAO0Z619NL8evAttFHH4N0+0gEmQJI0UZ9hjiv46xviRxRw5Oth8RFzbbSvfT0P6OzTizPeHsZUoU8Dzy1UZy2SfbyN39mD4PP8ABH4L6H8PZ5lkfT7VUcpnGcc16roWhrO6yytkgdBXlXg/4o3Wv6wpk+SAhuQcr2xk/nXsegTI6KUbnjOB0r814Op4bPuKPa42N5OV7M/mviH68sTOrXXvzbb7a6m7puloIwEi53de3WtaPzEj28Z7AVWsGZCoGe/birZbJ3DPvmv9A+G8uwGCwEfYpxdtj4CvKU5akN3E8sJGxclaxNVtgxK7ATjr6VtXU7FWOOMdqybyURqcg5xyetfKcdUcHWwzVTr3OjDNxmYE9oGOSOQO/auS8aaPayQS3NxbI+0HaTx1rsbxmYscgBugrhviDeTxW3zyMAo+VQPvH3r+HOOaWGpJqMdb6M+qyznniI27nzV8btC0u01IXFtAqAktIBg4Oe9fMP7QHj+Hw/ZTLbzg7UwQDgDJ4619N/Hppmt7mdwjgZX92eVr84/24viVBoGhzaVpup7pJZQJHyD5eGyRk9+PrX1fhtlNXNsRSpt3P648O4UnhFiMRL3YK79Edz4K/bN0b9lXwxc3U13CupX/AO8EULAllJ6E/wCPrXy9+1H+2R8UP2lZ2EGmPHZGXKptxkdm9+9eY+CNM1L4s+Lmh1a7adY8InnSHGe3f36V9H3PwMiuNLstEso4ElaMbHXaCPbjqK/uPgbwYwDqPMqsOao+p/GXjz9K7CcPZ/WwOQUlCV2pVXvp2Pzw0PWxourW+rQqzvbSBgqtgmvubwF4v/4WV8INB8XWa7P7MZbDVY4hnNrL8wlc/wCzIkaf8Dr4HhKeYELE5r3j9kD4y6Z4O1S5+HXjTWJotF15Rb3DCZwqY+ZCdvOAyqce1f6h8S5LS8R/DPF5DNXrRi5U13aXQ+bzapj+EeMcFxXgdJUJLna/le59nfDHRr34L/HLTJJbZ4YLy1W4tXQhchkyTj0yTX7Cfsw+PrPxH4CtEjuGciJRiQ5wdoJx7c1+LHxk+JetC+8Fm90/Zc6TFHZW+sWsnm2t/blfkkWQEruZMEoTuUkggEYH6SfsF/FPV5dJsoL4EQTRgK2/odgHIHI/Hiv8FfHzg7OeH6q+v0nCrTbTTVno9/M/tjj3N8q8TOCsNnuBqxqSS97ld2n2fn3Pta1mMZ2A/MxznPQVqo0ZjDrgjHYVy66tCtoL4MNoXcSvcVasPFFiQlsZgGxgkHgV+CZBxHg6MnCs9PM/l+vh6jbdjdu1QAStnAFc14i1+ysLGaeVwoUHkGti/wBRSXTmdZ8DyyA3qa8E+Ivia6uXlsDfOyLKR5ecbiDW3E+Nji68aeGl7r3PRyPLJY6tyvoYPxQ1aTXdRllt2yrLh3Q/f9PxH9K8B+LemXemWct0988KqSwcHrx0PrXtltN5koeVhtVugHTNecfErwlr3xG8QpofhyJXBuNsrO3yqhABOPzrXh6pHC1kpNKMd2z934ZrUMrqKE7KMdWz4K+Puq+J75LnTNItXeITksyHBcYHb/P0rxPxr8GPiDrPh1vEt94euFiVNzSBchF7HH55r9hvD/8AwTr8P6v9l1vU7ZWl2fvBPGu33+U9z/Su5tv2I/CUtmNMm0y3ltwhjWOa2Ta6n1GPav17B+MGV5JCnChT5tdWj9Nx3jXwnHKJZW6KnTekj+eCPQtT8P3sWo2NsZJIpN0aSqeDyD/Ot218D/Ezx5qsNyPC1ymWygigIDLjg+/1r94tR/4JmfADXNRAvvhdpMfltvieGyRA2Omdox+FdVpv7CvgS3SMR+GtOgSJNqRRWiDjG3qBX3FX6RuElgvZYfDyd+h/N8so8KqfEkM4jCalF3Svpufi98Bbfxj4L106Zcym1TID73IIb6V+gn7PF7qupWMFrLO1yAu5jI5wQQOnFes/Fn/glX8M/FN9Drmm2xtJYpFeRbVQC+Gzk9zUmn/DC4+Fc9vpSafHGsAxC5ABKjjJ71+WcYcc5PxJQToxtVe6at+J+8574j8NcT5bCjgopTiranpngGC+hsY1MDfMuFIP3T249K908EXkjWEL3OVcoBJubPPpnv8AWvEvCvia5uLYSLBGGAG5tmfMH068f1r0nwhrdxcL9nHDBQRkEKMdf51+LZfmtbJc6hiUtmfzbxJQq4htyXU9f0+czQhw/StOOQhdpU/d554rkPD+qmWMQtJzjnFbsNzIZAFfIx3Nf3pwNxvhcyyqE4yvKx+XYnDyhPYmvZDsbMuODworJuLkkkMWwPXvVjUb5zkHspA5rMuJjIuXPTivA424ipupaDv3NcNRdrsZdmPyGaJcY6Zry/4pxEYvWkYgL869iexr0a6mMcRbdnA4J6V5p8WLmVoVVF+8Duyw45HIr+WOOsbDGVYxWjR9VklOSxUWfL37SPiZ9M0O5lktHAGdr5BP1B7V+S37YXi2bx18Q18MaM4D+aRuD8knqelfpD/wUK+JuneFPA9+GuPI8uBgp2nnnH5571+f37PPwG8cfGHxa3xKvNAmubKaRltZAobgMcsR2GQeTxiv6f8Ao2cG187xMa0Yaeh+k+LviVl/hR4MV8ZVqKFauuWGurJP2Wv2dtcS9huZIskt0ZMHJ9+4r7B0H4a+Efhho7eMPiNrcVrZ28fmPLKgIB7jrz0q1o9l8PvgJ4XXxF4xeBZETKQYDseMfMRnAyK/Pj/goL+3b4l+LupzeCvDty9rpaEARxSFQhyeSR+Ff7B+Ffg1ic15VUg1Tjuz/EilHiPxh4qlyNxot+9P87HxyrBXOOgPHNW4JTkOknzDoc1RKrk4HWpoQEUEdCORX0GWY7EYLFKdJ8rXVH+sNXD0cVRlRqRvF9GfVX7EPxUvPFllf/BHxRPPcRXltIbCNiCROiFodpOdv7xU6V+pf/BNTx4/ibwZbWmtELd2cj2l2keAySJ8jA+5xX4cfCfxpc+APHmm+IbeaSMQzq2Yz096/Vr9jP4maF4M+M2nXenXUEVh430yPUoRGjbYrlV8p4ycY3HyvMPPG/NfzR9P7wsXFHh/Q4qwVNc6jabS/FngeFOay4a4xxnDlRtUcSr07v3VJdvU/VW18RCaOPTJmj2svyDH3ABzk55rbfTfMiV4ZNsmM8d68T8Na8dRO+xnYyof3TM+SO/BzyK9T8N+Ov7Ug2SFA6xkFmfaQePyz+fFf4E5jl9XD1fd6PU/VMzyutgpXgtOpneI/F2t6Ui6XMJCW+bDdUHT+tclc6bJqt3I0lsG3NhCFyN2e/pxmu2+IE1lPJDeJlmk6hSCAepG7tU/gO10vWZy1xbABR90Pg5xgn9a6KFWyTgtdi8Ni6eEwvtYx1OG074fXOoXDW0MDKyNmTA4weP0z+legeBPhVpeg5uH05fPDgiQ85H5V3fh3w1okCfZ0SONQMBU9K0r17DSY1W1jzxjJOa+5wXCmJxOA+vYuvGFJdL6s8LMOJMXif3UNEULXS2eHZHGQQOmKli0OVXG+IkMMmrFn4jjAEkkfAPpWrZ6/YzsMj65HSvush4a4MzCMFPEK583VrV4u7VzJt9DmW6CmP5WPAxVuXT5omEaw/Tit+1v9MlXe+OCccUXN9p6Deu0gCv13D+GvDOAwPtViI2fU86WMrTnblOXv9Nd1wYcMfQVyXjH4Vad4ns2i1CxyXyC4OCMjHpXolxrkTMFjhH4ipbW/trthHLb4z3r4rHeH3DWb49wpYq0+j2O+hmGMwjUloeF+Gvg4+gTeSGkkCqMAN0GT04rqtP0BNISKOGDcQR5hc4Nei6lpulOplgmUHPc1z+r+VFIDEFyp4NfmPF/h0uHpudSup9U0z0/7ar45rnuP0O3lM25CNu0YzXVwQiKAFgCwXJxXH6ZqAjnww47c10Caw5h+4BkV+oeF2d5Tgcskm9Ujx8dTm6mhHf7i+cjnoKquVTIfJOc4p091HcMGPBHSq87qgLFufSuDPMyo18TOtTldBSg4rUq6lKrr5QOPUGvO/i/qFlpWlA3MiAvn68A13OrXflt5zDCqDk5r5S/by/aC8LeAvA95qt9qCL5EDbMsRk+hFfj2JoVOIOIaeGpRbk2ldH23CmW1cfmUILbdvsj8/f+CnXxSk8f+OLH4M+ESJbnVLwRO4OTtB56fd6Z716/4H8DR/BH9ny20W5EcM8dqiEAYZsgZbIPXk14F+yF4Jm+Nvxa1/8Aaj8cxs2nafcslgzEqxOcBufvccZNWf2tf2qorPU3tdP1Rntt2zy5SoIGdvODjFf7mfRD8GsTl2TUKrhrJJ3a9D+B/pg8f4nxN8Q6XC2US5sNgvdl2clueX/tH/HPxFeRz6LqmoRusTbYnlB4GTg4zzXxH8QtUt7zU7pztMsgwwYZ3cnr/nivQfjb8YbDxVdSXK3OZw+1BGc8D19a8fv72e/nNxdys7MeSxya/wBSKOY5PwJlH7+yk1blR6/hZ4e4uhhFy0+Vdehlp82Mip4wQu0CoYSNuD2qVX7NX8b04qJ/YUNNS0MSxgeZtI6HPpX13+xV8Trnxl4Ifwbbaiseu+GrltU0KSZ2Zi0SBpIVAI3GVEKAdMt0r5Cg27MZzn0rrvgv8TNa+E/xCsPGGg6hJBJFMCCDjnpmv0HC5bl/HnCOK4ZzFJxqwajfXWx+dcc5diMNKjnGC0rUJKSt2W6P3n/Yq+OkHxM8PWmsSzhpXASWAY3ROAAy+3PrmvatT8TyeEfEcekiN5BMoMUpOPrn6f1r8wfgJ8dIPhH4ps/iR4ckI8L+KJBuigkJFlfAL5keR0ByrA9y59K+9ta8dr4+8OWGvaQFkbYGVg3IHHH41/zw+O3hDmXhvx9isvxVO1PmdnaytfQ/qDhvMcFxzkeGzjDO8ZxtNfyzW6a6anueieIor3NlqM6uWJkSPpn1z+ddF4I2WOpu0NwkjMM4QZO0ngfyrwDSPHF217b2cqMJWQKwkTgZ9CO/tXtHws3/AG+CIttXBwxBBx6HIr+cc1y+WEjePXY8zPcsWBpy/BHpU2sz2ii5C7WDYZScf54qoPHmnz3Hl3E4QAjHzd89K0LjSra5VvPRXyvGecDFcN4u+H1zdH/RVaRA27A4I5rxqNfF04ezrVHFPpfQ+KwlHBVpNS0Z2zeKtLiiRjcIY2BJYHt60WfjfQ3fel2FBcZy3avLZPB/iSKDbGzSxAZ/e8Ef5/pVSS51u2u4LaOwActtUNIQE/HFephsVXpSTo1Nj0VkuGqU24zuz6DsPEWmtEMuMHp81LPqtshMgOVP6V49N491bQdNMtnpPnPC3zAttwPr3rF1P49+K2dfK8JKcAEulx8w4z3Ffa0eOc/xODVBpWXmedDhrFVanuL8T3YalAxLh8BepzVe48X2NvN5IuV3AcANzXgWi/GDx1qlzJHdWYtSX8tUY5DA8/j1ruPClhqqQK2pqHkdvMeYNj6ACvJx/FebYWlZTUZd0x1+H3g/4zR2cniyW4mMfO5hlQO4p0l9NK3lckA9aydF010AuZgDIzZYsMH2H0qfUrlLCN5UjBL4AxwD6V8XiM4zPGXdarKSfdnL7ClGfLTRfsb+MODMQGBz19a1JdWDxfuj1HBrxPxT8VE8OaobWaVlEzhDI7dGweo9O1a1n8WoksYXWdMKRuJGcKOte7l2Z5rlmG5YK6lsdtXIcXKnGoobnrNpIbhM8YHUg1Fe3BL7VIwP9rrXFeG/jL4bvXeGO88uRTgI/JI/vCtm78TWcVjJqLTAr5ZYHdjNe1iM+p/UY00mqj3PLnl2LpVVGcOpyH7QvxE/4QLwDfaw1wImihYhj6AV+Iv/AAUU/a+1n4p3h8L213ItqJt0pV8lgc8fQ/4V90f8FWP2r4/C3ga78OabfN511uSFUm4b1Bx2HFflBq/hLWtZ0+TxvraFReXYjiBGN+5uSB6V/RHgNwXThXp5pjI+9KS5b+p/QGS8JYrLfDbHY1R5arpyal2Vj7F8DeNNO+G37IOgaPZyG2uNQsUuSGwF2EZXd9QQa+A/2ofifLqHiCW1hvfOeSQtvA4bn+h/lX0b+3L4+k8H+E/DvhTS7tkgs/CdhB5IGAzC3jB4HTnn8K+EtW1C41rU5dQvWZmJwMt2HTHtX/SP4QZbgOD/AA/oZjVaV4Ky87H+SnhvwRUzTibE5hU96U6km2/XqVS0mfNlkySSSap3t6VkyHGfWpLqfyyVZvpWbeks2Sc88Gvx7jLifF5zmNSrOWl9D+08BgaGWYJUqMbNF1Rk8mpVAbAI70iLkA+tSIvHAFfPwjomexCOhJGhUbl5GKkdleAjAwP0qJCyDANSxnIwT+VfSZHjJYLMadWLtYwxlCOIw0qT6o+lv2Kvi7outaRqXwN+IOoPBp+qQloLlVJazmAxHOnup5wOuOc1+hH7D3xZ1Kzubj4QeO9QQ6tpBCl3m3pLB/DIpBwQfXpX41aHruoeFNVj1fSpWR04YqeSp6ivun9n34q3Xxl8M2GveFbhLLxnoERGnyOdqajbAAm2c5yxGMp2GW9a/Ofph/R8w/i3wO+IMpgvrEI3lbd2R+eeHvGeI8LOMJYDFy/2DFNJ9oSf2j9Q/Cfizwfe/EiHTrzUAkLAFNo5JyOnp717x4i1Z9BntJorjywHDJheCvcj1Pb8a/Mf4QftG2vifXdP16dZkk8w7oTw0ZyPvd819xWnxXtPFPgC0vLKdZJofuFjhvp3r/n8414Ox2TY2NGrFpx0affY/tDirhuc44fFYeftKU4qzWqs9mfUHhPxCutaeLhVVeMqwOS3FPvC17JIgUjbjnOK8D+HXxX1OC3WKWZAUIyoyeOCa9IuPi9pdraefG4Z1GZcjnpxj1r8lzTAZh7T2XLfsfkOO4exeDxjjBXudJq08enWrT3EwU4+Ut3+vtXnmr+NtMffGIxHhjtwCSp75zWL8R/jbFe2LRKrshzlgNprxLxP8QVSdrxWZS7E4Jypr2cl4cxFaP7xas+s4e4TxmJV6qs2e16r8QYt4VMmLy8HGSSf8ayE8QA3WQHcvz8ykfL1z+X4V8+3fx0g0yeOzuJmYtggs2ADitfQfi5HPA5jkJVmwwBxnB9a+t/1Wr4elezPt1wZisPS5oo+mvBF9o893HNdWwOGyo2bgPQ5r1XRbeKe3VnZWRj8gK4IH418heGPi9pemj7U108Z/iRsAbc4IIzz3NesfDf41W+uPAtnfrsEu1wzAArxkjk/5FfI5rkGNpz5+VuKPz/iHhnMIt1LOyPeIIooIVZACAvrnArjvHHjbTdNjkjkkUbDlt3qKvyeNtOhsmuDcKIwuFw/P5elfO37TnjaGysZru1UK7ZDMWwMHvn1/CuLLsDHNMbChCNkj5/hvI62Y5gqc11OX+KnxKj1/wAbeTprq3lybZAFLcYODXa+DdF1268OSXCI7RrCWLN/GT2Hr1r5k8D+O7Z/EUt9f3jPuU/Nu6mvV7H9qiLSdHk8P2jxhVibHPtzn8M1+lZhkWJp06dChHY/bc04ax9ChSw+Ep3ta9zpPCmvRReMX0zVL4xPFKAioSd3Tj+lRftQftS+Hfhb4RlS11rfKsDhFEnDtjofp/Wvlvx58e57fV7zVbSeRWaXdGIP4TwPXn1rwD4sal45+JeoXF7qV3K0CgkEEjkjrjmvrsk8PqOOxsK2MaUFa67n2uQeFkMzzKliMdLlgrXXcyPiJ431v9pz4oQ6pq80w0yCcnBfKsCecA/QUfG7QbGaLw54R0eHa9xqtvEGUAYw3QDtTvBehyeHdNLhtzggr8mNp9zn+lZOo65N4h+NPg3R7iUcaqrZAwflRjj36V/TPAmCjiuL8Bg8PpSjOKS+aPqvGuOGyLwtzSphkowhRkvwPLv+Cnmqapa/Eubw0b52WyP2fhFGdny/wgelfKn3ogw7cZPevoH9vuZtX+LWsakOV/tKZw2CAQXPH614AzZICn5SPu1/vNxHy5d4eYHCR/kX5H+RXgxR58v9s93r95naid6EgcjvWez+aK0NRIjBG3qKy/MEbklRX80Y+Vq9j9yrO0jajA2AinU2MHaBmpNg7tXsU3dHbFMco4wMVIFAACmmRKAMlvpUgGTwfpXoUYydmi38NmOZV24ZCSR1rtvgP8StY+Hviq3n0+9aJw2YpCRxyOOa4rHOMmomzHIskf3gwK5Pev23gPOadaX9n11eE1Zrvc/NOO8go5lls7pH6Laj4xiHh7Sf2hfD+xDe6gmm6/a26qyTTMrMsqgcBj5b5PfNfQ/wY/aAS20FF03UY5YJSMJ1KsTyB3znrXx78Bb678SfssQaLNfKYLLxPaXjIeSWVJU/L5zmvoy7+EV5pVxFrnhi78lWAea1jT5WbjJHoK/x0+mnwVkHD/ibWw9KCpxmuZdrn9S/RKzd8Q+GVTLc2qucqFRxg30S2R9ofBbxpo2sWtwjyqSsYJBfDZIyfyJrK+KHxT+xX3lIZFjVTtLZGB0JPevKPgb4/tdGmSw1QJFK52P5gIGc/Xnmsn9oPxJe2+qNJp9yyruMjLG2eAM9D274r/Pulw5CecuFtOh+vUOFoviF05q6e3Y76++LA1qQxy3yhEcZBcgge9cp8UvGyWmmi6g2sSc+UvzYH16/hXh9x8Uo3TEIYTRnd5x6/l3qtqPxOvb+0xLesoA78g19nheFPYVVK2h+j4HgedCvGUVojU1T4iW17dFS2758LGCQAfp2qzYfFN9PiBkmZIixDDeFCnPXHb614x4p8UpBeecodWBLFlfAP+HWsW6+IiGJViu1JOTtznkj/CvuqXDkK9JR5dGfpMOEoYmjGPKe/wCsfHVbCyeSK53tnAZyMsfTnr+FbnwM/aUvINdglGoiMqzBQJ8qpPReDzz2618gap411HUJPmlO0HofyH4Vs/Dnxr/ZlzIJifnYEsGwceo9K1xXBuDngZQlG7KzDw/y+rl0oSim2j9TvCv7R0Gu2yWy3OWkhxIDIFJPbp079OfWuM+PPxXstc0afT7p1fA+bc4GPQ8V8xfC34oakbhJbeZjBIuVY8sMfyr0nX9N1PxXYK7ffUHe3qPevyWfCuEynM1KWln0Pw6XA2AyLNlOWiucXoviS6gvZHgYrEM718zJU9f8iq97461a4WWz0WJpbiR8Ehc7FJ647DmtOfwbcJbJpmiopZjiWVzwfWuy+H/wetLaxedZ42bkyTFOWP1z29K+nrYvL8LFVZan2GIx2W4WCnNXPMtL8E6xqzGfVXb7xbLArz7V0us+ELG00zEERWUx7pATznseec11XiSKw0BiplQGMZ3Do3+FcRr/AIjkmmJuJhJ5nygg8r/nNTSxlfGSU46RNaGNxWYTjOGkThPF+mpp8TMx5GQzMG5/rXlHw6sJPEv7VXhXTVWVgNRkkIXk7fJkOBjp26V6v8SdRaTRpJInX5AxyT6eleSfs3XL3v7Wnhx0fJF5IyqW6jYw/Dg1/QXgrGU+L8JOfSa/M/MvpP46pl/0fc2qvfksePft1aJqNp421G6uzMivcu6bwefnx3r58XbtVl5yvUV9tf8ABSXQHi1a/M+mxxxo7+W7oWJw2B0xjj618RxOcFCOnAb1r/efO8vq53wFh6tCF5witvQ/yb8B88p1sqp8zsn9xWvIPMcsQcAVj3KeW3ypmugulHlkg1jTKWk24696/l3N8NVpycZrlkf0vVUJJOL0Zpw5A61MQDyWFMiL4wQMD2qURDzFRAxZiAqAdT7V7+XYDE4+ooYeDk32Kr4mjg6TnVlZLe4m0r24p8Sgcluewr3b4H/8E8P2j/jnp0XiPRvDkenaXKy7b3Un8tQp/iOe1fRHgX/gkF8NdCjSf4z/ABVuZp92Ws9FKKGA7B2DdTmvZq4PLcod8wxEYW3W7XyPxrifx74C4bqypyr+0mukdWfAhaMHB9M81F5U1zkQRM/I4RCetfqVpH7Gf7EPw/miuLbwHfamVUh11S83K2OrHaq1T8Q+KPgZ4Ojlt/CHwi8NWhhUFCtiZPLYfd5Zj79aWC8UOC+FsUsRFOpbbpqfkmZfSQwudwdHA4OUk++h5J+x54e1CP8AZe8RXGv2awfZ4oZ7eRk2ln89BgH6Ma+8vCujW01hE0myQNCrMjLncDjv9K/P/wCKf7RviPx5400vwVbavBBYPfRC7tbC3jiikVWHBCKPrX6EeDthsrICNXQxKciTjaBwePwr/Kf6a/HmF474xp5jh4cmjX3H9u/RJw+bw4PxWPxHuxrTbUV0+Y74gfCiGXSIfEulW4iljVvLeNOB1ryvXtQv9StH0zxGpEiHaCJC2Vx7c896+vPD39k6p4Te1u7fKuh8tWHt2/Gvnn43+CDot6dUhttqFzvbPIGPav4s4fziVeu6NXdbM/rrhfPHXxcqFdap6M8B1HwBbtPNd6fqEZQDIQNnHXjFZOveGJ9NtQ73yuQCRsHfvzWz40uprOWQ2jrtALBkbj6HFcpK13fwFnRkEi8qXJx6YGa/W8J7SpBSctD92y/6xKMZ83unGeIbU3Du8+44YgYPXNQaV8M01PEkt8ANnyoEPOemeO1auq6ZZ212ylXdXkLEs+T19BXXfD3SNKnGXVlUElgj87epPOa+hrY2eFw14n1uJzGeEwfNBnl2ufD02E7Q2heVjhBsBHPvn/8AVWl4V+DHie7v45Bbu28Y+UAhfr3NfVvw/wDhZ4O1GIX2o6THIFUFAzZLKehI7cVe8XeL/BngyMWdhpMEbIOWEYynse9fO1eNK05+woQvLqfE4jj7EVKn1fD0nKXdnF/DX4a2PgrTI7jUrRYpD8zAyYAJx1FdNrPxUNtp62FheLhn2tx1A7c1wGt+OLrxHeyRRTEIzYMe7qO2PSrvhDwVqfiK6DFyAWBVOuRXg4jD+1m6+Kep4WKwcal8TjnrvY6fwtr11d6uIJQ3lg8Ip4HpivedA0eWLwely1i8fmhsHO7aTn06Z/rXKeAvgnLDPbSDTGA89cjd39Tx2r3zRvB8KWAsLtSVYMASMDHIGcdPWvzniPN8LCajB6H5Jxbn+EVaMaGyPlD4tWeoiWVW3KqZKsGPZehrzuVJJypuJNzMMbM9D7elfV/xl+FWlQ2z+eFYvkoC2MfLjOO4zXzj400GHRZHkABKNglB0zX03D2aUcZhY8h9rwlndDHYaKjueY/E2xaPQ5RHM0TbTlozzg9sd68l/Ze1Gz0b9rDwy+q3QVBdSRKd20Byhxg8ccV654+hkvdImHnuzFNseK+YPHOkalaasLiyuJIbmCfdDKhKtGeeciv6G8Lszjk+ZUsXJX5JJ29DyPHzgnMvEDwfx2TYN+/UVkfW37Xfwxi8ZR39lrci28sm9hMQC6gngAnt7jtX53/Ez4KSeDNTuIbTXkuNrE4PGe/X6d6+qvhD+1l4h8N6cnhP42aW3iDw5MArXbg/a7X/AGlb+L05BGDXp3jL9k34JftG6fba78JPEaxi7VWNvcMEK8cjeeD+Vf7L+DX0guE84wMMLiKvLpZp7H+EOIyHjLwBzP8AsziGnKnTv7sre60fmdFu2lCc4JyAeKrHSwzls96+ofjh/wAEzvjj8Onu9a0zQfNtIskSW7bkYdjnpXzXe217pt7LYXsOyWFtrr6Eda+v4t4XweeVZZll1SM4Pouh/UPAfiNw/wASYKEaFVSa7M//2Q==;" vertex="1" parent="ZQFW1FxyH6ks3i3n7b6g-322">
                    <mxGeometry x="224" y="304" width="224" height="224" as="geometry"/>
                </mxCell>
                <mxCell id="ZQFW1FxyH6ks3i3n7b6g-323" value="" style="endArrow=classic;html=1;" edge="1" parent="1">
                    <mxGeometry width="50" height="50" relative="1" as="geometry">
                        <mxPoint x="-162" y="520" as="sourcePoint"/>
                        <mxPoint x="38" y="520" as="targetPoint"/>
                    </mxGeometry>
                </mxCell>
                <mxCell id="ZQFW1FxyH6ks3i3n7b6g-311" value="" style="endArrow=classic;html=1;" edge="1" parent="1">
                    <mxGeometry width="50" height="50" relative="1" as="geometry">
                        <mxPoint x="940" y="519" as="sourcePoint"/>
                        <mxPoint x="1090" y="519" as="targetPoint"/>
                    </mxGeometry>
                </mxCell>
                <mxCell id="ZQFW1FxyH6ks3i3n7b6g-313" value="" style="shape=singleArrow;direction=north;whiteSpace=wrap;html=1;" vertex="1" parent="1">
                    <mxGeometry x="960" y="130" width="60" height="390" as="geometry"/>
                </mxCell>
                <mxCell id="ZQFW1FxyH6ks3i3n7b6g-327" value="" style="shape=singleArrow;direction=north;whiteSpace=wrap;html=1;" vertex="1" parent="1">
                    <mxGeometry x="-120" y="130" width="60" height="390" as="geometry"/>
                </mxCell>
                <mxCell id="ZQFW1FxyH6ks3i3n7b6g-328" value="&lt;font style=&quot;font-size: 22px;&quot;&gt;Channel Concatenation&lt;/font&gt;" style="text;strokeColor=none;align=center;fillColor=none;html=1;verticalAlign=middle;whiteSpace=wrap;rounded=0;" vertex="1" parent="1">
                    <mxGeometry x="-220" y="100" width="290" height="30" as="geometry"/>
                </mxCell>
                <mxCell id="ZQFW1FxyH6ks3i3n7b6g-329" value="" style="shape=cube;whiteSpace=wrap;html=1;boundedLbl=1;backgroundOutline=1;darkOpacity=0.05;darkOpacity2=0.1;fillColor=#e51400;fontColor=#ffffff;strokeColor=#B20000;" vertex="1" parent="1">
                    <mxGeometry x="240" y="720" width="80" height="80" as="geometry"/>
                </mxCell>
                <mxCell id="ZQFW1FxyH6ks3i3n7b6g-330" value="" style="shape=cube;whiteSpace=wrap;html=1;boundedLbl=1;backgroundOutline=1;darkOpacity=0.05;darkOpacity2=0.1;fillColor=#d5e8d4;strokeColor=#82b366;gradientColor=#97d077;" vertex="1" parent="1">
                    <mxGeometry x="330" y="720" width="80" height="80" as="geometry"/>
                </mxCell>
                <mxCell id="ZQFW1FxyH6ks3i3n7b6g-331" value="" style="shape=cube;whiteSpace=wrap;html=1;boundedLbl=1;backgroundOutline=1;darkOpacity=0.05;darkOpacity2=0.1;fontStyle=1;fillColor=#dae8fc;strokeColor=#6c8ebf;gradientColor=#7ea6e0;" vertex="1" parent="1">
                    <mxGeometry x="420" y="720" width="80" height="80" as="geometry"/>
                </mxCell>
                <mxCell id="ZQFW1FxyH6ks3i3n7b6g-332" value="" style="shape=cube;whiteSpace=wrap;html=1;boundedLbl=1;backgroundOutline=1;darkOpacity=0.05;darkOpacity2=0.1;" vertex="1" parent="1">
                    <mxGeometry x="510" y="720" width="80" height="80" as="geometry"/>
                </mxCell>
                <mxCell id="ZQFW1FxyH6ks3i3n7b6g-333" value="" style="shape=cube;whiteSpace=wrap;html=1;boundedLbl=1;backgroundOutline=1;darkOpacity=0.05;darkOpacity2=0.1;fillColor=#ffcd28;strokeColor=#d79b00;gradientColor=#ffa500;" vertex="1" parent="1">
                    <mxGeometry x="600" y="720" width="80" height="80" as="geometry"/>
                </mxCell>
                <mxCell id="ZQFW1FxyH6ks3i3n7b6g-334" value="" style="shape=cube;whiteSpace=wrap;html=1;boundedLbl=1;backgroundOutline=1;darkOpacity=0.05;darkOpacity2=0.1;fillColor=#f5f5f5;strokeColor=#666666;gradientColor=#b3b3b3;" vertex="1" parent="1">
                    <mxGeometry x="820" y="720" width="80" height="80" as="geometry"/>
                </mxCell>
                <mxCell id="ZQFW1FxyH6ks3i3n7b6g-335" value="&lt;font style=&quot;font-size: 22px;&quot;&gt;R&lt;/font&gt;" style="text;strokeColor=none;align=center;fillColor=none;html=1;verticalAlign=middle;whiteSpace=wrap;rounded=0;" vertex="1" parent="1">
                    <mxGeometry x="260" y="820" width="60" height="30" as="geometry"/>
                </mxCell>
                <mxCell id="ZQFW1FxyH6ks3i3n7b6g-336" value="&lt;font style=&quot;font-size: 22px;&quot;&gt;G&lt;/font&gt;" style="text;strokeColor=none;align=center;fillColor=none;html=1;verticalAlign=middle;whiteSpace=wrap;rounded=0;" vertex="1" parent="1">
                    <mxGeometry x="350" y="820" width="60" height="30" as="geometry"/>
                </mxCell>
                <mxCell id="ZQFW1FxyH6ks3i3n7b6g-337" value="&lt;font style=&quot;font-size: 22px;&quot;&gt;B&lt;/font&gt;" style="text;strokeColor=none;align=center;fillColor=none;html=1;verticalAlign=middle;whiteSpace=wrap;rounded=0;" vertex="1" parent="1">
                    <mxGeometry x="440" y="820" width="60" height="30" as="geometry"/>
                </mxCell>
                <mxCell id="ZQFW1FxyH6ks3i3n7b6g-338" value="&lt;font style=&quot;font-size: 22px;&quot;&gt;D&lt;/font&gt;" style="text;strokeColor=none;align=center;fillColor=none;html=1;verticalAlign=middle;whiteSpace=wrap;rounded=0;" vertex="1" parent="1">
                    <mxGeometry x="530" y="820" width="60" height="30" as="geometry"/>
                </mxCell>
                <mxCell id="ZQFW1FxyH6ks3i3n7b6g-339" value="&lt;font style=&quot;font-size: 22px;&quot;&gt;T&lt;/font&gt;" style="text;strokeColor=none;align=center;fillColor=none;html=1;verticalAlign=middle;whiteSpace=wrap;rounded=0;" vertex="1" parent="1">
                    <mxGeometry x="620" y="820" width="60" height="30" as="geometry"/>
                </mxCell>
                <mxCell id="ZQFW1FxyH6ks3i3n7b6g-340" value="&lt;font style=&quot;font-size: 22px;&quot;&gt;Dropped&lt;/font&gt;" style="text;strokeColor=none;align=center;fillColor=none;html=1;verticalAlign=middle;whiteSpace=wrap;rounded=0;" vertex="1" parent="1">
                    <mxGeometry x="840" y="820" width="60" height="30" as="geometry"/>
                </mxCell>
            </root>
        </mxGraphModel>
    </diagram>
</mxfile>